<?xml version="1.0" encoding="UTF-8" standalone="no"?>
<!DOCTYPE svg PUBLIC "-//W3C//DTD SVG 1.1//EN" "http://www.w3.org/Graphics/SVG/1.1/DTD/svg11.dtd">
<svg width="1302.31" height="245.41" xmlns="http://www.w3.org/2000/svg">
    <defs>
    <style type="text/css">@font-face{font-family:rex;src:url('http://rex.breeden.cc/rex-xits.otf');}</style>
    </defs>
    <g font-family="rex" font-size="96.0px">
<text transform="translate(12.00, 209.79)">î¤¤</text>
<text transform="translate(120.96, 53.79) scale(0.68)">âˆ</text>
<text transform="translate(68.16, 240.41) scale(0.68)">âˆ’</text>
<text transform="translate(112.88, 240.41) scale(0.68)">âˆ</text>
<text transform="translate(199.01, 87.53)">ğ‘ </text>
<text transform="translate(241.25, 87.53)">ğ‘–</text>
<text transform="translate(271.11, 87.53)">ğ‘›</text>
<text transform="translate(318.82, 87.53)">(</text>
<text transform="translate(350.79, 87.53)">ğ‘¥</text>
<text transform="translate(403.59, 87.53)">)</text>
<rect x="199.01" y ="123.53" width="236.54" height="6.34" fill="#000"/>
<text transform="translate(290.88, 217.90)">ğ‘¥</text>
<text transform="translate(469.15, 150.70)">d</text>
<text transform="translate(517.15, 150.70)">ğ‘¥</text>
<text transform="translate(601.95, 150.70)">=</text>
<text transform="translate(699.71, 209.79)">î¤¤</text>
<text transform="translate(808.67, 53.79) scale(0.68)">âˆ</text>
<text transform="translate(755.87, 240.41) scale(0.68)">âˆ’</text>
<text transform="translate(800.59, 240.41) scale(0.68)">âˆ</text>
<text transform="translate(886.72, 87.53)">ğ‘ </text>
<text transform="translate(928.96, 87.53)">ğ‘–</text>
<text transform="translate(958.82, 87.53)">ğ‘›</text>
<text transform="translate(1006.53, 49.13) scale(0.68)">2</text>
<text transform="translate(1039.17, 87.53)">(</text>
<text transform="translate(1071.14, 87.53)">ğ‘¥</text>
<text transform="translate(1123.94, 87.53)">)</text>
<rect x="886.72" y ="123.53" width="269.18" height="6.34" fill="#000"/>
<text transform="translate(978.59, 219.40)">ğ‘¥</text>
<text transform="translate(1031.39, 193.00) scale(0.68)">2</text>
<text transform="translate(1189.51, 150.70)">d</text>
<text transform="translate(1237.51, 150.70)">ğ‘¥</text>
</g>
</svg>

