<?xml version="1.0" encoding="UTF-8" standalone="no"?>
<!DOCTYPE svg PUBLIC "-//W3C//DTD SVG 1.1//EN" "http://www.w3.org/Graphics/SVG/1.1/DTD/svg11.dtd">
<svg width="1342.18275" height="254.589" viewBox="0 0 13981 2651" xmlns="http://www.w3.org/2000/svg">
    <defs>
    <style type="text/css">@font-face{font-family:rex;src:url('http://rex.breeden.cc/rex-xits.otf');}</style>
    </defs>
    <g font-family="rex" font-size="1000">
<text transform="translate(250, 2232)">î¤¤</text>
<text transform="translate(1385, 607) scale(0.68)">âˆ</text>
<text transform="translate(835, 2551) scale(0.68)">âˆ’</text>
<text transform="translate(1300, 2551) scale(0.68)">âˆ</text>
<text transform="translate(2281, 959)">s</text>
<text transform="translate(2670, 959)">i</text>
<text transform="translate(2948, 959)">n</text>
<text transform="translate(3448, 959)">(</text>
<text transform="translate(3781, 959)">ğ‘¥</text>
<text transform="translate(4331, 959)">)</text>
<rect x="2281" y ="1334" width="2383" height="66" fill="#000"/>
<text transform="translate(3197, 2317)">ğ‘¥</text>
<text transform="translate(5094, 1617)">d</text>
<text transform="translate(5594, 1617)">ğ‘¥</text>
<text transform="translate(6478, 1617)">=</text>
<text transform="translate(7496, 2232)">î¤¤</text>
<text transform="translate(8631, 607) scale(0.68)">âˆ</text>
<text transform="translate(8081, 2551) scale(0.68)">âˆ’</text>
<text transform="translate(8547, 2551) scale(0.68)">âˆ</text>
<text transform="translate(9527, 959)">s</text>
<text transform="translate(9916, 959)">i</text>
<text transform="translate(10194, 959)">n</text>
<text transform="translate(10694, 559) scale(0.68)">2</text>
<text transform="translate(11034, 959)">(</text>
<text transform="translate(11367, 959)">ğ‘¥</text>
<text transform="translate(11917, 959)">)</text>
<rect x="9527" y ="1334" width="2722" height="66" fill="#000"/>
<text transform="translate(10444, 2332)">ğ‘¥</text>
<text transform="translate(10994, 2057) scale(0.68)">2</text>
<text transform="translate(12681, 1617)">d</text>
<text transform="translate(13181, 1617)">ğ‘¥</text>
</g>
</svg>

