<?xml version="1.0" encoding="UTF-8" standalone="no"?>
<!DOCTYPE svg PUBLIC "-//W3C//DTD SVG 1.1//EN" "http://www.w3.org/Graphics/SVG/1.1/DTD/svg11.dtd">
<svg width="1292.90" height="245.41" xmlns="http://www.w3.org/2000/svg">
    <defs>
    <style type="text/css">@font-face{font-family:rex;src:url('http://rex.breeden.cc/rex-xits.otf');}</style>
    </defs>
    <g font-family="rex" font-size="96.0px">
<text transform="translate(12.00, 209.79)">î¤¤</text>
<text transform="translate(120.96, 53.79) scale(0.68)">âˆ</text>
<text transform="translate(68.16, 240.41) scale(0.68)">âˆ’</text>
<text transform="translate(112.88, 240.41) scale(0.68)">âˆ</text>
<text transform="translate(199.01, 87.53)">s</text>
<text transform="translate(236.35, 87.53)">i</text>
<text transform="translate(263.04, 87.53)">n</text>
<text transform="translate(311.04, 87.53)">(</text>
<text transform="translate(343.01, 87.53)">ğ‘¥</text>
<text transform="translate(395.81, 87.53)">)</text>
<rect x="199.01" y ="123.53" width="228.77" height="6.34" fill="#000"/>
<text transform="translate(286.99, 217.90)">ğ‘¥</text>
<text transform="translate(461.38, 150.70)">ğ‘‘</text>
<text transform="translate(512.45, 150.70)">ğ‘¥</text>
<text transform="translate(597.25, 150.70)">=</text>
<text transform="translate(695.01, 209.79)">î¤¤</text>
<text transform="translate(803.97, 53.79) scale(0.68)">âˆ</text>
<text transform="translate(751.17, 240.41) scale(0.68)">âˆ’</text>
<text transform="translate(795.89, 240.41) scale(0.68)">âˆ</text>
<text transform="translate(882.02, 87.53)">s</text>
<text transform="translate(919.36, 87.53)">i</text>
<text transform="translate(946.05, 87.53)">n</text>
<text transform="translate(994.05, 49.13) scale(0.68)">2</text>
<text transform="translate(1026.69, 87.53)">(</text>
<text transform="translate(1058.66, 87.53)">ğ‘¥</text>
<text transform="translate(1111.46, 87.53)">)</text>
<rect x="882.02" y ="123.53" width="261.41" height="6.34" fill="#000"/>
<text transform="translate(970.00, 219.40)">ğ‘¥</text>
<text transform="translate(1022.80, 193.00) scale(0.68)">2</text>
<text transform="translate(1177.03, 150.70)">ğ‘‘</text>
<text transform="translate(1228.10, 150.70)">ğ‘¥</text>
</g>
</svg>

