<?xml version="1.0" encoding="UTF-8" standalone="no"?><!DOCTYPE svg PUBLIC "-//W3C//DTD SVG 1.1//EN" "http://www.w3.org/Graphics/SVG/1.1/DTD/svg11.dtd"><svg width="1267.55" height="245.41" xmlns="http://www.w3.org/2000/svg">
<defs>
  <style type="text/css">@font-face{font-family:rex;src:url('http://rex.breeden.cc/rex-xits.otf');}</style>
</defs>
<g font-family="rex" font-size="96.0px"><g transform="translate(12.00 5.00)"><g transform="translate(0.00 12.79)"><g transform="translate(0.00 192.00)"><text></text></g></g><g transform="translate(108.96 20.71)"><g transform="translate(0.00 28.07)"><text transform="scale(0.68)">∞</text></g><g transform="translate(0.00 186.62)"><g transform="translate(-52.80 0.00)"><g transform="translate(0.00 28.07)"><text transform="scale(0.68)">−</text></g><g transform="translate(44.72 28.07)"><text transform="scale(0.68)">∞</text></g></g></g></g><g transform="translate(187.01 16.96)"><g transform="translate(0.00 65.57)"><text>s</text></g><g transform="translate(37.34 65.57)"><text>i</text></g><g transform="translate(64.03 65.57)"><text>n</text></g><g transform="translate(112.03 65.57)"><text>(</text></g><g transform="translate(144.00 65.57)"><text>x</text></g><g transform="translate(192.00 65.57)"><text>)</text></g><rect x="0.00" y ="101.57" width="223.97" height="6.34" fill="#000"/><g transform="translate(0.00 152.74)"><g transform="translate(87.98 43.20)"><text>x</text></g></g></g><g transform="translate(444.58 145.70)"><text>d</text></g><g transform="translate(492.58 145.70)"><text>x</text></g><g transform="translate(572.58 145.70)"><text>=</text></g><g transform="translate(670.34 12.79)"><g transform="translate(0.00 192.00)"><text></text></g></g><g transform="translate(779.30 20.71)"><g transform="translate(0.00 28.07)"><text transform="scale(0.68)">∞</text></g><g transform="translate(0.00 186.62)"><g transform="translate(-52.80 0.00)"><g transform="translate(0.00 28.07)"><text transform="scale(0.68)">−</text></g><g transform="translate(44.72 28.07)"><text transform="scale(0.68)">∞</text></g></g></g></g><g transform="translate(857.35 0.00)"><g transform="translate(0.00 16.96)"><g transform="translate(0.00 65.57)"><text>s</text></g><g transform="translate(37.34 65.57)"><text>i</text></g><g transform="translate(64.03 65.57)"><text>n</text></g></g><g transform="translate(112.03 0.00)"><g transform="translate(0.00 44.13)"><text transform="scale(0.68)">2</text></g></g><g transform="translate(144.67 82.53)"><text>(</text></g><g transform="translate(176.64 82.53)"><text>x</text></g><g transform="translate(224.64 82.53)"><text>)</text></g><rect x="0.00" y ="118.53" width="256.61" height="6.34" fill="#000"/><g transform="translate(0.00 143.87)"><g transform="translate(87.98 27.33)"><g transform="translate(0.00 43.20)"><text>x</text></g></g><g transform="translate(135.98 0.00)"><g transform="translate(0.00 44.13)"><text transform="scale(0.68)">2</text></g></g></g></g><g transform="translate(1147.55 145.70)"><text>d</text></g><g transform="translate(1195.55 145.70)"><text>x</text></g></g></g></svg>