<?xml version="1.0" encoding="UTF-8" standalone="no"?><!DOCTYPE svg PUBLIC "-//W3C//DTD SVG 1.1//EN" "http://www.w3.org/Graphics/SVG/1.1/DTD/svg11.dtd"><svg width="1286.75456" height="245.40927999999997" xmlns="http://www.w3.org/2000/svg"><defs><style type="text/css">@font-face{font-family: rex;src: url('http://rex.breeden.cc/rex-xits.otf');}</style></defs><g font-family="rex" font-size="96.0px"><g transform="translate(12.00,5.00)">
<g transform="translate(0,12.785279999999972)">
<g transform="translate(0,0)">
<g transform="translate(0,192)">
<text>î¤¤</text></g>
</g></g><g transform="translate(108.96000000000001,20.714879999999965)">
<g transform="translate(0,0)">
<g transform="translate(0,0)">
<g transform="translate(0,28.070400000000003)">
<g transform="scale(0.68)"><text>âˆ</text></g>
</g></g></g><g transform="translate(0,186.624)">
<g transform="translate(-52.800000000000004,0)">
<g transform="translate(0,28.070400000000003)">
<g transform="scale(0.68)"><text>âˆ’</text></g>
</g><g transform="translate(44.716800000000006,28.070400000000003)">
<g transform="scale(0.68)"><text>âˆ</text></g>
</g></g></g></g><g transform="translate(187.00928000000002,16.961279999999988)">
<g transform="translate(0,0)">
<g transform="translate(0,0)">
<g transform="translate(0,65.56800000000001)">
<text>s</text></g>
<g transform="translate(37.344,65.56800000000001)">
<text>i</text></g>
<g transform="translate(64.03200000000001,65.56800000000001)">
<text>n</text></g>
</g><g transform="translate(112.03200000000001,65.56800000000001)">
<text>(</text></g>
<g transform="translate(144,65.56800000000001)">
<text>ğ‘¥</text></g>
<g transform="translate(196.8,65.56800000000001)">
<text>)</text></g>
</g><rect x="0" y="101.56800000000001" width="228.76800000000003" height="6.336" fill="#000"/><g transform="translate(0,153.6)">
<g transform="translate(87.98400000000001,42.336)">
<text>ğ‘¥</text></g>
</g></g><g transform="translate(449.37728000000004,145.69727999999998)">
<text>d</text></g>
<g transform="translate(497.37728000000004,145.69727999999998)">
<text>ğ‘¥</text></g>
<g transform="translate(582.17728,145.69727999999998)">
<text>=</text></g>
<g transform="translate(679.93728,12.785279999999972)">
<g transform="translate(0,0)">
<g transform="translate(0,192)">
<text>î¤¤</text></g>
</g></g><g transform="translate(788.89728,20.714879999999965)">
<g transform="translate(0,0)">
<g transform="translate(0,0)">
<g transform="translate(0,28.070400000000003)">
<g transform="scale(0.68)"><text>âˆ</text></g>
</g></g></g><g transform="translate(0,186.624)">
<g transform="translate(-52.800000000000004,0)">
<g transform="translate(0,28.070400000000003)">
<g transform="scale(0.68)"><text>âˆ’</text></g>
</g><g transform="translate(44.716800000000006,28.070400000000003)">
<g transform="scale(0.68)"><text>âˆ</text></g>
</g></g></g></g><g transform="translate(866.9465600000001,0)">
<g transform="translate(0,0)">
<g transform="translate(0,16.961279999999988)">
<g transform="translate(0,0)">
<g transform="translate(0,65.56800000000001)">
<text>s</text></g>
<g transform="translate(37.344,65.56800000000001)">
<text>i</text></g>
<g transform="translate(64.03200000000001,65.56800000000001)">
<text>n</text></g>
</g></g><g transform="translate(112.03200000000001,0)">
<g transform="translate(0,0)">
<g transform="translate(0,44.12928)">
<g transform="scale(0.68)"><text>2</text></g>
</g></g></g><g transform="translate(144.67200000000003,82.52928)">
<text>(</text></g>
<g transform="translate(176.64000000000004,82.52928)">
<text>ğ‘¥</text></g>
<g transform="translate(229.44000000000005,82.52928)">
<text>)</text></g>
</g><rect x="0" y="118.52928" width="261.4080000000001" height="6.336" fill="#000"/><g transform="translate(0,143.87328)">
<g transform="translate(87.98400000000004,28.19328)">
<g transform="translate(0,42.336)">
<text>ğ‘¥</text></g>
</g><g transform="translate(140.78400000000005,0)">
<g transform="translate(0,0)">
<g transform="translate(0,44.12928)">
<g transform="scale(0.68)"><text>2</text></g>
</g></g></g></g></g><g transform="translate(1161.9545600000001,145.69727999999998)">
<text>d</text></g>
<g transform="translate(1209.9545600000001,145.69727999999998)">
<text>ğ‘¥</text></g>
</g></g></svg>