<?xml version="1.0" encoding="UTF-8" standalone="no"?><!DOCTYPE svg PUBLIC "-//W3C//DTD SVG 1.1//EN" "http://www.w3.org/Graphics/SVG/1.1/DTD/svg11.dtd"><svg width="165.50400000000002" height="293.29983999999996" xmlns="http://www.w3.org/2000/svg"><defs><style type="text/css">@font-face{font-family: rex;src: url('http://rex.breeden.cc/rex-xits.otf');}</style></defs><g font-family="rex" font-size="96.0px"><g transform="translate(12.00,5.00)">
<g transform="translate(0,124.51391999999997)">
<g transform="translate(0,42.336)">
<text>洧논</text></g>
</g><g transform="translate(52.800000000000004,0)">
<g transform="translate(0,0)">
<g transform="translate(0,0)">
<g transform="translate(0,53.064479999999996)">
<g transform="translate(0,28.78848)">
<g transform="scale(0.68)"><text>洧논</text></g>
</g></g><g transform="translate(35.904,0)">
<g transform="translate(0,0)">
<g transform="translate(0,0)">
<g transform="translate(0,20.735999999999997)">
<g transform="translate(0,21.168)">
<g transform="scale(0.5)"><text>洧논</text></g>
</g></g><g transform="translate(26.400000000000002,0)">
<g transform="translate(0,0)">
<g transform="translate(0,21.168)">
<g transform="scale(0.5)"><text>洧논</text></g>
</g></g><g transform="translate(0,34.272)">
<g transform="translate(0,21.168)">
<g transform="scale(0.5)"><text>洧논</text></g>
</g></g></g></g></g><g transform="translate(0,73.10592)">
<g transform="translate(0,0)">
<g transform="translate(0,17.736000000000004)">
<g transform="translate(0,21.168)">
<g transform="scale(0.5)"><text>洧논</text></g>
</g></g><g transform="translate(26.400000000000002,0)">
<g transform="translate(0,0)">
<g transform="translate(0,21.168)">
<g transform="scale(0.5)"><text>洧논</text></g>
</g></g><g transform="translate(0,34.272000000000006)">
<g transform="translate(0,21.168)">
<g transform="scale(0.5)"><text>洧논</text></g>
</g></g></g></g></g></g></g></g><g transform="translate(0,154.32191999999998)">
<g transform="translate(0,0)">
<g transform="translate(0,51.07247999999999)">
<g transform="translate(0,28.78848)">
<g transform="scale(0.68)"><text>洧논</text></g>
</g></g><g transform="translate(35.904,0)">
<g transform="translate(0,0)">
<g transform="translate(0,0)">
<g transform="translate(0,17.736000000000004)">
<g transform="translate(0,21.168)">
<g transform="scale(0.5)"><text>洧논</text></g>
</g></g><g transform="translate(26.400000000000002,0)">
<g transform="translate(0,0)">
<g transform="translate(0,21.168)">
<g transform="scale(0.5)"><text>洧논</text></g>
</g></g><g transform="translate(0,34.272000000000006)">
<g transform="translate(0,21.168)">
<g transform="scale(0.5)"><text>洧논</text></g>
</g></g></g></g></g><g transform="translate(0,73.10592)">
<g transform="translate(0,0)">
<g transform="translate(0,17.736000000000004)">
<g transform="translate(0,21.168)">
<g transform="scale(0.5)"><text>洧논</text></g>
</g></g><g transform="translate(26.400000000000002,0)">
<g transform="translate(0,0)">
<g transform="translate(0,21.168)">
<g transform="scale(0.5)"><text>洧논</text></g>
</g></g><g transform="translate(0,34.272000000000006)">
<g transform="translate(0,21.168)">
<g transform="scale(0.5)"><text>洧논</text></g>
</g></g></g></g></g></g></g></g></g></g></g></svg>