<?xml version="1.0" encoding="UTF-8" standalone="no"?>
<!DOCTYPE svg PUBLIC "-//W3C//DTD SVG 1.1//EN" "http://www.w3.org/Graphics/SVG/1.1/DTD/svg11.dtd">
<svg width="152.64" height="293.30" xmlns="http://www.w3.org/2000/svg">
    <defs>
    <style type="text/css">@font-face{font-family:rex;src:url('http://rex.breeden.cc/rex-xits.otf');}</style>
    </defs>
    <g font-family="rex" font-size="96.0px"><g transform="translate(12.00 5.00)"><g transform="translate(0.00 123.65)"><g transform="translate(0.00 43.20)"><text>x</text></g></g><g transform="translate(48.00 0.00)"><g transform="translate(0.00 52.91)"><g transform="translate(0.00 29.38)"><text transform="scale(0.68)">x</text></g></g><g transform="translate(32.64 0.00)"><g transform="translate(0.00 20.74)"><g transform="translate(0.00 21.60)"><text transform="scale(0.50)">x</text></g></g><g transform="translate(24.00 0.00)"><g transform="translate(0.00 21.60)"><text transform="scale(0.50)">x</text></g><g transform="translate(0.00 34.27)"><g transform="translate(0.00 21.60)"><text transform="scale(0.50)">x</text></g></g></g><g transform="translate(0.00 73.11)"><g transform="translate(0.00 17.74)"><g transform="translate(0.00 21.60)"><text transform="scale(0.50)">x</text></g></g><g transform="translate(24.00 0.00)"><g transform="translate(0.00 21.60)"><text transform="scale(0.50)">x</text></g><g transform="translate(0.00 34.27)"><g transform="translate(0.00 21.60)"><text transform="scale(0.50)">x</text></g></g></g></g></g><g transform="translate(0.00 154.32)"><g transform="translate(0.00 50.70)"><g transform="translate(0.00 29.38)"><text transform="scale(0.68)">x</text></g></g><g transform="translate(32.64 0.00)"><g transform="translate(0.00 17.74)"><g transform="translate(0.00 21.60)"><text transform="scale(0.50)">x</text></g></g><g transform="translate(24.00 0.00)"><g transform="translate(0.00 21.60)"><text transform="scale(0.50)">x</text></g><g transform="translate(0.00 34.27)"><g transform="translate(0.00 21.60)"><text transform="scale(0.50)">x</text></g></g></g><g transform="translate(0.00 73.11)"><g transform="translate(0.00 17.74)"><g transform="translate(0.00 21.60)"><text transform="scale(0.50)">x</text></g></g><g transform="translate(24.00 0.00)"><g transform="translate(0.00 21.60)"><text transform="scale(0.50)">x</text></g><g transform="translate(0.00 34.27)"><g transform="translate(0.00 21.60)"><text transform="scale(0.50)">x</text></g></g></g></g></g></g></g></g></g>
</svg>
