<?xml version="1.0" encoding="UTF-8" standalone="no"?>
<!DOCTYPE svg PUBLIC "-//W3C//DTD SVG 1.1//EN" "http://www.w3.org/Graphics/SVG/1.1/DTD/svg11.dtd">
<svg width="165.50" height="293.30" xmlns="http://www.w3.org/2000/svg">
    <defs>
    <style type="text/css">@font-face{font-family:rex;src:url('http://rex.breeden.cc/rex-xits.otf');}</style>
    </defs>
    <g font-family="rex" font-size="96.0px"><g transform="translate(12.00 5.00)"><g transform="translate(0.00 124.51)"><g transform="translate(0.00 42.34)"><text>洧논</text></g></g><g transform="translate(52.80 0.00)"><g transform="translate(0.00 53.06)"><g transform="translate(0.00 28.79)"><text transform="scale(0.68)">洧논</text></g></g><g transform="translate(35.90 0.00)"><g transform="translate(0.00 20.74)"><g transform="translate(0.00 21.17)"><text transform="scale(0.50)">洧논</text></g></g><g transform="translate(26.40 0.00)"><g transform="translate(0.00 21.17)"><text transform="scale(0.50)">洧논</text></g><g transform="translate(0.00 34.27)"><g transform="translate(0.00 21.17)"><text transform="scale(0.50)">洧논</text></g></g></g><g transform="translate(0.00 73.11)"><g transform="translate(0.00 17.74)"><g transform="translate(0.00 21.17)"><text transform="scale(0.50)">洧논</text></g></g><g transform="translate(26.40 0.00)"><g transform="translate(0.00 21.17)"><text transform="scale(0.50)">洧논</text></g><g transform="translate(0.00 34.27)"><g transform="translate(0.00 21.17)"><text transform="scale(0.50)">洧논</text></g></g></g></g></g><g transform="translate(0.00 154.32)"><g transform="translate(0.00 51.07)"><g transform="translate(0.00 28.79)"><text transform="scale(0.68)">洧논</text></g></g><g transform="translate(35.90 0.00)"><g transform="translate(0.00 17.74)"><g transform="translate(0.00 21.17)"><text transform="scale(0.50)">洧논</text></g></g><g transform="translate(26.40 0.00)"><g transform="translate(0.00 21.17)"><text transform="scale(0.50)">洧논</text></g><g transform="translate(0.00 34.27)"><g transform="translate(0.00 21.17)"><text transform="scale(0.50)">洧논</text></g></g></g><g transform="translate(0.00 73.11)"><g transform="translate(0.00 17.74)"><g transform="translate(0.00 21.17)"><text transform="scale(0.50)">洧논</text></g></g><g transform="translate(26.40 0.00)"><g transform="translate(0.00 21.17)"><text transform="scale(0.50)">洧논</text></g><g transform="translate(0.00 34.27)"><g transform="translate(0.00 21.17)"><text transform="scale(0.50)">洧논</text></g></g></g></g></g></g></g></g></g>
</svg>
