<?xml version="1.0" encoding="UTF-8" standalone="no"?>
<!DOCTYPE svg PUBLIC "-//W3C//DTD SVG 1.1//EN" "http://www.w3.org/Graphics/SVG/1.1/DTD/svg11.dtd">
<svg width="1174.37" height="235.04" xmlns="http://www.w3.org/2000/svg">
    <defs>
    <style type="text/css">@font-face{font-family:rex;src:url('http://rex.breeden.cc/rex-xits.otf');}</style>
    </defs>
    <g font-family="rex" font-size="96.0px">
<text transform="translate(12.00, 137.91)">ğ‘“</text>
<text transform="translate(76.80, 99.51) scale(0.68)">(</text>
<text transform="translate(98.54, 99.51) scale(0.68)">ğ‘›</text>
<text transform="translate(130.98, 99.51) scale(0.68)">)</text>
<text transform="translate(152.72, 137.91)">(</text>
<text transform="translate(184.69, 137.91)">ğ‘§</text>
<text transform="translate(232.59, 137.91)">)</text>
<text transform="translate(296.56, 137.91)">=</text>
<text transform="translate(419.06, 82.23)">ğ‘›</text>
<text transform="translate(466.77, 82.23)">!</text>
<rect x="395.92" y ="110.74" width="125.95" height="6.34" fill="#000"/>
<text transform="translate(395.92, 205.11)">2</text>
<text transform="translate(443.92, 205.11)">Ï€</text>
<text transform="translate(492.02, 205.11)">ğ‘–</text>
<text transform="translate(539.47, 197.00)">î¤¶</text>
<text transform="translate(772.46, 70.81)">ğ‘“</text>
<text transform="translate(825.74, 70.81)">(</text>
<text transform="translate(857.71, 70.81)">Î¾</text>
<text transform="translate(900.04, 70.81)">)</text>
<rect x="666.03" y ="110.74" width="372.40" height="6.34" fill="#000"/>
<text transform="translate(666.03, 209.11)">(</text>
<text transform="translate(698.00, 209.11)">Î¾</text>
<text transform="translate(761.67, 209.11)">âˆ’</text>
<text transform="translate(848.76, 209.11)">ğ‘§</text>
<text transform="translate(896.67, 209.11)">)</text>
<text transform="translate(928.64, 180.22) scale(0.68)">ğ‘›</text>
<text transform="translate(961.08, 180.22) scale(0.68)">+</text>
<text transform="translate(1005.80, 180.22) scale(0.68)">1</text>
<text transform="translate(1072.04, 137.91)">d</text>
<text transform="translate(1120.04, 137.91)">Î¾</text>
</g>
</svg>

