<?xml version="1.0" encoding="UTF-8" standalone="no"?><!DOCTYPE svg PUBLIC "-//W3C//DTD SVG 1.1//EN" "http://www.w3.org/Graphics/SVG/1.1/DTD/svg11.dtd"><svg width="1448.37" height="391.73" xmlns="http://www.w3.org/2000/svg">
<defs>
  <style type="text/css">@font-face{font-family:rex;src:url('http://rex.breeden.cc/rex-xits.otf');}</style>
</defs>
<g font-family="rex" font-size="96.0px"><g transform="translate(12.00 5.00)"><g transform="translate(1.60 17.63)"><g transform="translate(340.61 64.90)"><text>1</text></g><rect x="0.00" y ="93.41" width="729.23" height="6.34" fill="#000"/><g transform="translate(0.00 118.75)"><g transform="translate(0.00 198.34)"><text>îœš</text></g><g transform="translate(72.00 7.44)"><g transform="translate(0.00 148.99)"><text>î¤‰</text></g><g transform="translate(101.47 0.00)"><rect x="0.00" y ="0.00" width="196.90" height="6.34" fill="#000"/><g transform="translate(0.00 36.05)"><g transform="translate(0.00 98.59)"><text>Ï†</text></g><g transform="translate(59.81 0.00)"><g transform="translate(0.00 93.41)"><text>âˆš</text></g></g><g transform="translate(148.90 0.00)"><rect x="0.00" y ="0.00" width="48.00" height="6.34" fill="#000"/><g transform="translate(0.00 32.54)"><g transform="translate(0.00 66.05)"><text>5</text></g></g></g></g></g><g transform="translate(319.70 134.64)"><text>âˆ’</text></g><g transform="translate(406.79 134.64)"><text>Ï†</text></g></g><g transform="translate(538.60 0.00)"><g transform="translate(0.00 198.34)"><text>îœ</text></g></g><g transform="translate(626.60 99.74)"><g transform="translate(0.00 42.34)"><text>ğ‘’</text></g></g><g transform="translate(669.32 34.29)"><g transform="translate(1.60 0.00)"><g transform="translate(0.00 32.45)"><text transform="scale(0.50)">2</text></g><rect x="0.00" y ="45.31" width="24.00" height="4.31" fill="#000"/><g transform="translate(0.00 62.09)"><g transform="translate(0.00 33.02)"><text transform="scale(0.50)">5</text></g></g></g><g transform="translate(27.20 63.78)"><text transform="scale(0.68)">Ï€</text></g></g></g></g><g transform="translate(764.43 138.21)"><text>=</text></g><g transform="translate(862.19 138.21)"><text>1</text></g><g transform="translate(931.52 138.21)"><text>+</text></g><g transform="translate(1020.21 0.00)"><g transform="translate(124.88 40.19)"><g transform="translate(0.00 42.34)"><text>ğ‘’</text></g></g><g transform="translate(167.60 0.00)"><g transform="translate(0.00 44.13)"><text transform="scale(0.68)">âˆ’</text></g><g transform="translate(44.72 44.13)"><text transform="scale(0.68)">2</text></g><g transform="translate(77.36 44.13)"><text transform="scale(0.68)">Ï€</text></g></g><rect x="0.00" y ="111.04" width="402.55" height="6.34" fill="#000"/><g transform="translate(0.00 136.39)"><g transform="translate(0.00 96.48)"><text>1</text></g><g transform="translate(69.33 96.48)"><text>+</text></g><g transform="translate(158.03 0.00)"><g transform="translate(66.47 21.61)"><g transform="translate(0.00 28.79)"><text transform="scale(0.68)">ğ‘’</text></g></g><g transform="translate(95.52 0.00)"><g transform="translate(0.00 32.45)"><text transform="scale(0.50)">âˆ’</text></g><g transform="translate(32.88 32.45)"><text transform="scale(0.50)">4</text></g><g transform="translate(56.88 32.45)"><text transform="scale(0.50)">Ï€</text></g></g><rect x="0.00" y ="69.31" width="242.92" height="6.34" fill="#000"/><g transform="translate(0.00 81.98)"><g transform="translate(0.00 77.37)"><text transform="scale(0.68)">1</text></g><g transform="translate(32.64 77.37)"><text transform="scale(0.68)">+</text></g><g transform="translate(78.96 0.00)"><g transform="translate(30.04 24.86)"><g transform="translate(0.00 21.17)"><text transform="scale(0.50)">ğ‘’</text></g></g><g transform="translate(51.40 0.00)"><g transform="translate(0.00 32.83)"><text transform="scale(0.50)">âˆ’</text></g><g transform="translate(32.88 32.83)"><text transform="scale(0.50)">6</text></g><g transform="translate(56.88 32.83)"><text transform="scale(0.50)">Ï€</text></g></g><rect x="0.00" y ="58.89" width="162.37" height="4.31" fill="#000"/><g transform="translate(0.00 67.51)"><g transform="translate(0.00 68.69)"><text transform="scale(0.50)">1</text></g><g transform="translate(24.00 68.69)"><text transform="scale(0.50)">+</text></g><g transform="translate(58.48 0.00)"><g transform="translate(0.00 24.48)"><g transform="translate(0.00 21.17)"><text transform="scale(0.50)">ğ‘’</text></g></g><g transform="translate(21.36 0.00)"><g transform="translate(0.00 32.45)"><text transform="scale(0.50)">âˆ’</text></g><g transform="translate(32.88 32.45)"><text transform="scale(0.50)">8</text></g><g transform="translate(56.88 32.45)"><text transform="scale(0.50)">Ï€</text></g></g><rect x="0.00" y ="55.10" width="102.29" height="3.17" fill="#000"/><g transform="translate(0.00 61.44)"><g transform="translate(0.48 32.45)"><text transform="scale(0.50)">1</text></g><g transform="translate(24.48 32.45)"><text transform="scale(0.50)">+</text></g><g transform="translate(57.36 32.45)"><text transform="scale(0.50)">â‹¯</text></g></g></g></g></g></g></g></g></g></g></g></svg>