<?xml version="1.0" encoding="UTF-8" standalone="no"?>
<!DOCTYPE svg PUBLIC "-//W3C//DTD SVG 1.1//EN" "http://www.w3.org/Graphics/SVG/1.1/DTD/svg11.dtd">
<svg width="1448.37" height="391.73" xmlns="http://www.w3.org/2000/svg">
    <defs>
    <style type="text/css">@font-face{font-family:rex;src:url('http://rex.breeden.cc/rex-xits.otf');}</style>
    </defs>
    <g font-family="rex" font-size="96.0px">
<text transform="translate(354.21, 87.53)">1</text>
<rect x="13.60" y ="116.04" width="729.23" height="6.34" fill="#000"/>
<text transform="translate(13.60, 339.72)">îœš</text>
<text transform="translate(85.60, 297.82)">î¤‰</text>
<rect x="187.07" y ="148.83" width="196.90" height="6.34" fill="#000"/>
<text transform="translate(187.07, 283.47)">Ï†</text>
<text transform="translate(246.88, 278.28)">âˆš</text>
<rect x="335.97" y ="184.87" width="48.00" height="6.34" fill="#000"/>
<text transform="translate(335.97, 283.47)">5</text>
<text transform="translate(405.30, 283.47)">âˆ’</text>
<text transform="translate(492.39, 283.47)">Ï†</text>
<text transform="translate(552.20, 339.72)">îœ</text>
<text transform="translate(640.20, 283.47)">ğ‘’</text>
<text transform="translate(684.52, 208.12) scale(0.50)">2</text>
<rect x="684.52" y ="220.98" width="24.00" height="4.31" fill="#000"/>
<text transform="translate(684.52, 270.79) scale(0.50)">5</text>
<text transform="translate(710.12, 239.46) scale(0.68)">Ï€</text>
<text transform="translate(776.43, 143.21)">=</text>
<text transform="translate(874.19, 143.21)">1</text>
<text transform="translate(943.52, 143.21)">+</text>
<text transform="translate(1157.10, 87.53)">ğ‘’</text>
<text transform="translate(1199.82, 49.13) scale(0.68)">âˆ’</text>
<text transform="translate(1244.54, 49.13) scale(0.68)">2</text>
<text transform="translate(1277.18, 49.13) scale(0.68)">Ï€</text>
<rect x="1032.21" y ="116.04" width="402.55" height="6.34" fill="#000"/>
<text transform="translate(1032.21, 237.87)">1</text>
<text transform="translate(1101.55, 237.87)">+</text>
<text transform="translate(1256.71, 191.79) scale(0.68)">ğ‘’</text>
<text transform="translate(1285.76, 173.83) scale(0.50)">âˆ’</text>
<text transform="translate(1318.64, 173.83) scale(0.50)">4</text>
<text transform="translate(1342.64, 173.83) scale(0.50)">Ï€</text>
<rect x="1190.24" y ="210.70" width="242.92" height="6.34" fill="#000"/>
<text transform="translate(1190.24, 300.74) scale(0.68)">1</text>
<text transform="translate(1222.88, 300.74) scale(0.68)">+</text>
<text transform="translate(1299.24, 269.40) scale(0.50)">ğ‘’</text>
<text transform="translate(1320.60, 256.20) scale(0.50)">âˆ’</text>
<text transform="translate(1353.48, 256.20) scale(0.50)">6</text>
<text transform="translate(1377.48, 256.20) scale(0.50)">Ï€</text>
<rect x="1269.20" y ="282.26" width="162.37" height="4.31" fill="#000"/>
<text transform="translate(1269.20, 359.57) scale(0.50)">1</text>
<text transform="translate(1293.20, 359.57) scale(0.50)">+</text>
<text transform="translate(1327.68, 336.53) scale(0.50)">ğ‘’</text>
<text transform="translate(1349.04, 323.33) scale(0.50)">âˆ’</text>
<text transform="translate(1381.92, 323.33) scale(0.50)">8</text>
<text transform="translate(1405.92, 323.33) scale(0.50)">Ï€</text>
<rect x="1327.68" y ="345.98" width="102.29" height="3.17" fill="#000"/>
<text transform="translate(1328.16, 384.77) scale(0.50)">1</text>
<text transform="translate(1352.16, 384.77) scale(0.50)">+</text>
<text transform="translate(1385.04, 384.77) scale(0.50)">â‹¯</text>
</g>
</svg>

