<?xml version="1.0" encoding="UTF-8" standalone="no"?><!DOCTYPE svg PUBLIC "-//W3C//DTD SVG 1.1//EN" "http://www.w3.org/Graphics/SVG/1.1/DTD/svg11.dtd"><svg width="1174.3722666666667" height="235.04128000000003" xmlns="http://www.w3.org/2000/svg"><defs><style type="text/css">@font-face{font-family: rex;src: url('http://rex.breeden.cc/rex-xits.otf');}</style></defs><g font-family="rex" font-size="96.0px"><g transform="translate(12.00,5.00)">
<g transform="translate(0,68.784)">
<g transform="translate(0,64.128)">
<text>ğ‘“</text></g>
</g><g transform="translate(53.28,50.382720000000006)">
<g transform="translate(0,0)">
<g transform="translate(11.52,0)">
<g transform="translate(0,44.12928)">
<g transform="scale(0.68)"><text>(</text></g>
</g><g transform="translate(21.738240000000005,44.12928)">
<g transform="scale(0.68)"><text>ğ‘›</text></g>
</g><g transform="translate(54.18240000000001,44.12928)">
<g transform="scale(0.68)"><text>)</text></g>
</g></g></g></g><g transform="translate(140.72064,132.912)">
<text>(</text></g>
<g transform="translate(172.68864000000002,132.912)">
<text>ğ‘§</text></g>
<g transform="translate(220.59264000000002,132.912)">
<text>)</text></g>
<g transform="translate(284.56064000000003,132.912)">
<text>=</text></g>
<g transform="translate(383.92064000000005,12.336000000000041)">
<g transform="translate(0,0)">
<g transform="translate(23.135999999999996,64.896)">
<text>ğ‘›</text></g>
<g transform="translate(70.848,64.896)">
<text>!</text></g>
</g><rect x="0" y="93.40799999999999" width="125.952" height="6.336" fill="#000"/><g transform="translate(0,122.87999999999997)">
<g transform="translate(0,64.896)">
<text>2</text></g>
<g transform="translate(48,64.896)">
<text>Ï€</text></g>
<g transform="translate(96.096,64.896)">
<text>ğ‘–</text></g>
</g></g><g transform="translate(527.4726400000001,0)">
<g transform="translate(0,192)">
<text>î¤¶</text></g>
</g><g transform="translate(654.0326400000001,0.2400000000000091)">
<g transform="translate(0,0)">
<g transform="translate(106.42581333333334,65.56800000000001)">
<text>ğ‘“</text></g>
<g transform="translate(159.70581333333334,65.56800000000001)">
<text>(</text></g>
<g transform="translate(191.67381333333333,65.56800000000001)">
<text>Î¾</text></g>
<g transform="translate(234.00981333333334,65.56800000000001)">
<text>)</text></g>
</g><rect x="0" y="105.50400000000002" width="372.4036266666667" height="6.336" fill="#000"/><g transform="translate(0,130.848)">
<g transform="translate(0,73.02528000000001)">
<text>(</text></g>
<g transform="translate(31.968000000000004,73.02528000000001)">
<text>Î¾</text></g>
<g transform="translate(95.63733333333333,73.02528000000001)">
<text>âˆ’</text></g>
<g transform="translate(182.73066666666668,73.02528000000001)">
<text>ğ‘§</text></g>
<g transform="translate(230.63466666666667,8.129280000000008)">
<g transform="translate(0,64.896)">
<text>)</text></g>
</g><g transform="translate(262.60266666666666,0)">
<g transform="translate(0,0)">
<g transform="translate(0,0)">
<g transform="translate(0,44.12928)">
<g transform="scale(0.68)"><text>ğ‘›</text></g>
</g><g transform="translate(32.444160000000004,44.12928)">
<g transform="scale(0.68)"><text>+</text></g>
</g><g transform="translate(77.16096000000002,44.12928)">
<g transform="scale(0.68)"><text>1</text></g>
</g></g></g></g></g></g><g transform="translate(1060.0362666666667,132.912)">
<text>d</text></g>
<g transform="translate(1108.0362666666667,132.912)">
<text>Î¾</text></g>
</g></g></svg>