<?xml version="1.0" encoding="UTF-8" standalone="no"?><!DOCTYPE svg PUBLIC "-//W3C//DTD SVG 1.1//EN" "http://www.w3.org/Graphics/SVG/1.1/DTD/svg11.dtd"><svg width="1448.22" height="391.73" xmlns="http://www.w3.org/2000/svg">
<defs>
  <style type="text/css">@font-face{font-family:rex;src:url('http://rex.breeden.cc/rex-xits.otf');}</style>
</defs>
<g font-family="rex" font-size="96.0px"><g transform="translate(12.00 5.00)"><g transform="translate(1.60 17.63)"><g transform="translate(340.57 64.90)"><text>1</text></g><rect x="0.00" y ="93.41" width="729.13" height="6.34" fill="#000"/><g transform="translate(0.00 118.75)"><g transform="translate(0.00 198.34)"><text></text></g><g transform="translate(72.00 7.44)"><g transform="translate(0.00 148.99)"><text></text></g><g transform="translate(101.47 0.00)"><rect x="0.00" y ="0.00" width="196.90" height="6.34" fill="#000"/><g transform="translate(0.00 36.05)"><g transform="translate(0.00 98.59)"><text>φ</text></g><g transform="translate(59.81 0.00)"><g transform="translate(0.00 93.41)"><text>√</text></g></g><g transform="translate(148.90 0.00)"><rect x="0.00" y ="0.00" width="48.00" height="6.34" fill="#000"/><g transform="translate(0.00 32.54)"><g transform="translate(0.00 66.05)"><text>5</text></g></g></g></g></g><g transform="translate(319.70 134.64)"><text>−</text></g><g transform="translate(406.79 134.64)"><text>φ</text></g></g><g transform="translate(538.60 0.00)"><g transform="translate(0.00 198.34)"><text></text></g></g><g transform="translate(626.60 97.92)"><g transform="translate(0.00 44.16)"><text>e</text></g></g><g transform="translate(669.23 34.29)"><g transform="translate(1.60 0.00)"><g transform="translate(0.00 32.45)"><text transform="scale(0.50)">2</text></g><rect x="0.00" y ="45.31" width="24.00" height="4.31" fill="#000"/><g transform="translate(0.00 62.09)"><g transform="translate(0.00 33.02)"><text transform="scale(0.50)">5</text></g></g></g><g transform="translate(27.20 63.78)"><text transform="scale(0.68)">π</text></g></g></g></g><g transform="translate(764.33 138.21)"><text>=</text></g><g transform="translate(862.09 138.21)"><text>1</text></g><g transform="translate(931.43 138.21)"><text>+</text></g><g transform="translate(1020.12 0.00)"><g transform="translate(124.91 38.37)"><g transform="translate(0.00 44.16)"><text>e</text></g></g><g transform="translate(167.53 0.00)"><g transform="translate(0.00 44.13)"><text transform="scale(0.68)">−</text></g><g transform="translate(44.72 44.13)"><text transform="scale(0.68)">2</text></g><g transform="translate(77.36 44.13)"><text transform="scale(0.68)">π</text></g></g><rect x="0.00" y ="111.04" width="402.50" height="6.34" fill="#000"/><g transform="translate(0.00 136.39)"><g transform="translate(0.00 96.48)"><text>1</text></g><g transform="translate(69.33 96.48)"><text>+</text></g><g transform="translate(158.03 0.00)"><g transform="translate(66.48 20.37)"><g transform="translate(0.00 30.03)"><text transform="scale(0.68)">e</text></g></g><g transform="translate(95.47 0.00)"><g transform="translate(0.00 32.45)"><text transform="scale(0.50)">−</text></g><g transform="translate(32.88 32.45)"><text transform="scale(0.50)">4</text></g><g transform="translate(56.88 32.45)"><text transform="scale(0.50)">π</text></g></g><rect x="0.00" y ="69.31" width="242.88" height="6.34" fill="#000"/><g transform="translate(0.00 81.98)"><g transform="translate(0.00 77.37)"><text transform="scale(0.68)">1</text></g><g transform="translate(32.64 77.37)"><text transform="scale(0.68)">+</text></g><g transform="translate(78.96 0.00)"><g transform="translate(30.04 23.95)"><g transform="translate(0.00 22.08)"><text transform="scale(0.50)">e</text></g></g><g transform="translate(51.35 0.00)"><g transform="translate(0.00 32.83)"><text transform="scale(0.50)">−</text></g><g transform="translate(32.88 32.83)"><text transform="scale(0.50)">6</text></g><g transform="translate(56.88 32.83)"><text transform="scale(0.50)">π</text></g></g><rect x="0.00" y ="58.89" width="162.32" height="4.31" fill="#000"/><g transform="translate(0.00 67.51)"><g transform="translate(0.00 68.69)"><text transform="scale(0.50)">1</text></g><g transform="translate(24.00 68.69)"><text transform="scale(0.50)">+</text></g><g transform="translate(58.48 0.00)"><g transform="translate(0.00 23.57)"><g transform="translate(0.00 22.08)"><text transform="scale(0.50)">e</text></g></g><g transform="translate(21.31 0.00)"><g transform="translate(0.00 32.45)"><text transform="scale(0.50)">−</text></g><g transform="translate(32.88 32.45)"><text transform="scale(0.50)">8</text></g><g transform="translate(56.88 32.45)"><text transform="scale(0.50)">π</text></g></g><rect x="0.00" y ="55.10" width="102.24" height="3.17" fill="#000"/><g transform="translate(0.00 61.44)"><g transform="translate(0.46 32.45)"><text transform="scale(0.50)">1</text></g><g transform="translate(24.46 32.45)"><text transform="scale(0.50)">+</text></g><g transform="translate(57.34 32.45)"><text transform="scale(0.50)">⋯</text></g></g></g></g></g></g></g></g></g></g></g></svg>