<?xml version="1.0" encoding="UTF-8" standalone="no"?><!DOCTYPE svg PUBLIC "-//W3C//DTD SVG 1.1//EN" "http://www.w3.org/Graphics/SVG/1.1/DTD/svg11.dtd"><svg width="993.6" height="97.24864000000002" xmlns="http://www.w3.org/2000/svg"><defs><style type="text/css">@font-face{font-family: rex;src: url('http://rex.breeden.cc/rex-xits.otf');}</style></defs><g font-family="rex" font-size="96.0px"><g transform="translate(12.00,5.00)">
<g transform="translate(0,18.416640000000015)">
<g transform="translate(0,64.896)">
<text>3</text></g>
</g><g transform="translate(48,0.783360000000016)">
<g transform="translate(0,0)">
<g transform="translate(0,44.12928)">
<g transform="scale(0.68)"><text>3</text></g>
</g></g></g><g transform="translate(101.97333333333333,83.31264000000002)">
<text>+</text></g>
<g transform="translate(189.0666666666667,18.416640000000015)">
<g transform="translate(0,64.896)">
<text>4</text></g>
</g><g transform="translate(237.0666666666667,0.783360000000016)">
<g transform="translate(0,0)">
<g transform="translate(0,44.12928)">
<g transform="scale(0.68)"><text>4</text></g>
</g></g></g><g transform="translate(291.04,83.31264000000002)">
<text>+</text></g>
<g transform="translate(378.1333333333333,18.416640000000015)">
<g transform="translate(0,64.896)">
<text>3</text></g>
</g><g transform="translate(426.1333333333333,0.783360000000016)">
<g transform="translate(0,0)">
<g transform="translate(0,44.12928)">
<g transform="scale(0.68)"><text>3</text></g>
</g></g></g><g transform="translate(480.1066666666666,83.31264000000002)">
<text>+</text></g>
<g transform="translate(567.2,17.264640000000014)">
<g transform="translate(0,66.048)">
<text>5</text></g>
</g><g transform="translate(615.2,0)">
<g transform="translate(0,0)">
<g transform="translate(0,44.91264)">
<g transform="scale(0.68)"><text>5</text></g>
</g></g></g><g transform="translate(679.84,83.31264000000002)">
<text>=</text></g>
<g transform="translate(777.6,83.31264000000002)">
<text>3</text></g>
<g transform="translate(825.6,83.31264000000002)">
<text>4</text></g>
<g transform="translate(873.6,83.31264000000002)">
<text>3</text></g>
<g transform="translate(921.6,83.31264000000002)">
<text>5</text></g>
</g></g></svg>