<?xml version="1.0" encoding="UTF-8" standalone="no"?>
<!DOCTYPE svg PUBLIC "-//W3C//DTD SVG 1.1//EN" "http://www.w3.org/Graphics/SVG/1.1/DTD/svg11.dtd">
<svg width="1174.37" height="235.04" xmlns="http://www.w3.org/2000/svg">
    <defs>
    <style type="text/css">@font-face{font-family:rex;src:url('http://rex.breeden.cc/rex-xits.otf');}</style>
    </defs>
    <g font-family="rex" font-size="96.0px"><g transform="translate(12.00 5.00)">
<g transform="translate(0.00 68.78)">
<g transform="translate(0.00 64.13)">
<text>ğ‘“</text>
</g>
</g>
<g transform="translate(53.28 50.38)">
<g transform="translate(11.52 0.00)">
<g transform="translate(0.00 44.13)">
<text transform="scale(0.68)">(</text>
</g>
<g transform="translate(21.74 44.13)">
<text transform="scale(0.68)">ğ‘›</text>
</g>
<g transform="translate(54.18 44.13)">
<text transform="scale(0.68)">)</text>
</g>
</g>
</g>
<g transform="translate(140.72 132.91)">
<text>(</text>
</g>
<g transform="translate(172.69 132.91)">
<text>ğ‘§</text>
</g>
<g transform="translate(220.59 132.91)">
<text>)</text>
</g>
<g transform="translate(284.56 132.91)">
<text>=</text>
</g>
<g transform="translate(383.92 12.34)">
<g transform="translate(23.14 64.90)">
<text>ğ‘›</text>
</g>
<g transform="translate(70.85 64.90)">
<text>!</text>
</g>
<rect x="0.00" y ="93.41" width="125.95" height="6.34" fill="#000"/>
<g transform="translate(0.00 122.88)">
<g transform="translate(0.00 64.90)">
<text>2</text>
</g>
<g transform="translate(48.00 64.90)">
<text>Ï€</text>
</g>
<g transform="translate(96.10 64.90)">
<text>ğ‘–</text>
</g>
</g>
</g>
<g transform="translate(527.47 0.00)">
<g transform="translate(0.00 192.00)">
<text>î¤¶</text>
</g>
</g>
<g transform="translate(654.03 0.24)">
<g transform="translate(106.43 65.57)">
<text>ğ‘“</text>
</g>
<g transform="translate(159.71 65.57)">
<text>(</text>
</g>
<g transform="translate(191.67 65.57)">
<text>Î¾</text>
</g>
<g transform="translate(234.01 65.57)">
<text>)</text>
</g>
<rect x="0.00" y ="105.50" width="372.40" height="6.34" fill="#000"/>
<g transform="translate(0.00 130.85)">
<g transform="translate(0.00 73.03)">
<text>(</text>
</g>
<g transform="translate(31.97 73.03)">
<text>Î¾</text>
</g>
<g transform="translate(95.64 73.03)">
<text>âˆ’</text>
</g>
<g transform="translate(182.73 73.03)">
<text>ğ‘§</text>
</g>
<g transform="translate(230.63 8.13)">
<g transform="translate(0.00 64.90)">
<text>)</text>
</g>
</g>
<g transform="translate(262.60 0.00)">
<g transform="translate(0.00 44.13)">
<text transform="scale(0.68)">ğ‘›</text>
</g>
<g transform="translate(32.44 44.13)">
<text transform="scale(0.68)">+</text>
</g>
<g transform="translate(77.16 44.13)">
<text transform="scale(0.68)">1</text>
</g>
</g>
</g>
</g>
<g transform="translate(1060.04 132.91)">
<text>d</text>
</g>
<g transform="translate(1108.04 132.91)">
<text>Î¾</text>
</g>
</g>
</g>
</svg>

