<?xml version="1.0" encoding="UTF-8" standalone="no"?><!DOCTYPE svg PUBLIC "-//W3C//DTD SVG 1.1//EN" "http://www.w3.org/Graphics/SVG/1.1/DTD/svg11.dtd"><svg width="1137.80" height="235.04" xmlns="http://www.w3.org/2000/svg">
<defs>
  <style type="text/css">@font-face{font-family:rex;src:url('http://rex.breeden.cc/rex-xits.otf');}</style>
</defs>
<g font-family="rex" font-size="96.0px"><g transform="translate(12.00 5.00)"><g transform="translate(0.00 67.34)"><g transform="translate(0.00 65.57)"><text>f</text></g></g><g transform="translate(31.97 50.38)"><g transform="translate(9.60 0.00)"><g transform="translate(0.00 44.13)"><text transform="scale(0.68)">(</text></g><g transform="translate(21.74 44.13)"><text transform="scale(0.68)">n</text></g><g transform="translate(54.38 44.13)"><text transform="scale(0.68)">)</text></g></g></g><g transform="translate(117.68 132.91)"><text>(</text></g><g transform="translate(149.65 132.91)"><text>z</text></g><g transform="translate(192.28 132.91)"><text>)</text></g><g transform="translate(256.24 132.91)"><text>=</text></g><g transform="translate(355.60 12.34)"><g transform="translate(21.41 64.90)"><text>n</text></g><g transform="translate(69.41 64.90)"><text>!</text></g><rect x="0.00" y ="93.41" width="122.78" height="6.34" fill="#000"/><g transform="translate(0.00 122.21)"><g transform="translate(0.00 65.57)"><text>2</text></g><g transform="translate(48.00 65.57)"><text>π</text></g><g transform="translate(96.10 65.57)"><text>i</text></g></g></g><g transform="translate(495.99 0.00)"><g transform="translate(0.00 192.00)"><text></text></g></g><g transform="translate(622.55 0.24)"><g transform="translate(114.54 65.57)"><text>f</text></g><g transform="translate(146.51 65.57)"><text>(</text></g><g transform="translate(178.48 65.57)"><text>ξ</text></g><g transform="translate(220.81 65.57)"><text>)</text></g><rect x="0.00" y ="105.50" width="367.32" height="6.34" fill="#000"/><g transform="translate(0.00 130.85)"><g transform="translate(0.00 73.03)"><text>(</text></g><g transform="translate(31.97 73.03)"><text>ξ</text></g><g transform="translate(95.64 73.03)"><text>−</text></g><g transform="translate(182.73 73.03)"><text>z</text></g><g transform="translate(225.35 8.13)"><g transform="translate(0.00 64.90)"><text>)</text></g></g><g transform="translate(257.32 0.00)"><g transform="translate(0.00 44.13)"><text transform="scale(0.68)">n</text></g><g transform="translate(32.64 44.13)"><text transform="scale(0.68)">+</text></g><g transform="translate(77.36 44.13)"><text transform="scale(0.68)">1</text></g></g></g></g><g transform="translate(1023.47 132.91)"><text>d</text></g><g transform="translate(1071.47 132.91)"><text>ξ</text></g></g></g></svg>