<?xml version="1.0" encoding="UTF-8" standalone="no"?>
<!DOCTYPE svg PUBLIC "-//W3C//DTD SVG 1.1//EN" "http://www.w3.org/Graphics/SVG/1.1/DTD/svg11.dtd">
<svg width="1463.08" height="391.73" xmlns="http://www.w3.org/2000/svg">
    <defs>
    <style type="text/css">@font-face{font-family:rex;src:url('http://rex.breeden.cc/rex-xits.otf');}</style>
    </defs>
    <g font-family="rex" font-size="96.0px">
<text transform="translate(360.20, 87.53)">1</text>
<rect x="13.60" y ="116.04" width="741.20" height="6.34" fill="#000"/>
<text transform="translate(13.60, 339.72)">îœš</text>
<text transform="translate(85.60, 297.24)">î¤‰</text>
<rect x="187.07" y ="148.25" width="201.02" height="6.34" fill="#000"/>
<text transform="translate(187.07, 283.47)">ğœ‘</text>
<text transform="translate(251.01, 278.28)">âˆš</text>
<rect x="340.10" y ="184.87" width="48.00" height="6.34" fill="#000"/>
<text transform="translate(340.10, 283.47)">5</text>
<text transform="translate(409.43, 283.47)">âˆ’</text>
<text transform="translate(496.52, 283.47)">ğœ‘</text>
<text transform="translate(560.46, 339.72)">îœ</text>
<text transform="translate(648.46, 283.47)">ğ‘’</text>
<text transform="translate(692.78, 208.12) scale(0.50)">2</text>
<rect x="692.78" y ="220.98" width="24.00" height="4.31" fill="#000"/>
<text transform="translate(692.78, 270.79) scale(0.50)">5</text>
<text transform="translate(718.38, 239.46) scale(0.68)">ğœ‹</text>
<text transform="translate(788.40, 143.21)">=</text>
<text transform="translate(886.16, 143.21)">1</text>
<text transform="translate(955.50, 143.21)">+</text>
<text transform="translate(1168.58, 87.53)">ğ‘’</text>
<text transform="translate(1211.30, 49.13) scale(0.68)">âˆ’</text>
<text transform="translate(1256.02, 49.13) scale(0.68)">2</text>
<text transform="translate(1288.66, 49.13) scale(0.68)">ğœ‹</text>
<rect x="1044.19" y ="116.04" width="405.29" height="6.34" fill="#000"/>
<text transform="translate(1044.19, 237.87)">1</text>
<text transform="translate(1113.52, 237.87)">+</text>
<text transform="translate(1268.69, 191.79) scale(0.68)">ğ‘’</text>
<text transform="translate(1297.74, 173.83) scale(0.50)">âˆ’</text>
<text transform="translate(1330.62, 173.83) scale(0.50)">4</text>
<text transform="translate(1354.62, 173.83) scale(0.50)">ğœ‹</text>
<rect x="1202.22" y ="210.70" width="245.66" height="6.34" fill="#000"/>
<text transform="translate(1202.22, 300.74) scale(0.68)">1</text>
<text transform="translate(1234.86, 300.74) scale(0.68)">+</text>
<text transform="translate(1311.22, 269.40) scale(0.50)">ğ‘’</text>
<text transform="translate(1332.58, 256.20) scale(0.50)">âˆ’</text>
<text transform="translate(1365.46, 256.20) scale(0.50)">6</text>
<text transform="translate(1389.46, 256.20) scale(0.50)">ğœ‹</text>
<rect x="1281.18" y ="282.26" width="165.10" height="4.31" fill="#000"/>
<text transform="translate(1281.18, 359.57) scale(0.50)">1</text>
<text transform="translate(1305.18, 359.57) scale(0.50)">+</text>
<text transform="translate(1339.66, 336.53) scale(0.50)">ğ‘’</text>
<text transform="translate(1361.02, 323.33) scale(0.50)">âˆ’</text>
<text transform="translate(1393.90, 323.33) scale(0.50)">8</text>
<text transform="translate(1417.90, 323.33) scale(0.50)">ğœ‹</text>
<rect x="1339.66" y ="345.98" width="105.02" height="3.17" fill="#000"/>
<text transform="translate(1341.50, 384.77) scale(0.50)">1</text>
<text transform="translate(1365.50, 384.77) scale(0.50)">+</text>
<text transform="translate(1398.38, 384.77) scale(0.50)">â‹¯</text>
</g>
</svg>

