<?xml version="1.0" encoding="UTF-8" standalone="no"?>
<!DOCTYPE svg PUBLIC "-//W3C//DTD SVG 1.1//EN" "http://www.w3.org/Graphics/SVG/1.1/DTD/svg11.dtd">
<svg width="1186.16325" height="221.757" viewBox="0 0 12355 2309" xmlns="http://www.w3.org/2000/svg">
    <defs>
    <style type="text/css">@font-face{font-family:rex;src:url('http://rex.breeden.cc/rex-xits.otf');}</style>
    </defs>
    <g font-family="rex" font-size="1000">
<text transform="translate(1, 1385)">ğ‘“</text>
<text transform="translate(676, 985) scale(0.68)">(</text>
<text transform="translate(902, 985) scale(0.68)">ğ‘›</text>
<text transform="translate(1240, 985) scale(0.68)">)</text>
<text transform="translate(1466, 1385)">(</text>
<text transform="translate(1799, 1385)">ğ‘§</text>
<text transform="translate(2298, 1385)">)</text>
<text transform="translate(2964, 1385)">=</text>
<text transform="translate(4352, 805)">ğ‘›</text>
<text transform="translate(4849, 805)">!</text>
<rect x="4083" y ="1102" width="1369" height="66" fill="#000"/>
<text transform="translate(4083, 2085)">2</text>
<text transform="translate(4583, 2085)">ğœ‹</text>
<text transform="translate(5141, 2085)">ğ‘–</text>
<text transform="translate(5718, 2000)">î¤¶</text>
<text transform="translate(8228, 717)">ğ‘“</text>
<text transform="translate(8783, 717)">(</text>
<text transform="translate(9116, 717)">ğœ‰</text>
<text transform="translate(9549, 717)">)</text>
<rect x="7120" y ="1102" width="3870" height="66" fill="#000"/>
<text transform="translate(7120, 2126)">(</text>
<text transform="translate(7453, 2126)">ğœ‰</text>
<text transform="translate(8108, 2126)">âˆ’</text>
<text transform="translate(9015, 2126)">ğ‘§</text>
<text transform="translate(9514, 2126)">)</text>
<text transform="translate(9847, 1825) scale(0.68)">ğ‘›</text>
<text transform="translate(10185, 1825) scale(0.68)">+</text>
<text transform="translate(10651, 1825) scale(0.68)">1</text>
<text transform="translate(11421, 1385)">d</text>
<text transform="translate(11921, 1385)">ğœ‰</text>
</g>
</svg>

