<?xml version="1.0" encoding="UTF-8" standalone="no"?>
<!DOCTYPE svg PUBLIC "-//W3C//DTD SVG 1.1//EN" "http://www.w3.org/Graphics/SVG/1.1/DTD/svg11.dtd">
<svg width="1233.97125" height="240.86100000000002" viewBox="0 0 12853 2508" xmlns="http://www.w3.org/2000/svg">
    <defs>
    <style type="text/css">@font-face{font-family:rex;src:url('http://rex.breeden.cc/rex-xits.otf');}</style>
    </defs>
    <g font-family="rex" font-size="1000">
<text transform="translate(250, 1484)">ğ‘“</text>
<text transform="translate(925, 1084) scale(0.68)">(</text>
<text transform="translate(1151, 1084) scale(0.68)">ğ‘›</text>
<text transform="translate(1489, 1084) scale(0.68)">)</text>
<text transform="translate(1715, 1484)">(</text>
<text transform="translate(2048, 1484)">ğ‘§</text>
<text transform="translate(2547, 1484)">)</text>
<text transform="translate(3213, 1484)">=</text>
<text transform="translate(4601, 904)">ğ‘›</text>
<text transform="translate(5098, 904)">!</text>
<rect x="4332" y ="1201" width="1369" height="66" fill="#000"/>
<text transform="translate(4332, 2184)">2</text>
<text transform="translate(4832, 2184)">ğœ‹</text>
<text transform="translate(5390, 2184)">ğ‘–</text>
<text transform="translate(5967, 2100)">î¤¶</text>
<text transform="translate(8477, 816)">ğ‘“</text>
<text transform="translate(9032, 816)">(</text>
<text transform="translate(9365, 816)">ğœ‰</text>
<text transform="translate(9798, 816)">)</text>
<rect x="7369" y ="1201" width="3870" height="66" fill="#000"/>
<text transform="translate(7369, 2225)">(</text>
<text transform="translate(7702, 2225)">ğœ‰</text>
<text transform="translate(8357, 2225)">âˆ’</text>
<text transform="translate(9264, 2225)">ğ‘§</text>
<text transform="translate(9763, 2225)">)</text>
<text transform="translate(10096, 1924) scale(0.68)">ğ‘›</text>
<text transform="translate(10434, 1924) scale(0.68)">+</text>
<text transform="translate(10900, 1924) scale(0.68)">1</text>
<text transform="translate(11670, 1484)">d</text>
<text transform="translate(12170, 1484)">ğœ‰</text>
</g>
</svg>

