<?xml version="1.0" encoding="UTF-8" standalone="no"?><!DOCTYPE svg PUBLIC "-//W3C//DTD SVG 1.1//EN" "http://www.w3.org/Graphics/SVG/1.1/DTD/svg11.dtd"><svg width="1448.36608" height="391.7344" xmlns="http://www.w3.org/2000/svg"><defs><style type="text/css">@font-face{font-family: rex;src: url('http://rex.breeden.cc/rex-xits.otf');}</style></defs><g font-family="rex" font-size="96.0px"><g transform="translate(12.00,5.00)">
<g transform="translate(1.6,17.633279999999985)">
<g transform="translate(0,0)">
<g transform="translate(340.6139733333333,64.896)">
<text>1</text></g>
</g><rect x="0" y="93.40799999999999" width="729.2279466666666" height="6.336" fill="#000"/><g transform="translate(0,118.75199999999998)">
<g transform="translate(0,0)">
<g transform="translate(0,198.33599999999998)">
<text>îœš</text></g>
</g><g transform="translate(72,7.439999999999969)">
<g transform="translate(0,0)">
<g transform="translate(0,148.99200000000002)">
<text>î¤‰</text></g>
</g><g transform="translate(101.472,0.00000000000002842170943040401)">
<rect x="0" y="0" width="196.89600000000002" height="6.336" fill="#000"/><g transform="translate(0,36.04799999999999)">
<g transform="translate(0,98.59200000000001)">
<text>Ï†</text></g>
<g transform="translate(59.808,0)">
<g transform="translate(0,93.408)">
<text>âˆš</text></g>
</g><g transform="translate(148.89600000000002,0)">
<rect x="0" y="0" width="48" height="6.336" fill="#000"/><g transform="translate(0,32.54400000000001)">
<g transform="translate(0,66.048)">
<text>5</text></g>
</g></g></g></g><g transform="translate(319.7013333333333,134.64000000000001)">
<text>âˆ’</text></g>
<g transform="translate(406.7946666666666,134.64000000000001)">
<text>Ï†</text></g>
</g><g transform="translate(538.6026666666667,0)">
<g transform="translate(0,198.33599999999998)">
<text>îœ</text></g>
</g><g transform="translate(626.6026666666667,99.74399999999999)">
<g transform="translate(0,42.336)">
<text>ğ‘’</text></g>
</g><g transform="translate(669.3226666666667,34.291199999999975)">
<g transform="translate(0,0)">
<g transform="translate(0,0)">
<g transform="translate(1.6,0)">
<g transform="translate(0,0)">
<g transform="translate(0,32.448)">
<g transform="scale(0.5)"><text>2</text></g>
</g></g><rect x="0" y="45.30816" width="24" height="4.30848" fill="#000"/><g transform="translate(0,62.092800000000004)">
<g transform="translate(0,33.024)">
<g transform="scale(0.5)"><text>5</text></g>
</g></g></g><g transform="translate(27.200000000000003,63.78240000000001)">
<g transform="scale(0.68)"><text>Ï€</text></g>
</g></g></g></g></g></g><g transform="translate(764.4279466666667,138.20927999999998)">
<text>=</text></g>
<g transform="translate(862.1879466666667,138.20927999999998)">
<text>1</text></g>
<g transform="translate(931.52128,138.20927999999998)">
<text>+</text></g>
<g transform="translate(1020.2146133333334,0)">
<g transform="translate(0,0)">
<g transform="translate(124.88469333333333,40.19328)">
<g transform="translate(0,42.336)">
<text>ğ‘’</text></g>
</g><g transform="translate(167.60469333333333,0)">
<g transform="translate(0,0)">
<g transform="translate(0,0)">
<g transform="translate(0,44.12928)">
<g transform="scale(0.68)"><text>âˆ’</text></g>
</g><g transform="translate(44.716800000000006,44.12928)">
<g transform="scale(0.68)"><text>2</text></g>
</g><g transform="translate(77.3568,44.12928)">
<g transform="scale(0.68)"><text>Ï€</text></g>
</g></g></g></g></g><rect x="0" y="111.04128" width="402.55146666666667" height="6.336" fill="#000"/><g transform="translate(0,136.38528)">
<g transform="translate(0,96.48)">
<text>1</text></g>
<g transform="translate(69.33333333333333,96.48)">
<text>+</text></g>
<g transform="translate(158.02666666666667,0)">
<g transform="translate(0,0)">
<g transform="translate(66.47359999999999,21.611520000000006)">
<g transform="translate(0,28.78848)">
<g transform="scale(0.68)"><text>ğ‘’</text></g>
</g></g><g transform="translate(95.52319999999999,0)">
<g transform="translate(0,0)">
<g transform="translate(0,0)">
<g transform="translate(0,32.448)">
<g transform="scale(0.5)"><text>âˆ’</text></g>
</g><g transform="translate(32.88,32.448)">
<g transform="scale(0.5)"><text>4</text></g>
</g><g transform="translate(56.88,32.448)">
<g transform="scale(0.5)"><text>Ï€</text></g>
</g></g></g></g></g><rect x="0" y="69.31200000000001" width="242.92479999999998" height="6.336" fill="#000"/><g transform="translate(0,81.98400000000001)">
<g transform="translate(0,77.3664)">
<g transform="scale(0.68)"><text>1</text></g>
</g><g transform="translate(32.64,77.3664)">
<g transform="scale(0.68)"><text>+</text></g>
</g><g transform="translate(78.9568,0)">
<g transform="translate(0,0)">
<g transform="translate(30.04,24.864000000000004)">
<g transform="translate(0,21.168)">
<g transform="scale(0.5)"><text>ğ‘’</text></g>
</g></g><g transform="translate(51.4,0)">
<g transform="translate(0,0)">
<g transform="translate(0,0)">
<g transform="translate(0,32.832)">
<g transform="scale(0.5)"><text>âˆ’</text></g>
</g><g transform="translate(32.88,32.832)">
<g transform="scale(0.5)"><text>6</text></g>
</g><g transform="translate(56.88,32.832)">
<g transform="scale(0.5)"><text>Ï€</text></g>
</g></g></g></g></g><rect x="0" y="58.892160000000004" width="162.368" height="4.30848" fill="#000"/><g transform="translate(0,67.50912000000001)">
<g transform="translate(0,68.688)">
<g transform="scale(0.5)"><text>1</text></g>
</g><g transform="translate(24,68.688)">
<g transform="scale(0.5)"><text>+</text></g>
</g><g transform="translate(58.480000000000004,0)">
<g transform="translate(0,0)">
<g transform="translate(0,24.480000000000004)">
<g transform="translate(0,21.168)">
<g transform="scale(0.5)"><text>ğ‘’</text></g>
</g></g><g transform="translate(21.36,0)">
<g transform="translate(0,0)">
<g transform="translate(0,0)">
<g transform="translate(0,32.448)">
<g transform="scale(0.5)"><text>âˆ’</text></g>
</g><g transform="translate(32.88,32.448)">
<g transform="scale(0.5)"><text>8</text></g>
</g><g transform="translate(56.88,32.448)">
<g transform="scale(0.5)"><text>Ï€</text></g>
</g></g></g></g></g><rect x="0" y="55.104" width="102.288" height="3.168" fill="#000"/><g transform="translate(0,61.44)">
<g transform="translate(0.4799999999999969,32.448)">
<g transform="scale(0.5)"><text>1</text></g>
</g><g transform="translate(24.479999999999997,32.448)">
<g transform="scale(0.5)"><text>+</text></g>
</g><g transform="translate(57.36,32.448)">
<g transform="scale(0.5)"><text>â‹¯</text></g>
</g></g></g></g></g></g></g></g></g></g></g></svg>