<?xml version="1.0" encoding="UTF-8" standalone="no"?>
<!DOCTYPE svg PUBLIC "-//W3C//DTD SVG 1.1//EN" "http://www.w3.org/Graphics/SVG/1.1/DTD/svg11.dtd">
<svg width="1181.38" height="231.68" xmlns="http://www.w3.org/2000/svg">
    <defs>
    <style type="text/css">@font-face{font-family:rex;src:url('http://rex.breeden.cc/rex-xits.otf');}</style>
    </defs>
    <g font-family="rex" font-size="96.0px"><g transform="translate(12.00 5.00)"><g transform="translate(0.00 68.78)"><g transform="translate(0.00 64.13)"><text>ğ‘“</text></g></g><g transform="translate(53.28 50.38)"><g transform="translate(11.52 0.00)"><g transform="translate(0.00 44.13)"><text transform="scale(0.68)">(</text></g><g transform="translate(21.74 44.13)"><text transform="scale(0.68)">ğ‘›</text></g><g transform="translate(54.18 44.13)"><text transform="scale(0.68)">)</text></g></g></g><g transform="translate(140.72 132.91)"><text>(</text></g><g transform="translate(172.69 132.91)"><text>ğ‘§</text></g><g transform="translate(220.59 132.91)"><text>)</text></g><g transform="translate(284.56 132.91)"><text>=</text></g><g transform="translate(383.92 12.34)"><g transform="translate(25.87 64.90)"><text>ğ‘›</text></g><g transform="translate(73.58 64.90)"><text>!</text></g><rect x="0.00" y ="93.41" width="131.42" height="6.34" fill="#000"/><g transform="translate(0.00 122.88)"><g transform="translate(0.00 64.90)"><text>2</text></g><g transform="translate(48.00 64.90)"><text>ğœ‹</text></g><g transform="translate(101.57 64.90)"><text>ğ‘–</text></g></g></g><g transform="translate(532.94 0.00)"><g transform="translate(0.00 192.00)"><text>î¤¶</text></g></g><g transform="translate(659.50 3.89)"><g transform="translate(106.43 64.90)"><text>ğ‘“</text></g><g transform="translate(159.71 64.90)"><text>(</text></g><g transform="translate(191.67 64.90)"><text>ğœ‰</text></g><g transform="translate(233.24 64.90)"><text>)</text></g><rect x="0.00" y ="101.86" width="371.64" height="6.34" fill="#000"/><g transform="translate(0.00 127.20)"><g transform="translate(0.00 73.03)"><text>(</text></g><g transform="translate(31.97 73.03)"><text>ğœ‰</text></g><g transform="translate(94.87 73.03)"><text>âˆ’</text></g><g transform="translate(181.96 73.03)"><text>ğ‘§</text></g><g transform="translate(229.87 8.13)"><g transform="translate(0.00 64.90)"><text>)</text></g></g><g transform="translate(261.83 0.00)"><g transform="translate(0.00 44.13)"><text transform="scale(0.68)">ğ‘›</text></g><g transform="translate(32.44 44.13)"><text transform="scale(0.68)">+</text></g><g transform="translate(77.16 44.13)"><text transform="scale(0.68)">1</text></g></g></g></g><g transform="translate(1064.74 132.91)"><text>ğ‘‘</text></g><g transform="translate(1115.81 132.91)"><text>ğœ‰</text></g></g></g>
</svg>
