<?xml version="1.0" encoding="UTF-8" standalone="no"?>
<!DOCTYPE svg PUBLIC "-//W3C//DTD SVG 1.1//EN" "http://www.w3.org/Graphics/SVG/1.1/DTD/svg11.dtd">
<svg width="1181.38" height="231.68" xmlns="http://www.w3.org/2000/svg">
    <defs>
    <style type="text/css">@font-face{font-family:rex;src:url('http://rex.breeden.cc/rex-xits.otf');}</style>
    </defs>
    <g font-family="rex" font-size="96.0px">
<text transform="translate(12.00, 137.91)">ğ‘“</text>
<text transform="translate(76.80, 99.51) scale(0.68)">(</text>
<text transform="translate(98.54, 99.51) scale(0.68)">ğ‘›</text>
<text transform="translate(130.98, 99.51) scale(0.68)">)</text>
<text transform="translate(152.72, 137.91)">(</text>
<text transform="translate(184.69, 137.91)">ğ‘§</text>
<text transform="translate(232.59, 137.91)">)</text>
<text transform="translate(296.56, 137.91)">=</text>
<text transform="translate(421.79, 82.23)">ğ‘›</text>
<text transform="translate(469.50, 82.23)">!</text>
<rect x="395.92" y ="110.74" width="131.42" height="6.34" fill="#000"/>
<text transform="translate(395.92, 205.11)">2</text>
<text transform="translate(443.92, 205.11)">ğœ‹</text>
<text transform="translate(497.49, 205.11)">ğ‘–</text>
<text transform="translate(544.94, 197.00)">î¤¶</text>
<text transform="translate(777.93, 73.78)">ğ‘“</text>
<text transform="translate(831.21, 73.78)">(</text>
<text transform="translate(863.18, 73.78)">ğœ‰</text>
<text transform="translate(904.75, 73.78)">)</text>
<rect x="671.50" y ="110.74" width="371.64" height="6.34" fill="#000"/>
<text transform="translate(671.50, 209.11)">(</text>
<text transform="translate(703.47, 209.11)">ğœ‰</text>
<text transform="translate(766.37, 209.11)">âˆ’</text>
<text transform="translate(853.47, 209.11)">ğ‘§</text>
<text transform="translate(901.37, 209.11)">)</text>
<text transform="translate(933.34, 180.22) scale(0.68)">ğ‘›</text>
<text transform="translate(965.78, 180.22) scale(0.68)">+</text>
<text transform="translate(1010.50, 180.22) scale(0.68)">1</text>
<text transform="translate(1076.74, 137.91)">ğ‘‘</text>
<text transform="translate(1127.81, 137.91)">ğœ‰</text>
</g>
</svg>

