<?xml version="1.0" encoding="UTF-8" standalone="no"?>
<!DOCTYPE svg PUBLIC "-//W3C//DTD SVG 1.1//EN" "http://www.w3.org/Graphics/SVG/1.1/DTD/svg11.dtd">
<svg width="1463.08" height="391.73" xmlns="http://www.w3.org/2000/svg">
    <defs>
    <style type="text/css">@font-face{font-family:rex;src:url('http://rex.breeden.cc/rex-xits.otf');}</style>
    </defs>
    <g font-family="rex" font-size="96.0px"><g transform="translate(12.00 5.00)"><g transform="translate(1.60 17.63)"><g transform="translate(346.60 64.90)"><text>1</text></g><rect x="0.00" y ="93.41" width="741.20" height="6.34" fill="#000"/><g transform="translate(0.00 118.75)"><g transform="translate(0.00 198.34)"><text>îœš</text></g><g transform="translate(72.00 6.86)"><g transform="translate(0.00 148.99)"><text>î¤‰</text></g><g transform="translate(101.47 0.00)"><rect x="0.00" y ="0.00" width="201.02" height="6.34" fill="#000"/><g transform="translate(0.00 36.62)"><g transform="translate(0.00 98.59)"><text>ğœ‘</text></g><g transform="translate(63.94 0.00)"><g transform="translate(0.00 93.41)"><text>âˆš</text></g></g><g transform="translate(153.02 0.00)"><rect x="0.00" y ="0.00" width="48.00" height="6.34" fill="#000"/><g transform="translate(0.00 32.54)"><g transform="translate(0.00 66.05)"><text>5</text></g></g></g></g></g><g transform="translate(323.83 135.22)"><text>âˆ’</text></g><g transform="translate(410.92 135.22)"><text>ğœ‘</text></g></g><g transform="translate(546.86 0.00)"><g transform="translate(0.00 198.34)"><text>îœ</text></g></g><g transform="translate(634.86 99.74)"><g transform="translate(0.00 42.34)"><text>ğ‘’</text></g></g><g transform="translate(677.58 34.29)"><g transform="translate(1.60 0.00)"><g transform="translate(0.00 32.45)"><text transform="scale(0.50)">2</text></g><rect x="0.00" y ="45.31" width="24.00" height="4.31" fill="#000"/><g transform="translate(0.00 62.09)"><g transform="translate(0.00 33.02)"><text transform="scale(0.50)">5</text></g></g></g><g transform="translate(27.20 63.78)"><text transform="scale(0.68)">ğœ‹</text></g></g></g></g><g transform="translate(776.40 138.21)"><text>=</text></g><g transform="translate(874.16 138.21)"><text>1</text></g><g transform="translate(943.50 138.21)"><text>+</text></g><g transform="translate(1032.19 0.00)"><g transform="translate(124.39 40.19)"><g transform="translate(0.00 42.34)"><text>ğ‘’</text></g></g><g transform="translate(167.11 0.00)"><g transform="translate(0.00 44.13)"><text transform="scale(0.68)">âˆ’</text></g><g transform="translate(44.72 44.13)"><text transform="scale(0.68)">2</text></g><g transform="translate(77.36 44.13)"><text transform="scale(0.68)">ğœ‹</text></g></g><rect x="0.00" y ="111.04" width="405.29" height="6.34" fill="#000"/><g transform="translate(0.00 136.39)"><g transform="translate(0.00 96.48)"><text>1</text></g><g transform="translate(69.33 96.48)"><text>+</text></g><g transform="translate(158.03 0.00)"><g transform="translate(66.47 21.61)"><g transform="translate(0.00 28.79)"><text transform="scale(0.68)">ğ‘’</text></g></g><g transform="translate(95.52 0.00)"><g transform="translate(0.00 32.45)"><text transform="scale(0.50)">âˆ’</text></g><g transform="translate(32.88 32.45)"><text transform="scale(0.50)">4</text></g><g transform="translate(56.88 32.45)"><text transform="scale(0.50)">ğœ‹</text></g></g><rect x="0.00" y ="69.31" width="245.66" height="6.34" fill="#000"/><g transform="translate(0.00 81.98)"><g transform="translate(0.00 77.37)"><text transform="scale(0.68)">1</text></g><g transform="translate(32.64 77.37)"><text transform="scale(0.68)">+</text></g><g transform="translate(78.96 0.00)"><g transform="translate(30.04 24.86)"><g transform="translate(0.00 21.17)"><text transform="scale(0.50)">ğ‘’</text></g></g><g transform="translate(51.40 0.00)"><g transform="translate(0.00 32.83)"><text transform="scale(0.50)">âˆ’</text></g><g transform="translate(32.88 32.83)"><text transform="scale(0.50)">6</text></g><g transform="translate(56.88 32.83)"><text transform="scale(0.50)">ğœ‹</text></g></g><rect x="0.00" y ="58.89" width="165.10" height="4.31" fill="#000"/><g transform="translate(0.00 67.51)"><g transform="translate(0.00 68.69)"><text transform="scale(0.50)">1</text></g><g transform="translate(24.00 68.69)"><text transform="scale(0.50)">+</text></g><g transform="translate(58.48 0.00)"><g transform="translate(0.00 24.48)"><g transform="translate(0.00 21.17)"><text transform="scale(0.50)">ğ‘’</text></g></g><g transform="translate(21.36 0.00)"><g transform="translate(0.00 32.45)"><text transform="scale(0.50)">âˆ’</text></g><g transform="translate(32.88 32.45)"><text transform="scale(0.50)">8</text></g><g transform="translate(56.88 32.45)"><text transform="scale(0.50)">ğœ‹</text></g></g><rect x="0.00" y ="55.10" width="105.02" height="3.17" fill="#000"/><g transform="translate(0.00 61.44)"><g transform="translate(1.85 32.45)"><text transform="scale(0.50)">1</text></g><g transform="translate(25.85 32.45)"><text transform="scale(0.50)">+</text></g><g transform="translate(58.73 32.45)"><text transform="scale(0.50)">â‹¯</text></g></g></g></g></g></g></g></g></g></g></g>
</svg>
