<?xml version="1.0" encoding="UTF-8" standalone="no"?>
<!DOCTYPE svg PUBLIC "-//W3C//DTD SVG 1.1//EN" "http://www.w3.org/Graphics/SVG/1.1/DTD/svg11.dtd">
<svg width="1377.78075" height="293.35275" viewBox="0 0 14351 3055" xmlns="http://www.w3.org/2000/svg">
    <defs>
    <style type="text/css">@font-face{font-family:rex;src:url('http://rex.breeden.cc/rex-xits.otf');}</style>
    </defs>
    <g font-family="rex" font-size="1000">
<text transform="translate(250, 2455)">îœ†</text>
<text transform="translate(570, 2393)">î£¾</text>
<text transform="translate(1031, 2948) scale(0.68)">ğ‘˜</text>
<text transform="translate(2028, 1869)">ğ‘</text>
<text transform="translate(2530, 2119) scale(0.68)">ğ‘˜</text>
<text transform="translate(2899, 1869)">ğ‘</text>
<text transform="translate(3369, 2119) scale(0.68)">ğ‘˜</text>
<text transform="translate(3737, 2455)">îœ†</text>
<text transform="translate(4390, 1869)">â‰¤</text>
<text transform="translate(5409, 2455)">îœš</text>
<text transform="translate(6159, 2393)">î£¾</text>
<text transform="translate(6620, 2948) scale(0.68)">ğ‘˜</text>
<text transform="translate(7617, 1869)">ğ‘</text>
<text transform="translate(8119, 1435) scale(0.68)">2</text>
<text transform="translate(8119, 2153) scale(0.68)">ğ‘˜</text>
<text transform="translate(8488, 2455)">îœ</text>
<text transform="translate(9338, 438) scale(0.50)">1</text>
<rect x="9338" y ="571" width="250" height="44" fill="#000"/>
<text transform="translate(9338, 1090) scale(0.50)">2</text>
<text transform="translate(9854, 2455)">îœš</text>
<text transform="translate(10604, 2393)">î£¾</text>
<text transform="translate(11066, 2948) scale(0.68)">ğ‘˜</text>
<text transform="translate(12063, 1869)">ğ‘</text>
<text transform="translate(12533, 1435) scale(0.68)">2</text>
<text transform="translate(12533, 2153) scale(0.68)">ğ‘˜</text>
<text transform="translate(12901, 2455)">îœ</text>
<text transform="translate(13751, 438) scale(0.50)">1</text>
<rect x="13751" y ="571" width="250" height="44" fill="#000"/>
<text transform="translate(13751, 1090) scale(0.50)">2</text>
</g>
</svg>

