<?xml version="1.0" encoding="UTF-8" standalone="no"?>
<!DOCTYPE svg PUBLIC "-//W3C//DTD SVG 1.1//EN" "http://www.w3.org/Graphics/SVG/1.1/DTD/svg11.dtd">
<svg width="1329.97275" height="274.24875000000003" viewbox="0 0 13853 2856" xmlns="http://www.w3.org/2000/svg">
    <defs>
    <style type="text/css">@font-face{font-family:rex;src:url('http://rex.breeden.cc/rex-xits.otf');}</style>
    </defs>
    <g font-family="rex" font-size="1000">
<text transform="translate(1, 2355)">îœ†</text>
<text transform="translate(321, 2293)">î£¾</text>
<text transform="translate(782, 2848) scale(0.68)">ğ‘˜</text>
<text transform="translate(1779, 1769)">ğ‘</text>
<text transform="translate(2281, 2019) scale(0.68)">ğ‘˜</text>
<text transform="translate(2650, 1769)">ğ‘</text>
<text transform="translate(3120, 2019) scale(0.68)">ğ‘˜</text>
<text transform="translate(3488, 2355)">îœ†</text>
<text transform="translate(4141, 1769)">â‰¤</text>
<text transform="translate(5160, 2355)">îœš</text>
<text transform="translate(5910, 2293)">î£¾</text>
<text transform="translate(6371, 2848) scale(0.68)">ğ‘˜</text>
<text transform="translate(7368, 1769)">ğ‘</text>
<text transform="translate(7870, 1335) scale(0.68)">2</text>
<text transform="translate(7870, 2053) scale(0.68)">ğ‘˜</text>
<text transform="translate(8239, 2355)">îœ</text>
<text transform="translate(9089, 338) scale(0.50)">1</text>
<rect x="9089" y ="472" width="250" height="44" fill="#000"/>
<text transform="translate(9089, 991) scale(0.50)">2</text>
<text transform="translate(9605, 2355)">îœš</text>
<text transform="translate(10355, 2293)">î£¾</text>
<text transform="translate(10817, 2848) scale(0.68)">ğ‘˜</text>
<text transform="translate(11814, 1769)">ğ‘</text>
<text transform="translate(12284, 1335) scale(0.68)">2</text>
<text transform="translate(12284, 2053) scale(0.68)">ğ‘˜</text>
<text transform="translate(12652, 2355)">îœ</text>
<text transform="translate(13502, 338) scale(0.50)">1</text>
<rect x="13502" y ="472" width="250" height="44" fill="#000"/>
<text transform="translate(13502, 991) scale(0.50)">2</text>
</g>
</svg>

