<?xml version="1.0" encoding="UTF-8" standalone="no"?><!DOCTYPE svg PUBLIC "-//W3C//DTD SVG 1.1//EN" "http://www.w3.org/Graphics/SVG/1.1/DTD/svg11.dtd"><svg width="1305.50" height="284.45" xmlns="http://www.w3.org/2000/svg">
<defs>
  <style type="text/css">@font-face{font-family:rex;src:url('http://rex.breeden.cc/rex-xits.otf');}</style>
</defs>
<g font-family="rex" font-size="96.0px"><g transform="translate(12.00 5.00)"><g transform="translate(0.00 27.78)"><g transform="translate(0.00 198.34)"><text></text></g></g><g transform="translate(30.72 47.46)"><g transform="translate(62.02 0.00)"></g><g transform="translate(0.00 28.80)"><g transform="translate(0.00 143.90)"><text></text></g></g><g transform="translate(0.00 182.40)"><g transform="translate(45.70 0.00)"><g transform="translate(0.00 44.59)"><text transform="scale(0.68)">k</text></g></g></g><g transform="translate(140.03 78.24)"><g transform="translate(0.00 44.16)"><text>a</text></g></g><g transform="translate(182.66 101.81)"><g transform="translate(0.00 44.59)"><text transform="scale(0.68)">k</text></g></g><g transform="translate(215.30 56.83)"><g transform="translate(0.00 65.57)"><text>b</text></g></g><g transform="translate(263.30 101.81)"><g transform="translate(0.00 44.59)"><text transform="scale(0.68)">k</text></g></g></g><g transform="translate(326.66 27.78)"><g transform="translate(0.00 198.34)"><text></text></g></g><g transform="translate(389.38 169.86)"><text>≤</text></g><g transform="translate(487.14 27.78)"><g transform="translate(0.00 198.34)"><text></text></g><g transform="translate(72.00 19.68)"><g transform="translate(62.02 0.00)"></g><g transform="translate(0.00 28.80)"><g transform="translate(0.00 143.90)"><text></text></g></g><g transform="translate(0.00 182.40)"><g transform="translate(45.70 0.00)"><g transform="translate(0.00 44.59)"><text transform="scale(0.68)">k</text></g></g></g><g transform="translate(140.03 78.24)"><g transform="translate(0.00 44.16)"><text>a</text></g></g><g transform="translate(182.66 36.11)"><g transform="translate(0.00 44.13)"><text transform="scale(0.68)">2</text></g><g transform="translate(0.00 69.47)"><g transform="translate(0.00 44.59)"><text transform="scale(0.68)">k</text></g></g></g></g><g transform="translate(287.30 0.00)"><g transform="translate(0.00 198.34)"><text></text></g></g></g><g transform="translate(846.43 0.00)"><g transform="translate(1.60 0.00)"><g transform="translate(0.00 32.45)"><text transform="scale(0.50)">1</text></g><rect x="0.00" y ="45.31" width="24.00" height="4.31" fill="#000"/><g transform="translate(0.00 62.67)"><g transform="translate(0.00 32.45)"><text transform="scale(0.50)">2</text></g></g></g></g><g transform="translate(889.63 27.78)"><g transform="translate(0.00 198.34)"><text></text></g><g transform="translate(72.00 19.68)"><g transform="translate(62.02 0.00)"></g><g transform="translate(0.00 28.80)"><g transform="translate(0.00 143.90)"><text></text></g></g><g transform="translate(0.00 182.40)"><g transform="translate(45.70 0.00)"><g transform="translate(0.00 44.59)"><text transform="scale(0.68)">k</text></g></g></g><g transform="translate(140.03 56.83)"><g transform="translate(0.00 65.57)"><text>b</text></g></g><g transform="translate(188.03 36.11)"><g transform="translate(0.00 44.13)"><text transform="scale(0.68)">2</text></g><g transform="translate(0.00 69.47)"><g transform="translate(0.00 44.59)"><text transform="scale(0.68)">k</text></g></g></g></g><g transform="translate(292.67 0.00)"><g transform="translate(0.00 198.34)"><text></text></g></g></g><g transform="translate(1254.30 0.00)"><g transform="translate(1.60 0.00)"><g transform="translate(0.00 32.45)"><text transform="scale(0.50)">1</text></g><rect x="0.00" y ="45.31" width="24.00" height="4.31" fill="#000"/><g transform="translate(0.00 62.67)"><g transform="translate(0.00 32.45)"><text transform="scale(0.50)">2</text></g></g></g></g></g></g></svg>