<?xml version="1.0" encoding="UTF-8" standalone="no"?>
<!DOCTYPE svg PUBLIC "-//W3C//DTD SVG 1.1//EN" "http://www.w3.org/Graphics/SVG/1.1/DTD/svg11.dtd">
<svg width="1321.85" height="284.19" xmlns="http://www.w3.org/2000/svg">
    <defs>
    <style type="text/css">@font-face{font-family:rex;src:url('http://rex.breeden.cc/rex-xits.otf');}</style>
    </defs>
    <g font-family="rex" font-size="96.0px"><g transform="translate(12.00 5.00)">
<g transform="translate(0.00 27.78)">
<g transform="translate(0.00 198.34)">
<text>îœ†</text>
</g>
</g>
<g transform="translate(30.72 47.46)">
<g transform="translate(62.02 0.00)">
</g>
<g transform="translate(0.00 28.80)">
<g transform="translate(0.00 143.90)">
<text>î£¾</text>
</g>
</g>
<g transform="translate(0.00 182.40)">
<g transform="translate(44.33 0.00)">
<g transform="translate(0.00 43.61)">
<text transform="scale(0.68)">ğ‘˜</text>
</g>
</g>
</g>
<g transform="translate(140.03 80.06)">
<g transform="translate(0.00 42.34)">
<text>ğ‘</text>
</g>
</g>
<g transform="translate(188.22 102.79)">
<g transform="translate(0.00 43.61)">
<text transform="scale(0.68)">ğ‘˜</text>
</g>
</g>
<g transform="translate(223.61 58.27)">
<g transform="translate(0.00 64.13)">
<text>ğ‘</text>
</g>
</g>
<g transform="translate(268.73 102.79)">
<g transform="translate(0.00 43.61)">
<text transform="scale(0.68)">ğ‘˜</text>
</g>
</g>
</g>
<g transform="translate(334.83 27.78)">
<g transform="translate(0.00 198.34)">
<text>îœ†</text>
</g>
</g>
<g transform="translate(397.55 169.86)">
<text>â‰¤</text>
</g>
<g transform="translate(495.31 27.78)">
<g transform="translate(0.00 198.34)">
<text>îœš</text>
</g>
<g transform="translate(72.00 19.68)">
<g transform="translate(62.02 0.00)">
</g>
<g transform="translate(0.00 28.80)">
<g transform="translate(0.00 143.90)">
<text>î£¾</text>
</g>
</g>
<g transform="translate(0.00 182.40)">
<g transform="translate(44.33 0.00)">
<g transform="translate(0.00 43.61)">
<text transform="scale(0.68)">ğ‘˜</text>
</g>
</g>
</g>
<g transform="translate(140.03 80.06)">
<g transform="translate(0.00 42.34)">
<text>ğ‘</text>
</g>
</g>
<g transform="translate(188.22 36.60)">
<g transform="translate(0.00 44.13)">
<text transform="scale(0.68)">2</text>
</g>
<g transform="translate(0.00 69.47)">
<g transform="translate(0.00 43.61)">
<text transform="scale(0.68)">ğ‘˜</text>
</g>
</g>
</g>
</g>
<g transform="translate(295.61 0.00)">
<g transform="translate(0.00 198.34)">
<text>îœ</text>
</g>
</g>
</g>
<g transform="translate(862.91 0.00)">
<g transform="translate(1.60 0.00)">
<g transform="translate(0.00 32.45)">
<text transform="scale(0.50)">1</text>
</g>
<rect x="0.00" y ="45.31" width="24.00" height="4.31" fill="#000"/>
<g transform="translate(0.00 62.67)">
<g transform="translate(0.00 32.45)">
<text transform="scale(0.50)">2</text>
</g>
</g>
</g>
</g>
<g transform="translate(906.11 27.78)">
<g transform="translate(0.00 198.34)">
<text>îœš</text>
</g>
<g transform="translate(72.00 19.68)">
<g transform="translate(62.02 0.00)">
</g>
<g transform="translate(0.00 28.80)">
<g transform="translate(0.00 143.90)">
<text>î£¾</text>
</g>
</g>
<g transform="translate(0.00 182.40)">
<g transform="translate(44.33 0.00)">
<g transform="translate(0.00 43.61)">
<text transform="scale(0.68)">ğ‘˜</text>
</g>
</g>
</g>
<g transform="translate(140.03 58.27)">
<g transform="translate(0.00 64.13)">
<text>ğ‘</text>
</g>
</g>
<g transform="translate(185.15 36.60)">
<g transform="translate(0.00 44.13)">
<text transform="scale(0.68)">2</text>
</g>
<g transform="translate(0.00 69.47)">
<g transform="translate(0.00 43.61)">
<text transform="scale(0.68)">ğ‘˜</text>
</g>
</g>
</g>
</g>
<g transform="translate(292.53 0.00)">
<g transform="translate(0.00 198.34)">
<text>îœ</text>
</g>
</g>
</g>
<g transform="translate(1270.65 0.00)">
<g transform="translate(1.60 0.00)">
<g transform="translate(0.00 32.45)">
<text transform="scale(0.50)">1</text>
</g>
<rect x="0.00" y ="45.31" width="24.00" height="4.31" fill="#000"/>
<g transform="translate(0.00 62.67)">
<g transform="translate(0.00 32.45)">
<text transform="scale(0.50)">2</text>
</g>
</g>
</g>
</g>
</g>
</g>
</svg>

