<?xml version="1.0" encoding="UTF-8" standalone="no"?>
<!DOCTYPE svg PUBLIC "-//W3C//DTD SVG 1.1//EN" "http://www.w3.org/Graphics/SVG/1.1/DTD/svg11.dtd">
<svg width="1321.85" height="284.19" xmlns="http://www.w3.org/2000/svg">
    <defs>
    <style type="text/css">@font-face{font-family:rex;src:url('http://rex.breeden.cc/rex-xits.otf');}</style>
    </defs>
    <g font-family="rex" font-size="96.0px">
<text transform="translate(12.00, 231.12)">îœ†</text>
<text transform="translate(42.72, 225.17)">î£¾</text>
<text transform="translate(87.05, 278.47) scale(0.68)">ğ‘˜</text>
<text transform="translate(182.75, 174.86)">ğ‘</text>
<text transform="translate(230.94, 198.86) scale(0.68)">ğ‘˜</text>
<text transform="translate(266.33, 174.86)">ğ‘</text>
<text transform="translate(311.45, 198.86) scale(0.68)">ğ‘˜</text>
<text transform="translate(346.83, 231.12)">îœ†</text>
<text transform="translate(409.55, 174.86)">â‰¤</text>
<text transform="translate(507.31, 231.12)">îœš</text>
<text transform="translate(579.31, 225.17)">î£¾</text>
<text transform="translate(623.63, 278.47) scale(0.68)">ğ‘˜</text>
<text transform="translate(719.34, 174.86)">ğ‘</text>
<text transform="translate(767.53, 133.19) scale(0.68)">2</text>
<text transform="translate(767.53, 202.14) scale(0.68)">ğ‘˜</text>
<text transform="translate(802.91, 231.12)">îœ</text>
<text transform="translate(876.51, 37.45) scale(0.50)">1</text>
<rect x="876.51" y ="50.31" width="24.00" height="4.31" fill="#000"/>
<text transform="translate(876.51, 100.12) scale(0.50)">2</text>
<text transform="translate(918.11, 231.12)">îœš</text>
<text transform="translate(990.11, 225.17)">î£¾</text>
<text transform="translate(1034.44, 278.47) scale(0.68)">ğ‘˜</text>
<text transform="translate(1130.15, 174.86)">ğ‘</text>
<text transform="translate(1175.27, 133.19) scale(0.68)">2</text>
<text transform="translate(1175.27, 202.14) scale(0.68)">ğ‘˜</text>
<text transform="translate(1210.65, 231.12)">îœ</text>
<text transform="translate(1284.25, 37.45) scale(0.50)">1</text>
<rect x="1284.25" y ="50.31" width="24.00" height="4.31" fill="#000"/>
<text transform="translate(1284.25, 100.12) scale(0.50)">2</text>
</g>
</svg>

