<?xml version="1.0" encoding="UTF-8" standalone="no"?><!DOCTYPE svg PUBLIC "-//W3C//DTD SVG 1.1//EN" "http://www.w3.org/Graphics/SVG/1.1/DTD/svg11.dtd"><svg width="1321.8470400000003" height="284.18752" xmlns="http://www.w3.org/2000/svg"><defs><style type="text/css">@font-face{font-family: rex;src: url('http://rex.breeden.cc/rex-xits.otf');}</style></defs><g font-family="rex" font-size="96.0px"><g transform="translate(12.00,5.00)">
<g transform="translate(0,27.782399999999996)">
<g transform="translate(0,198.33599999999998)">
<text>îœ†</text></g>
</g><g transform="translate(30.72,47.4624)">
<g transform="translate(0,0)">
<g transform="translate(0,0)">
<g transform="translate(62.016000000000005,0)">
</g></g><g transform="translate(0,28.799999999999997)">
<g transform="translate(0,0)">
<g transform="translate(0,143.904)">
<text>î£¾</text></g>
</g></g><g transform="translate(0,182.39999999999998)">
<g transform="translate(44.32512,0)">
<g transform="translate(0,43.607040000000005)">
<g transform="scale(0.68)"><text>ğ‘˜</text></g>
</g></g></g></g><g transform="translate(140.032,80.06399999999998)">
<g transform="translate(0,42.336)">
<text>ğ‘</text></g>
</g><g transform="translate(188.22400000000002,102.79295999999997)">
<g transform="translate(0,0)">
<g transform="translate(0,43.607040000000005)">
<g transform="scale(0.68)"><text>ğ‘˜</text></g>
</g></g></g><g transform="translate(223.60576000000003,58.27199999999998)">
<g transform="translate(0,64.128)">
<text>ğ‘</text></g>
</g><g transform="translate(268.72576000000004,102.79295999999997)">
<g transform="translate(0,0)">
<g transform="translate(0,43.607040000000005)">
<g transform="scale(0.68)"><text>ğ‘˜</text></g>
</g></g></g></g><g transform="translate(334.82752000000005,27.782399999999996)">
<g transform="translate(0,198.33599999999998)">
<text>îœ†</text></g>
</g><g transform="translate(397.5475200000001,169.86239999999998)">
<text>â‰¤</text></g>
<g transform="translate(495.30752000000007,27.782399999999996)">
<g transform="translate(0,0)">
<g transform="translate(0,198.33599999999998)">
<text>îœš</text></g>
</g><g transform="translate(72,19.680000000000007)">
<g transform="translate(0,0)">
<g transform="translate(0,0)">
<g transform="translate(62.016000000000005,0)">
</g></g><g transform="translate(0,28.799999999999997)">
<g transform="translate(0,0)">
<g transform="translate(0,143.904)">
<text>î£¾</text></g>
</g></g><g transform="translate(0,182.39999999999998)">
<g transform="translate(44.32512,0)">
<g transform="translate(0,43.607040000000005)">
<g transform="scale(0.68)"><text>ğ‘˜</text></g>
</g></g></g></g><g transform="translate(140.032,80.06399999999998)">
<g transform="translate(0,42.336)">
<text>ğ‘</text></g>
</g><g transform="translate(188.22400000000002,36.59519999999998)">
<g transform="translate(0,0)">
<g transform="translate(0,44.12928)">
<g transform="scale(0.68)"><text>2</text></g>
</g></g><g transform="translate(0,69.47328)">
<g transform="translate(0,43.607040000000005)">
<g transform="scale(0.68)"><text>ğ‘˜</text></g>
</g></g></g></g><g transform="translate(295.60576000000003,0)">
<g transform="translate(0,198.33599999999998)">
<text>îœ</text></g>
</g></g><g transform="translate(862.9132800000001,0)">
<g transform="translate(0,0)">
<g transform="translate(0,0)">
<g transform="translate(1.6,0)">
<g transform="translate(0,0)">
<g transform="translate(0,32.448)">
<g transform="scale(0.5)"><text>1</text></g>
</g></g><rect x="0" y="45.30816" width="24" height="4.30848" fill="#000"/><g transform="translate(0,62.668800000000005)">
<g transform="translate(0,32.448)">
<g transform="scale(0.5)"><text>2</text></g>
</g></g></g></g></g></g><g transform="translate(906.1132800000001,27.782399999999996)">
<g transform="translate(0,0)">
<g transform="translate(0,198.33599999999998)">
<text>îœš</text></g>
</g><g transform="translate(72,19.680000000000007)">
<g transform="translate(0,0)">
<g transform="translate(0,0)">
<g transform="translate(62.016000000000005,0)">
</g></g><g transform="translate(0,28.799999999999997)">
<g transform="translate(0,0)">
<g transform="translate(0,143.904)">
<text>î£¾</text></g>
</g></g><g transform="translate(0,182.39999999999998)">
<g transform="translate(44.32512,0)">
<g transform="translate(0,43.607040000000005)">
<g transform="scale(0.68)"><text>ğ‘˜</text></g>
</g></g></g></g><g transform="translate(140.032,58.27199999999998)">
<g transform="translate(0,64.128)">
<text>ğ‘</text></g>
</g><g transform="translate(185.15200000000002,36.59519999999998)">
<g transform="translate(0,0)">
<g transform="translate(0,44.12928)">
<g transform="scale(0.68)"><text>2</text></g>
</g></g><g transform="translate(0,69.47328)">
<g transform="translate(0,43.607040000000005)">
<g transform="scale(0.68)"><text>ğ‘˜</text></g>
</g></g></g></g><g transform="translate(292.53376000000003,0)">
<g transform="translate(0,198.33599999999998)">
<text>îœ</text></g>
</g></g><g transform="translate(1270.6470400000003,0)">
<g transform="translate(0,0)">
<g transform="translate(0,0)">
<g transform="translate(1.6,0)">
<g transform="translate(0,0)">
<g transform="translate(0,32.448)">
<g transform="scale(0.5)"><text>1</text></g>
</g></g><rect x="0" y="45.30816" width="24" height="4.30848" fill="#000"/><g transform="translate(0,62.668800000000005)">
<g transform="translate(0,32.448)">
<g transform="scale(0.5)"><text>2</text></g>
</g></g></g></g></g></g></g></g></svg>