<?xml version="1.0" encoding="UTF-8" standalone="no"?><!DOCTYPE svg PUBLIC "-//W3C//DTD SVG 1.1//EN" "http://www.w3.org/Graphics/SVG/1.1/DTD/svg11.dtd"><svg width="1101.0427733333333" height="233.34208" xmlns="http://www.w3.org/2000/svg"><defs><style type="text/css">@font-face{font-family: rex;src: url('http://rex.breeden.cc/rex-xits.otf');}</style></defs><g font-family="rex" font-size="96.0px"><g transform="translate(12.00,5.00)">
<g transform="translate(0,0)">
<g transform="translate(0,0)">
<g transform="translate(0,192)">
<text>î¤¤</text></g>
</g></g><g transform="translate(108.96000000000001,179.99615999999997)">
<g transform="translate(0,0)">
<g transform="translate(-52.800000000000004,42.627840000000006)">
<g transform="scale(0.68)"><text>ğ·</text></g>
</g></g></g><g transform="translate(108.96000000000001,132.912)">
<text>(</text></g>
<g transform="translate(140.928,132.912)">
<text>âˆ‡</text></g>
<g transform="translate(232.43733333333333,132.912)">
<text>â‹…</text></g>
<g transform="translate(281.22666666666663,132.912)">
<text>ğ¹</text></g>
<g transform="translate(340.55466666666666,132.912)">
<text>)</text></g>
<g transform="translate(388.5226666666667,132.912)">
<text>d</text></g>
<g transform="translate(436.5226666666667,132.912)">
<text>ğ‘‰</text></g>
<g transform="translate(523.7226666666667,132.912)">
<text>=</text></g>
<g transform="translate(621.4826666666667,0)">
<g transform="translate(0,0)">
<g transform="translate(0,192)">
<text>î¤¤</text></g>
</g></g><g transform="translate(730.4426666666667,179.27808)">
<g transform="translate(0,0)">
<g transform="translate(-52.800000000000004,0)">
<g transform="translate(0,43.34592)">
<g transform="scale(0.68)"><text>âˆ‚</text></g>
</g><g transform="translate(28.26624,43.34592)">
<g transform="scale(0.68)"><text>ğ·</text></g>
</g></g></g></g><g transform="translate(773.4801066666666,132.912)">
<text>ğ¹</text></g>
<g transform="translate(854.14144,132.912)">
<text>â‹…</text></g>
<g transform="translate(902.9307733333334,132.912)">
<text>ğ‘›</text></g>
<g transform="translate(966.6427733333334,132.912)">
<text>d</text></g>
<g transform="translate(1014.6427733333334,132.912)">
<text>ğ‘†</text></g>
</g></g></svg>