<?xml version="1.0" encoding="UTF-8" standalone="no"?>
<!DOCTYPE svg PUBLIC "-//W3C//DTD SVG 1.1//EN" "http://www.w3.org/Graphics/SVG/1.1/DTD/svg11.dtd">
<svg width="1645.53" height="93.14" xmlns="http://www.w3.org/2000/svg">
    <defs>
    <style type="text/css">@font-face{font-family:rex;src:url('http://rex.breeden.cc/rex-xits.otf');}</style>
    </defs>
    <g font-family="rex" font-size="96.0px">
<text transform="translate(12.00, 70.57)">s</text>
<text transform="translate(49.34, 70.57)">i</text>
<text transform="translate(76.03, 70.57)">n</text>
<text transform="translate(124.03, 70.57)">(</text>
<text transform="translate(156.00, 70.57)">ğœƒ</text>
<text transform="translate(223.80, 70.57)">+</text>
<text transform="translate(310.89, 70.57)">ğœ‘</text>
<text transform="translate(374.83, 70.57)">)</text>
<text transform="translate(438.79, 70.57)">=</text>
<text transform="translate(536.55, 70.57)">s</text>
<text transform="translate(573.90, 70.57)">i</text>
<text transform="translate(600.59, 70.57)">n</text>
<text transform="translate(648.59, 70.57)">(</text>
<text transform="translate(680.55, 70.57)">ğœƒ</text>
<text transform="translate(727.02, 70.57)">)</text>
<text transform="translate(774.99, 70.57)">c</text>
<text transform="translate(817.61, 70.57)">o</text>
<text transform="translate(865.61, 70.57)">s</text>
<text transform="translate(902.95, 70.57)">(</text>
<text transform="translate(934.92, 70.57)">ğœ‘</text>
<text transform="translate(998.86, 70.57)">)</text>
<text transform="translate(1052.16, 70.57)">+</text>
<text transform="translate(1139.25, 70.57)">s</text>
<text transform="translate(1176.60, 70.57)">i</text>
<text transform="translate(1203.29, 70.57)">n</text>
<text transform="translate(1251.29, 70.57)">(</text>
<text transform="translate(1283.25, 70.57)">ğœ‘</text>
<text transform="translate(1347.19, 70.57)">)</text>
<text transform="translate(1395.16, 70.57)">c</text>
<text transform="translate(1437.78, 70.57)">o</text>
<text transform="translate(1485.78, 70.57)">s</text>
<text transform="translate(1523.13, 70.57)">(</text>
<text transform="translate(1555.09, 70.57)">ğœƒ</text>
<text transform="translate(1601.56, 70.57)">)</text>
</g>
</svg>

