<?xml version="1.0" encoding="UTF-8" standalone="no"?><!DOCTYPE svg PUBLIC "-//W3C//DTD SVG 1.1//EN" "http://www.w3.org/Graphics/SVG/1.1/DTD/svg11.dtd"><svg width="1636.5973333333334" height="96.4" xmlns="http://www.w3.org/2000/svg"><defs><style type="text/css">@font-face{font-family: rex;src: url('http://rex.breeden.cc/rex-xits.otf');}</style></defs><g font-family="rex" font-size="96.0px"><g transform="translate(12.00,5.00)">
<g transform="translate(0,0)">
<g transform="translate(0,65.56800000000001)">
<text>s</text></g>
<g transform="translate(37.344,65.56800000000001)">
<text>i</text></g>
<g transform="translate(64.03200000000001,65.56800000000001)">
<text>n</text></g>
</g><g transform="translate(112.03200000000001,65.56800000000001)">
<text>(</text></g>
<g transform="translate(144,65.56800000000001)">
<text>θ</text></g>
<g transform="translate(212.94933333333333,65.56800000000001)">
<text>+</text></g>
<g transform="translate(300.04266666666666,65.56800000000001)">
<text>φ</text></g>
<g transform="translate(359.85066666666665,65.56800000000001)">
<text>)</text></g>
<g transform="translate(423.8186666666667,65.56800000000001)">
<text>=</text></g>
<g transform="translate(521.5786666666667,0)">
<g transform="translate(0,65.56800000000001)">
<text>s</text></g>
<g transform="translate(37.344,65.56800000000001)">
<text>i</text></g>
<g transform="translate(64.03200000000001,65.56800000000001)">
<text>n</text></g>
</g><g transform="translate(633.6106666666667,65.56800000000001)">
<text>(</text></g>
<g transform="translate(665.5786666666667,65.56800000000001)">
<text>θ</text></g>
<g transform="translate(713.1946666666666,65.56800000000001)">
<text>)</text></g>
<g transform="translate(761.1626666666666,21.40800000000001)">
<g transform="translate(0,44.160000000000004)">
<text>c</text></g>
<g transform="translate(42.624,44.160000000000004)">
<text>o</text></g>
<g transform="translate(90.624,44.160000000000004)">
<text>s</text></g>
</g><g transform="translate(889.1306666666666,65.56800000000001)">
<text>(</text></g>
<g transform="translate(921.0986666666665,65.56800000000001)">
<text>φ</text></g>
<g transform="translate(980.9066666666665,65.56800000000001)">
<text>)</text></g>
<g transform="translate(1034.2079999999999,65.56800000000001)">
<text>+</text></g>
<g transform="translate(1121.301333333333,0)">
<g transform="translate(0,65.56800000000001)">
<text>s</text></g>
<g transform="translate(37.344,65.56800000000001)">
<text>i</text></g>
<g transform="translate(64.03200000000001,65.56800000000001)">
<text>n</text></g>
</g><g transform="translate(1233.333333333333,65.56800000000001)">
<text>(</text></g>
<g transform="translate(1265.301333333333,65.56800000000001)">
<text>φ</text></g>
<g transform="translate(1325.109333333333,65.56800000000001)">
<text>)</text></g>
<g transform="translate(1373.0773333333332,21.40800000000001)">
<g transform="translate(0,44.160000000000004)">
<text>c</text></g>
<g transform="translate(42.624,44.160000000000004)">
<text>o</text></g>
<g transform="translate(90.624,44.160000000000004)">
<text>s</text></g>
</g><g transform="translate(1501.0453333333332,65.56800000000001)">
<text>(</text></g>
<g transform="translate(1533.0133333333333,65.56800000000001)">
<text>θ</text></g>
<g transform="translate(1580.6293333333333,65.56800000000001)">
<text>)</text></g>
</g></g></svg>