<?xml version="1.0" encoding="UTF-8" standalone="no"?>
<!DOCTYPE svg PUBLIC "-//W3C//DTD SVG 1.1//EN" "http://www.w3.org/Graphics/SVG/1.1/DTD/svg11.dtd">
<svg width="1645.53" height="93.14" xmlns="http://www.w3.org/2000/svg">
    <defs>
    <style type="text/css">@font-face{font-family:rex;src:url('http://rex.breeden.cc/rex-xits.otf');}</style>
    </defs>
    <g font-family="rex" font-size="96.0px"><g transform="translate(12.00 5.00)"><g transform="translate(0.00 65.57)"><text>s</text></g><g transform="translate(37.34 65.57)"><text>i</text></g><g transform="translate(64.03 65.57)"><text>n</text></g><g transform="translate(112.03 65.57)"><text>(</text></g><g transform="translate(144.00 65.57)"><text>ğœƒ</text></g><g transform="translate(211.80 65.57)"><text>+</text></g><g transform="translate(298.89 65.57)"><text>ğœ‘</text></g><g transform="translate(362.83 65.57)"><text>)</text></g><g transform="translate(426.79 65.57)"><text>=</text></g><g transform="translate(524.55 0.00)"><g transform="translate(0.00 65.57)"><text>s</text></g><g transform="translate(37.34 65.57)"><text>i</text></g><g transform="translate(64.03 65.57)"><text>n</text></g></g><g transform="translate(636.59 65.57)"><text>(</text></g><g transform="translate(668.55 65.57)"><text>ğœƒ</text></g><g transform="translate(715.02 65.57)"><text>)</text></g><g transform="translate(762.99 21.41)"><g transform="translate(0.00 44.16)"><text>c</text></g><g transform="translate(42.62 44.16)"><text>o</text></g><g transform="translate(90.62 44.16)"><text>s</text></g></g><g transform="translate(890.95 65.57)"><text>(</text></g><g transform="translate(922.92 65.57)"><text>ğœ‘</text></g><g transform="translate(986.86 65.57)"><text>)</text></g><g transform="translate(1040.16 65.57)"><text>+</text></g><g transform="translate(1127.25 0.00)"><g transform="translate(0.00 65.57)"><text>s</text></g><g transform="translate(37.34 65.57)"><text>i</text></g><g transform="translate(64.03 65.57)"><text>n</text></g></g><g transform="translate(1239.29 65.57)"><text>(</text></g><g transform="translate(1271.25 65.57)"><text>ğœ‘</text></g><g transform="translate(1335.19 65.57)"><text>)</text></g><g transform="translate(1383.16 21.41)"><g transform="translate(0.00 44.16)"><text>c</text></g><g transform="translate(42.62 44.16)"><text>o</text></g><g transform="translate(90.62 44.16)"><text>s</text></g></g><g transform="translate(1511.13 65.57)"><text>(</text></g><g transform="translate(1543.09 65.57)"><text>ğœƒ</text></g><g transform="translate(1589.56 65.57)"><text>)</text></g></g></g>
</svg>
