<?xml version="1.0" encoding="UTF-8" standalone="no"?>
<!DOCTYPE svg PUBLIC "-//W3C//DTD SVG 1.1//EN" "http://www.w3.org/Graphics/SVG/1.1/DTD/svg11.dtd">
<svg width="1636.60" height="96.40" xmlns="http://www.w3.org/2000/svg">
    <defs>
    <style type="text/css">@font-face{font-family:rex;src:url('http://rex.breeden.cc/rex-xits.otf');}</style>
    </defs>
    <g font-family="rex" font-size="96.0px">
<text transform="translate(12.00, 70.57)">s</text>
<text transform="translate(49.34, 70.57)">i</text>
<text transform="translate(76.03, 70.57)">n</text>
<text transform="translate(124.03, 70.57)">(</text>
<text transform="translate(156.00, 70.57)">θ</text>
<text transform="translate(224.95, 70.57)">+</text>
<text transform="translate(312.04, 70.57)">φ</text>
<text transform="translate(371.85, 70.57)">)</text>
<text transform="translate(435.82, 70.57)">=</text>
<text transform="translate(533.58, 70.57)">s</text>
<text transform="translate(570.92, 70.57)">i</text>
<text transform="translate(597.61, 70.57)">n</text>
<text transform="translate(645.61, 70.57)">(</text>
<text transform="translate(677.58, 70.57)">θ</text>
<text transform="translate(725.19, 70.57)">)</text>
<text transform="translate(773.16, 70.57)">c</text>
<text transform="translate(815.79, 70.57)">o</text>
<text transform="translate(863.79, 70.57)">s</text>
<text transform="translate(901.13, 70.57)">(</text>
<text transform="translate(933.10, 70.57)">φ</text>
<text transform="translate(992.91, 70.57)">)</text>
<text transform="translate(1046.21, 70.57)">+</text>
<text transform="translate(1133.30, 70.57)">s</text>
<text transform="translate(1170.65, 70.57)">i</text>
<text transform="translate(1197.33, 70.57)">n</text>
<text transform="translate(1245.33, 70.57)">(</text>
<text transform="translate(1277.30, 70.57)">φ</text>
<text transform="translate(1337.11, 70.57)">)</text>
<text transform="translate(1385.08, 70.57)">c</text>
<text transform="translate(1427.70, 70.57)">o</text>
<text transform="translate(1475.70, 70.57)">s</text>
<text transform="translate(1513.05, 70.57)">(</text>
<text transform="translate(1545.01, 70.57)">θ</text>
<text transform="translate(1592.63, 70.57)">)</text>
</g>
</svg>

