<?xml version="1.0" encoding="UTF-8" standalone="no"?>
<!DOCTYPE svg PUBLIC "-//W3C//DTD SVG 1.1//EN" "http://www.w3.org/Graphics/SVG/1.1/DTD/svg11.dtd">
<svg width="1636.60" height="96.40" xmlns="http://www.w3.org/2000/svg">
    <defs>
    <style type="text/css">@font-face{font-family:rex;src:url('http://rex.breeden.cc/rex-xits.otf');}</style>
    </defs>
    <g font-family="rex" font-size="96.0px"><g transform="translate(12.00 5.00)">
<g transform="translate(0.00 65.57)">
<text>s</text>
</g>
<g transform="translate(37.34 65.57)">
<text>i</text>
</g>
<g transform="translate(64.03 65.57)">
<text>n</text>
</g>
<g transform="translate(112.03 65.57)">
<text>(</text>
</g>
<g transform="translate(144.00 65.57)">
<text>θ</text>
</g>
<g transform="translate(212.95 65.57)">
<text>+</text>
</g>
<g transform="translate(300.04 65.57)">
<text>φ</text>
</g>
<g transform="translate(359.85 65.57)">
<text>)</text>
</g>
<g transform="translate(423.82 65.57)">
<text>=</text>
</g>
<g transform="translate(521.58 0.00)">
<g transform="translate(0.00 65.57)">
<text>s</text>
</g>
<g transform="translate(37.34 65.57)">
<text>i</text>
</g>
<g transform="translate(64.03 65.57)">
<text>n</text>
</g>
</g>
<g transform="translate(633.61 65.57)">
<text>(</text>
</g>
<g transform="translate(665.58 65.57)">
<text>θ</text>
</g>
<g transform="translate(713.19 65.57)">
<text>)</text>
</g>
<g transform="translate(761.16 21.41)">
<g transform="translate(0.00 44.16)">
<text>c</text>
</g>
<g transform="translate(42.62 44.16)">
<text>o</text>
</g>
<g transform="translate(90.62 44.16)">
<text>s</text>
</g>
</g>
<g transform="translate(889.13 65.57)">
<text>(</text>
</g>
<g transform="translate(921.10 65.57)">
<text>φ</text>
</g>
<g transform="translate(980.91 65.57)">
<text>)</text>
</g>
<g transform="translate(1034.21 65.57)">
<text>+</text>
</g>
<g transform="translate(1121.30 0.00)">
<g transform="translate(0.00 65.57)">
<text>s</text>
</g>
<g transform="translate(37.34 65.57)">
<text>i</text>
</g>
<g transform="translate(64.03 65.57)">
<text>n</text>
</g>
</g>
<g transform="translate(1233.33 65.57)">
<text>(</text>
</g>
<g transform="translate(1265.30 65.57)">
<text>φ</text>
</g>
<g transform="translate(1325.11 65.57)">
<text>)</text>
</g>
<g transform="translate(1373.08 21.41)">
<g transform="translate(0.00 44.16)">
<text>c</text>
</g>
<g transform="translate(42.62 44.16)">
<text>o</text>
</g>
<g transform="translate(90.62 44.16)">
<text>s</text>
</g>
</g>
<g transform="translate(1501.05 65.57)">
<text>(</text>
</g>
<g transform="translate(1533.01 65.57)">
<text>θ</text>
</g>
<g transform="translate(1580.63 65.57)">
<text>)</text>
</g>
</g>
</g>
</svg>

