<?xml version="1.0" encoding="UTF-8" standalone="no"?>
<!DOCTYPE svg PUBLIC "-//W3C//DTD SVG 1.1//EN" "http://www.w3.org/Graphics/SVG/1.1/DTD/svg11.dtd">
<svg width="1665.01" height="92.46" xmlns="http://www.w3.org/2000/svg">
    <defs>
    <style type="text/css">@font-face{font-family:rex;src:url('http://rex.breeden.cc/rex-xits.otf');}</style>
    </defs>
    <g font-family="rex" font-size="96.0px">
<text transform="translate(12.00, 69.90)">ğ‘ </text>
<text transform="translate(54.24, 69.90)">ğ‘–</text>
<text transform="translate(84.10, 69.90)">ğ‘›</text>
<text transform="translate(131.81, 69.90)">(</text>
<text transform="translate(163.78, 69.90)">ğœƒ</text>
<text transform="translate(231.57, 69.90)">+</text>
<text transform="translate(318.67, 69.90)">ğœ‘</text>
<text transform="translate(382.60, 69.90)">)</text>
<text transform="translate(446.57, 69.90)">=</text>
<text transform="translate(544.33, 69.90)">ğ‘ </text>
<text transform="translate(586.57, 69.90)">ğ‘–</text>
<text transform="translate(616.43, 69.90)">ğ‘›</text>
<text transform="translate(664.14, 69.90)">(</text>
<text transform="translate(696.11, 69.90)">ğœƒ</text>
<text transform="translate(742.57, 69.90)">)</text>
<text transform="translate(790.54, 69.90)">ğ‘</text>
<text transform="translate(830.38, 69.90)">ğ‘œ</text>
<text transform="translate(874.35, 69.90)">ğ‘ </text>
<text transform="translate(916.59, 69.90)">(</text>
<text transform="translate(948.55, 69.90)">ğœ‘</text>
<text transform="translate(1012.49, 69.90)">)</text>
<text transform="translate(1065.79, 69.90)">+</text>
<text transform="translate(1152.89, 69.90)">ğ‘ </text>
<text transform="translate(1195.13, 69.90)">ğ‘–</text>
<text transform="translate(1224.98, 69.90)">ğ‘›</text>
<text transform="translate(1272.69, 69.90)">(</text>
<text transform="translate(1304.66, 69.90)">ğœ‘</text>
<text transform="translate(1368.60, 69.90)">)</text>
<text transform="translate(1416.57, 69.90)">ğ‘</text>
<text transform="translate(1456.41, 69.90)">ğ‘œ</text>
<text transform="translate(1500.37, 69.90)">ğ‘ </text>
<text transform="translate(1542.61, 69.90)">(</text>
<text transform="translate(1574.58, 69.90)">ğœƒ</text>
<text transform="translate(1621.05, 69.90)">)</text>
</g>
</svg>

