<?xml version="1.0" encoding="UTF-8" standalone="no"?>
<!DOCTYPE svg PUBLIC "-//W3C//DTD SVG 1.1//EN" "http://www.w3.org/Graphics/SVG/1.1/DTD/svg11.dtd">
<svg width="1621.7152499999997" height="83.232" viewbox="0 0 16892 867" xmlns="http://www.w3.org/2000/svg">
    <defs>
    <style type="text/css">@font-face{font-family:rex;src:url('http://rex.breeden.cc/rex-xits.otf');}</style>
    </defs>
    <g font-family="rex" font-size="1000">
<text transform="translate(1, 683)">s</text>
<text transform="translate(390, 683)">i</text>
<text transform="translate(668, 683)">n</text>
<text transform="translate(1168, 683)">(</text>
<text transform="translate(1501, 683)">ğœƒ</text>
<text transform="translate(2207, 683)">+</text>
<text transform="translate(3114, 683)">ğœ‘</text>
<text transform="translate(3780, 683)">)</text>
<text transform="translate(4446, 683)">=</text>
<text transform="translate(5465, 683)">s</text>
<text transform="translate(5854, 683)">i</text>
<text transform="translate(6132, 683)">n</text>
<text transform="translate(6632, 683)">(</text>
<text transform="translate(6965, 683)">ğœƒ</text>
<text transform="translate(7449, 683)">)</text>
<text transform="translate(7948, 683)">c</text>
<text transform="translate(8392, 683)">o</text>
<text transform="translate(8892, 683)">s</text>
<text transform="translate(9281, 683)">(</text>
<text transform="translate(9614, 683)">ğœ‘</text>
<text transform="translate(10280, 683)">)</text>
<text transform="translate(10835, 683)">+</text>
<text transform="translate(11743, 683)">s</text>
<text transform="translate(12132, 683)">i</text>
<text transform="translate(12410, 683)">n</text>
<text transform="translate(12910, 683)">(</text>
<text transform="translate(13243, 683)">ğœ‘</text>
<text transform="translate(13909, 683)">)</text>
<text transform="translate(14408, 683)">c</text>
<text transform="translate(14852, 683)">o</text>
<text transform="translate(15352, 683)">s</text>
<text transform="translate(15741, 683)">(</text>
<text transform="translate(16074, 683)">ğœƒ</text>
<text transform="translate(16558, 683)">)</text>
</g>
</svg>

