<?xml version="1.0" encoding="UTF-8" standalone="no"?>
<!DOCTYPE svg PUBLIC "-//W3C//DTD SVG 1.1//EN" "http://www.w3.org/Graphics/SVG/1.1/DTD/svg11.dtd">
<svg width="750.19" height="246.16" xmlns="http://www.w3.org/2000/svg">
    <defs>
    <style type="text/css">@font-face{font-family:rex;src:url('http://rex.breeden.cc/rex-xits.otf');}</style>
    </defs>
    <g font-family="rex" font-size="96.0px"><g transform="translate(12.00 5.00)"><g transform="translate(0.00 142.08)"><text>e</text></g><g transform="translate(74.62 142.08)"><text>=</text></g><g transform="translate(172.38 47.71)"><g transform="translate(76.77 0.00)"></g><g transform="translate(0.00 28.80)"><g transform="translate(12.74 0.00)"><g transform="translate(0.00 65.57)"><text>l</text></g><g transform="translate(26.69 65.57)"><text>i</text></g><g transform="translate(53.38 65.57)"><text>m</text></g></g></g><g transform="translate(0.00 121.94)"><g transform="translate(0.00 30.03)"><text transform="scale(0.68)">n</text></g><g transform="translate(32.64 30.03)"><text transform="scale(0.68)">→</text></g><g transform="translate(93.09 30.03)"><text transform="scale(0.68)">∞</text></g></g></g><g transform="translate(341.92 0.00)"><g transform="translate(0.00 198.34)"><text></text></g><g transform="translate(72.00 21.50)"><g transform="translate(0.00 120.58)"><text>1</text></g><g transform="translate(69.33 120.58)"><text>+</text></g><g transform="translate(158.03 0.00)"><g transform="translate(0.00 64.90)"><text>1</text></g><rect x="0.00" y ="93.41" width="48.00" height="6.34" fill="#000"/><g transform="translate(0.00 143.62)"><g transform="translate(0.00 44.16)"><text>n</text></g></g></g></g><g transform="translate(279.63 0.00)"><g transform="translate(0.00 198.34)"><text></text></g></g></g><g transform="translate(693.55 5.97)"><g transform="translate(0.00 30.03)"><text transform="scale(0.68)">n</text></g></g></g></g>
</svg>
