<?xml version="1.0" encoding="UTF-8" standalone="no"?><!DOCTYPE svg PUBLIC "-//W3C//DTD SVG 1.1//EN" "http://www.w3.org/Graphics/SVG/1.1/DTD/svg11.dtd"><svg width="749.8935466666667" height="246.15999999999997" xmlns="http://www.w3.org/2000/svg"><defs><style type="text/css">@font-face{font-family: rex;src: url('http://rex.breeden.cc/rex-xits.otf');}</style></defs><g font-family="rex" font-size="96.0px"><g transform="translate(12.00,5.00)">
<g transform="translate(0,142.07999999999998)">
<text>ğ‘’</text></g>
<g transform="translate(74.72,142.07999999999998)">
<text>=</text></g>
<g transform="translate(172.48000000000002,47.71199999999996)">
<g transform="translate(0,0)">
<g transform="translate(76.67135999999999,0)">
</g></g><g transform="translate(0,28.799999999999997)">
<g transform="translate(12.639359999999982,0)">
<g transform="translate(0,65.56800000000001)">
<text>l</text></g>
<g transform="translate(26.688000000000002,65.56800000000001)">
<text>i</text></g>
<g transform="translate(53.376000000000005,65.56800000000001)">
<text>m</text></g>
</g></g><g transform="translate(0,122.72256)">
<g transform="translate(0,0)">
<g transform="translate(0,0)">
<g transform="translate(0,29.245440000000006)">
<g transform="scale(0.68)"><text>ğ‘›</text></g>
</g><g transform="translate(32.444160000000004,29.245440000000006)">
<g transform="scale(0.68)"><text>â†’</text></g>
</g><g transform="translate(92.89344,29.245440000000006)">
<g transform="scale(0.68)"><text>âˆ</text></g>
</g></g></g></g></g><g transform="translate(341.82272,0)">
<g transform="translate(0,0)">
<g transform="translate(0,198.33599999999998)">
<text>îœš</text></g>
</g><g transform="translate(72,21.50400000000002)">
<g transform="translate(0,120.57599999999996)">
<text>1</text></g>
<g transform="translate(69.33333333333333,120.57599999999996)">
<text>+</text></g>
<g transform="translate(158.02666666666667,0)">
<g transform="translate(0,0)">
<g transform="translate(0,64.896)">
<text>1</text></g>
</g><rect x="0" y="93.40799999999999" width="48" height="6.336" fill="#000"/><g transform="translate(0,145.43999999999997)">
<g transform="translate(0.14399999999999835,42.336)">
<text>ğ‘›</text></g>
</g></g></g><g transform="translate(279.62666666666667,0)">
<g transform="translate(0,198.33599999999998)">
<text>îœ</text></g>
</g></g><g transform="translate(693.4493866666667,7.211520000000007)">
<g transform="translate(0,0)">
<g transform="translate(0,28.78848)">
<g transform="scale(0.68)"><text>ğ‘›</text></g>
</g></g></g></g></g></svg>