<?xml version="1.0" encoding="UTF-8" standalone="no"?><!DOCTYPE svg PUBLIC "-//W3C//DTD SVG 1.1//EN" "http://www.w3.org/Graphics/SVG/1.1/DTD/svg11.dtd"><svg width="930.65" height="232.62" xmlns="http://www.w3.org/2000/svg">
<defs>
  <style type="text/css">@font-face{font-family:rex;src:url('http://rex.breeden.cc/rex-xits.otf');}</style>
</defs>
<g font-family="rex" font-size="96.0px"><g transform="translate(12.00 5.00)"><g transform="translate(0.00 132.91)"><text>f</text></g><g transform="translate(31.97 132.91)"><text>(</text></g><g transform="translate(63.94 132.91)"><text>x</text></g><g transform="translate(111.94 132.91)"><text>)</text></g><g transform="translate(175.90 132.91)"><text>=</text></g><g transform="translate(273.66 0.00)"><g transform="translate(0.00 192.00)"><text></text></g></g><g transform="translate(382.62 7.93)"><g transform="translate(0.00 28.07)"><text transform="scale(0.68)">∞</text></g><g transform="translate(0.00 186.62)"><g transform="translate(-52.80 0.00)"><g transform="translate(0.00 28.07)"><text transform="scale(0.68)">−</text></g><g transform="translate(44.72 28.07)"><text transform="scale(0.68)">∞</text></g></g></g></g><g transform="translate(459.07 45.84)"><g transform="translate(47.42 64.70)"><text>̂</text></g><g transform="translate(0.00 21.50)"><g transform="translate(0.00 65.57)"><text>f</text></g></g></g><g transform="translate(506.50 132.91)"><text>(</text></g><g transform="translate(538.47 132.91)"><text>ξ</text></g><g transform="translate(580.80 132.91)"><text>)</text></g><g transform="translate(612.77 88.75)"><g transform="translate(0.00 44.16)"><text>e</text></g></g><g transform="translate(655.39 49.93)"><g transform="translate(0.00 44.59)"><text transform="scale(0.68)">2</text></g><g transform="translate(32.64 44.59)"><text transform="scale(0.68)">π</text></g><g transform="translate(65.35 44.59)"><text transform="scale(0.68)">i</text></g><g transform="translate(83.49 44.59)"><text transform="scale(0.68)">ξ</text></g><g transform="translate(112.28 44.59)"><text transform="scale(0.68)">x</text></g></g><g transform="translate(816.31 132.91)"><text>d</text></g><g transform="translate(864.31 132.91)"><text>ξ</text></g></g></g></svg>