<?xml version="1.0" encoding="UTF-8" standalone="no"?><!DOCTYPE svg PUBLIC "-//W3C//DTD SVG 1.1//EN" "http://www.w3.org/Graphics/SVG/1.1/DTD/svg11.dtd"><svg width="987.6211199999999" height="232.624" xmlns="http://www.w3.org/2000/svg"><defs><style type="text/css">@font-face{font-family: rex;src: url('http://rex.breeden.cc/rex-xits.otf');}</style></defs><g font-family="rex" font-size="96.0px"><g transform="translate(12.00,5.00)">
<g transform="translate(0,132.912)">
<text>ğ‘“</text></g>
<g transform="translate(53.28,132.912)">
<text>(</text></g>
<g transform="translate(85.248,132.912)">
<text>ğ‘¥</text></g>
<g transform="translate(138.048,132.912)">
<text>)</text></g>
<g transform="translate(202.01600000000002,132.912)">
<text>=</text></g>
<g transform="translate(299.776,0)">
<g transform="translate(0,0)">
<g transform="translate(0,192)">
<text>î¤¤</text></g>
</g></g><g transform="translate(408.736,7.9295999999999935)">
<g transform="translate(0,0)">
<g transform="translate(0,0)">
<g transform="translate(0,28.070400000000003)">
<g transform="scale(0.68)"><text>âˆ</text></g>
</g></g></g><g transform="translate(0,186.624)">
<g transform="translate(-52.800000000000004,0)">
<g transform="translate(0,28.070400000000003)">
<g transform="scale(0.68)"><text>âˆ’</text></g>
</g><g transform="translate(44.716800000000006,28.070400000000003)">
<g transform="scale(0.68)"><text>âˆ</text></g>
</g></g></g></g><g transform="translate(485.18528,47.28)">
<g transform="translate(0,0)">
<g transform="translate(72.768,64.70400000000001)">
<text>Ì‚</text></g>
</g><g transform="translate(0,21.504000000000005)">
<g transform="translate(0,64.128)">
<text>ğ‘“</text></g>
</g></g><g transform="translate(557.95328,132.912)">
<text>(</text></g>
<g transform="translate(589.9212799999999,132.912)">
<text>Î¾</text></g>
<g transform="translate(632.2572799999999,132.912)">
<text>)</text></g>
<g transform="translate(664.2252799999999,90.57600000000001)">
<g transform="translate(0,42.336)">
<text>ğ‘’</text></g>
</g><g transform="translate(706.9452799999999,49.92576)">
<g transform="translate(0,0)">
<g transform="translate(0,0)">
<g transform="translate(0,44.58624000000001)">
<g transform="scale(0.68)"><text>2</text></g>
</g><g transform="translate(32.64,44.58624000000001)">
<g transform="scale(0.68)"><text>Ï€</text></g>
</g><g transform="translate(65.34528,44.58624000000001)">
<g transform="scale(0.68)"><text>ğ‘–</text></g>
</g><g transform="translate(85.64736,44.58624000000001)">
<g transform="scale(0.68)"><text>Î¾</text></g>
</g><g transform="translate(114.43584000000001,44.58624000000001)">
<g transform="scale(0.68)"><text>ğ‘¥</text></g>
</g></g></g></g><g transform="translate(873.2851199999999,132.912)">
<text>d</text></g>
<g transform="translate(921.2851199999999,132.912)">
<text>Î¾</text></g>
</g></g></svg>