<?xml version="1.0" encoding="UTF-8" standalone="no"?><!DOCTYPE svg PUBLIC "-//W3C//DTD SVG 1.1//EN" "http://www.w3.org/Graphics/SVG/1.1/DTD/svg11.dtd"><svg width="1129.23" height="323.41" xmlns="http://www.w3.org/2000/svg">
<defs>
  <style type="text/css">@font-face{font-family:rex;src:url('http://rex.breeden.cc/rex-xits.otf');}</style>
</defs>
<g font-family="rex" font-size="96.0px"><g transform="translate(12.00 5.00)"><g transform="translate(454.73 0.00)"><g fill="gray"><g transform="translate(0.00 44.59)"><text transform="scale(0.68)">Q</text></g><g transform="translate(47.13 44.59)"><text transform="scale(0.68)">u</text></g><g transform="translate(79.77 44.59)"><text transform="scale(0.68)">a</text></g><g transform="translate(108.76 44.59)"><text transform="scale(0.68)">r</text></g><g transform="translate(130.49 44.59)"><text transform="scale(0.68)">t</text></g><g transform="translate(148.64 44.59)"><text transform="scale(0.68)">i</text></g><g transform="translate(166.79 44.59)"><text transform="scale(0.68)">c</text></g></g></g><g transform="translate(0.00 73.39)"><g transform="translate(7.87 0.00)"><g transform="translate(0.00 130.18)"><text>î§†</text></g><g transform="translate(76.03 130.18)"><text>î§…</text></g><g transform="translate(97.16 130.18)"><text>î§…</text></g><g transform="translate(118.28 130.18)"><text>î§…</text></g><g transform="translate(139.40 130.18)"><text>î§…</text></g><g transform="translate(160.52 130.18)"><text>î§…</text></g><g transform="translate(181.64 130.18)"><text>î§…</text></g><g transform="translate(202.77 130.18)"><text>î§…</text></g><g transform="translate(223.89 130.18)"><text>î§…</text></g><g transform="translate(245.01 130.18)"><text>î§…</text></g><g transform="translate(266.13 130.18)"><text>î§…</text></g><g transform="translate(287.25 130.18)"><text>î§…</text></g><g transform="translate(308.38 130.18)"><text>î§…</text></g><g transform="translate(329.50 130.18)"><text>î§…</text></g><g transform="translate(350.62 130.18)"><text>î§…</text></g><g transform="translate(371.74 130.18)"><text>î§…</text></g><g transform="translate(392.86 130.18)"><text>î§…</text></g><g transform="translate(413.99 130.18)"><text>î§…</text></g><g transform="translate(435.11 130.18)"><text>î§…</text></g><g transform="translate(456.23 130.18)"><text>î§‡</text></g><g transform="translate(623.18 130.18)"><text>î§…</text></g><g transform="translate(644.30 130.18)"><text>î§…</text></g><g transform="translate(665.42 130.18)"><text>î§…</text></g><g transform="translate(686.54 130.18)"><text>î§…</text></g><g transform="translate(707.66 130.18)"><text>î§…</text></g><g transform="translate(728.79 130.18)"><text>î§…</text></g><g transform="translate(749.91 130.18)"><text>î§…</text></g><g transform="translate(771.03 130.18)"><text>î§…</text></g><g transform="translate(792.15 130.18)"><text>î§…</text></g><g transform="translate(813.27 130.18)"><text>î§…</text></g><g transform="translate(834.39 130.18)"><text>î§…</text></g><g transform="translate(855.52 130.18)"><text>î§…</text></g><g transform="translate(876.64 130.18)"><text>î§…</text></g><g transform="translate(897.76 130.18)"><text>î§…</text></g><g transform="translate(918.88 130.18)"><text>î§…</text></g><g transform="translate(940.00 130.18)"><text>î§…</text></g><g transform="translate(961.13 130.18)"><text>î§…</text></g><g transform="translate(982.25 130.18)"><text>î§…</text></g><g transform="translate(1003.37 130.18)"><text>î§ˆ</text></g></g><g transform="translate(0.00 86.98)"><g transform="translate(0.00 28.19)"><g transform="translate(0.00 42.34)"><text>ğ‘</text></g></g><g transform="translate(39.84 50.40)"><g transform="translate(0.00 44.13)"><text transform="scale(0.68)">4</text></g></g><g transform="translate(72.48 28.19)"><g transform="translate(0.00 42.34)"><text>ğ‘¥</text></g></g><g transform="translate(125.28 0.00)"><g transform="translate(0.00 44.13)"><text transform="scale(0.68)">4</text></g></g><g transform="translate(179.25 70.53)"><text>+</text></g><g transform="translate(266.35 28.19)"><g transform="translate(0.00 42.34)"><text>ğ‘</text></g></g><g transform="translate(306.19 50.40)"><g transform="translate(0.00 44.13)"><text transform="scale(0.68)">3</text></g></g><g transform="translate(338.83 28.19)"><g transform="translate(0.00 42.34)"><text>ğ‘¥</text></g></g><g transform="translate(391.63 0.00)"><g transform="translate(0.00 44.13)"><text transform="scale(0.68)">3</text></g></g><g transform="translate(445.60 70.53)"><text>+</text></g><g transform="translate(532.69 28.19)"><g transform="translate(0.00 42.34)"><text>ğ‘</text></g></g><g transform="translate(572.53 50.40)"><g transform="translate(0.00 44.13)"><text transform="scale(0.68)">2</text></g></g><g transform="translate(605.17 28.19)"><g transform="translate(0.00 42.34)"><text>ğ‘¥</text></g></g><g transform="translate(657.97 0.00)"><g transform="translate(0.00 44.13)"><text transform="scale(0.68)">2</text></g></g><g transform="translate(711.95 70.53)"><text>+</text></g><g transform="translate(799.04 28.19)"><g transform="translate(0.00 42.34)"><text>ğ‘</text></g></g><g transform="translate(838.88 50.40)"><g transform="translate(0.00 44.13)"><text transform="scale(0.68)">1</text></g></g><g transform="translate(871.52 70.53)"><text>ğ‘¥</text></g><g transform="translate(945.65 70.53)"><text>+</text></g><g transform="translate(1032.75 28.19)"><g transform="translate(0.00 42.34)"><text>ğ‘</text></g></g><g transform="translate(1072.59 50.40)"><g transform="translate(0.00 44.13)"><text transform="scale(0.68)">0</text></g></g></g></g><g transform="translate(0.00 313.41)"><g transform="translate(552.61 0.00)"></g></g></g></g></svg>