<?xml version="1.0" encoding="UTF-8" standalone="no"?>
<!DOCTYPE svg PUBLIC "-//W3C//DTD SVG 1.1//EN" "http://www.w3.org/Graphics/SVG/1.1/DTD/svg11.dtd">
<svg width="1153.104" height="332.56425" viewBox="0 0 12011 3464" xmlns="http://www.w3.org/2000/svg">
    <defs>
    <style type="text/css">@font-face{font-family:rex;src:url('http://rex.breeden.cc/rex-xits.otf');}</style>
    </defs>
    <g font-family="rex" font-size="1000">
<g fill="gray">
<text transform="translate(4986, 564) scale(0.68)">Q</text>
<text transform="translate(5477, 564) scale(0.68)">u</text>
<text transform="translate(5817, 564) scale(0.68)">a</text>
<text transform="translate(6118, 564) scale(0.68)">r</text>
<text transform="translate(6345, 564) scale(0.68)">t</text>
<text transform="translate(6534, 564) scale(0.68)">i</text>
<text transform="translate(6723, 564) scale(0.68)">c</text>
</g>
<text transform="translate(332, 2220)">î§†</text>
<text transform="translate(1124, 2220)">î§…</text>
<text transform="translate(1344, 2220)">î§…</text>
<text transform="translate(1564, 2220)">î§…</text>
<text transform="translate(1783, 2220)">î§…</text>
<text transform="translate(2003, 2220)">î§…</text>
<text transform="translate(2223, 2220)">î§…</text>
<text transform="translate(2443, 2220)">î§…</text>
<text transform="translate(2663, 2220)">î§…</text>
<text transform="translate(2883, 2220)">î§…</text>
<text transform="translate(3103, 2220)">î§…</text>
<text transform="translate(3323, 2220)">î§…</text>
<text transform="translate(3543, 2220)">î§…</text>
<text transform="translate(3763, 2220)">î§…</text>
<text transform="translate(3983, 2220)">î§…</text>
<text transform="translate(4203, 2220)">î§…</text>
<text transform="translate(4423, 2220)">î§…</text>
<text transform="translate(4643, 2220)">î§…</text>
<text transform="translate(4863, 2220)">î§…</text>
<text transform="translate(5083, 2220)">î§‡</text>
<text transform="translate(6822, 2220)">î§…</text>
<text transform="translate(7042, 2220)">î§…</text>
<text transform="translate(7262, 2220)">î§…</text>
<text transform="translate(7482, 2220)">î§…</text>
<text transform="translate(7702, 2220)">î§…</text>
<text transform="translate(7922, 2220)">î§…</text>
<text transform="translate(8142, 2220)">î§…</text>
<text transform="translate(8362, 2220)">î§…</text>
<text transform="translate(8582, 2220)">î§…</text>
<text transform="translate(8802, 2220)">î§…</text>
<text transform="translate(9022, 2220)">î§…</text>
<text transform="translate(9242, 2220)">î§…</text>
<text transform="translate(9462, 2220)">î§…</text>
<text transform="translate(9682, 2220)">î§…</text>
<text transform="translate(9902, 2220)">î§…</text>
<text transform="translate(10122, 2220)">î§…</text>
<text transform="translate(10342, 2220)">î§…</text>
<text transform="translate(10562, 2220)">î§…</text>
<text transform="translate(10782, 2220)">î§ˆ</text>
<text transform="translate(250, 2504)">ğ‘</text>
<text transform="translate(665, 2754) scale(0.68)">4</text>
<text transform="translate(1004, 2504)">ğ‘¥</text>
<text transform="translate(1554, 2229) scale(0.68)">4</text>
<text transform="translate(2116, 2504)">+</text>
<text transform="translate(3024, 2504)">ğ‘</text>
<text transform="translate(3439, 2754) scale(0.68)">3</text>
<text transform="translate(3778, 2504)">ğ‘¥</text>
<text transform="translate(4328, 2229) scale(0.68)">3</text>
<text transform="translate(4891, 2504)">+</text>
<text transform="translate(5798, 2504)">ğ‘</text>
<text transform="translate(6213, 2754) scale(0.68)">2</text>
<text transform="translate(6553, 2504)">ğ‘¥</text>
<text transform="translate(7103, 2229) scale(0.68)">2</text>
<text transform="translate(7665, 2504)">+</text>
<text transform="translate(8572, 2504)">ğ‘</text>
<text transform="translate(8987, 2754) scale(0.68)">1</text>
<text transform="translate(9327, 2504)">ğ‘¥</text>
<text transform="translate(10099, 2504)">+</text>
<text transform="translate(11006, 2504)">ğ‘</text>
<text transform="translate(11421, 2754) scale(0.68)">0</text>
</g>
</svg>

