<?xml version="1.0" encoding="UTF-8" standalone="no"?>
<!DOCTYPE svg PUBLIC "-//W3C//DTD SVG 1.1//EN" "http://www.w3.org/Graphics/SVG/1.1/DTD/svg11.dtd">
<svg width="1129.23" height="322.36" xmlns="http://www.w3.org/2000/svg">
    <defs>
    <style type="text/css">@font-face{font-family:rex;src:url('http://rex.breeden.cc/rex-xits.otf');}</style>
    </defs>
    <g font-family="rex" font-size="96.0px">
<g fill="gray">
<text transform="translate(460.03, 48.54) scale(0.68)">ğ‘„</text>
<text transform="translate(511.02, 48.54) scale(0.68)">ğ‘¢</text>
<text transform="translate(541.96, 48.54) scale(0.68)">ğ‘</text>
<text transform="translate(574.73, 48.54) scale(0.68)">ğ‘Ÿ</text>
<text transform="translate(601.37, 48.54) scale(0.68)">ğ‘¡</text>
<text transform="translate(621.80, 48.54) scale(0.68)">ğ‘–</text>
<text transform="translate(642.10, 48.54) scale(0.68)">ğ‘</text>
</g>
<text transform="translate(19.87, 207.52)">î§†</text>
<text transform="translate(95.91, 207.52)">î§…</text>
<text transform="translate(117.03, 207.52)">î§…</text>
<text transform="translate(138.15, 207.52)">î§…</text>
<text transform="translate(159.27, 207.52)">î§…</text>
<text transform="translate(180.39, 207.52)">î§…</text>
<text transform="translate(201.52, 207.52)">î§…</text>
<text transform="translate(222.64, 207.52)">î§…</text>
<text transform="translate(243.76, 207.52)">î§…</text>
<text transform="translate(264.88, 207.52)">î§…</text>
<text transform="translate(286.00, 207.52)">î§…</text>
<text transform="translate(307.13, 207.52)">î§…</text>
<text transform="translate(328.25, 207.52)">î§…</text>
<text transform="translate(349.37, 207.52)">î§…</text>
<text transform="translate(370.49, 207.52)">î§…</text>
<text transform="translate(391.61, 207.52)">î§…</text>
<text transform="translate(412.74, 207.52)">î§…</text>
<text transform="translate(433.86, 207.52)">î§…</text>
<text transform="translate(454.98, 207.52)">î§…</text>
<text transform="translate(476.10, 207.52)">î§‡</text>
<text transform="translate(643.05, 207.52)">î§…</text>
<text transform="translate(664.17, 207.52)">î§…</text>
<text transform="translate(685.29, 207.52)">î§…</text>
<text transform="translate(706.41, 207.52)">î§…</text>
<text transform="translate(727.54, 207.52)">î§…</text>
<text transform="translate(748.66, 207.52)">î§…</text>
<text transform="translate(769.78, 207.52)">î§…</text>
<text transform="translate(790.90, 207.52)">î§…</text>
<text transform="translate(812.02, 207.52)">î§…</text>
<text transform="translate(833.14, 207.52)">î§…</text>
<text transform="translate(854.27, 207.52)">î§…</text>
<text transform="translate(875.39, 207.52)">î§…</text>
<text transform="translate(896.51, 207.52)">î§…</text>
<text transform="translate(917.63, 207.52)">î§…</text>
<text transform="translate(938.75, 207.52)">î§…</text>
<text transform="translate(959.88, 207.52)">î§…</text>
<text transform="translate(981.00, 207.52)">î§…</text>
<text transform="translate(1002.12, 207.52)">î§…</text>
<text transform="translate(1023.24, 207.52)">î§ˆ</text>
<text transform="translate(12.00, 234.85)">ğ‘</text>
<text transform="translate(51.84, 258.85) scale(0.68)">4</text>
<text transform="translate(84.48, 234.85)">ğ‘¥</text>
<text transform="translate(137.28, 208.45) scale(0.68)">4</text>
<text transform="translate(191.25, 234.85)">+</text>
<text transform="translate(278.35, 234.85)">ğ‘</text>
<text transform="translate(318.19, 258.85) scale(0.68)">3</text>
<text transform="translate(350.83, 234.85)">ğ‘¥</text>
<text transform="translate(403.63, 208.45) scale(0.68)">3</text>
<text transform="translate(457.60, 234.85)">+</text>
<text transform="translate(544.69, 234.85)">ğ‘</text>
<text transform="translate(584.53, 258.85) scale(0.68)">2</text>
<text transform="translate(617.17, 234.85)">ğ‘¥</text>
<text transform="translate(669.97, 208.45) scale(0.68)">2</text>
<text transform="translate(723.95, 234.85)">+</text>
<text transform="translate(811.04, 234.85)">ğ‘</text>
<text transform="translate(850.88, 258.85) scale(0.68)">1</text>
<text transform="translate(883.52, 234.85)">ğ‘¥</text>
<text transform="translate(957.65, 234.85)">+</text>
<text transform="translate(1044.75, 234.85)">ğ‘</text>
<text transform="translate(1084.59, 258.85) scale(0.68)">0</text>
</g>
</svg>

