<?xml version="1.0" encoding="UTF-8" standalone="no"?><!DOCTYPE svg PUBLIC "-//W3C//DTD SVG 1.1//EN" "http://www.w3.org/Graphics/SVG/1.1/DTD/svg11.dtd"><svg width="1129.2266666666667" height="323.40544000000006" xmlns="http://www.w3.org/2000/svg"><defs><style type="text/css">@font-face{font-family: rex;src: url('http://rex.breeden.cc/rex-xits.otf');}</style></defs><g font-family="rex" font-size="96.0px"><g transform="translate(12.00,5.00)">
<g transform="translate(0,0)">
<g transform="translate(0,0)">
<g transform="translate(454.72597333333334,0)">
<g transform="translate(0,0)">
<g transform="translate(0,0)" fill="gray"><g transform="translate(0,44.58624000000001)">
<g transform="scale(0.68)"><text>Q</text></g>
</g><g transform="translate(47.13216,44.58624000000001)">
<g transform="scale(0.68)"><text>u</text></g>
</g><g transform="translate(79.77216,44.58624000000001)">
<g transform="scale(0.68)"><text>a</text></g>
</g><g transform="translate(108.75648000000001,44.58624000000001)">
<g transform="scale(0.68)"><text>r</text></g>
</g><g transform="translate(130.49472000000003,44.58624000000001)">
<g transform="scale(0.68)"><text>t</text></g>
</g><g transform="translate(148.64256000000003,44.58624000000001)">
<g transform="scale(0.68)"><text>i</text></g>
</g><g transform="translate(166.79040000000003,44.58624000000001)">
<g transform="scale(0.68)"><text>c</text></g>
</g></g></g></g></g><g transform="translate(0,73.38624000000002)">
<g transform="translate(0,0)">
<g transform="translate(0,0)">
<g transform="translate(0,0)">
<g transform="translate(7.8719999999995025,0)">
<g transform="translate(0,130.17600000000002)">
<text>î§†</text></g>
<g transform="translate(76.0339649122807,130.17600000000002)">
<text>î§…</text></g>
<g transform="translate(97.1559298245614,130.17600000000002)">
<text>î§…</text></g>
<g transform="translate(118.2778947368421,130.17600000000002)">
<text>î§…</text></g>
<g transform="translate(139.3998596491228,130.17600000000002)">
<text>î§…</text></g>
<g transform="translate(160.5218245614035,130.17600000000002)">
<text>î§…</text></g>
<g transform="translate(181.6437894736842,130.17600000000002)">
<text>î§…</text></g>
<g transform="translate(202.7657543859649,130.17600000000002)">
<text>î§…</text></g>
<g transform="translate(223.8877192982456,130.17600000000002)">
<text>î§…</text></g>
<g transform="translate(245.0096842105263,130.17600000000002)">
<text>î§…</text></g>
<g transform="translate(266.131649122807,130.17600000000002)">
<text>î§…</text></g>
<g transform="translate(287.2536140350877,130.17600000000002)">
<text>î§…</text></g>
<g transform="translate(308.3755789473684,130.17600000000002)">
<text>î§…</text></g>
<g transform="translate(329.4975438596491,130.17600000000002)">
<text>î§…</text></g>
<g transform="translate(350.6195087719298,130.17600000000002)">
<text>î§…</text></g>
<g transform="translate(371.7414736842105,130.17600000000002)">
<text>î§…</text></g>
<g transform="translate(392.8634385964912,130.17600000000002)">
<text>î§…</text></g>
<g transform="translate(413.9854035087719,130.17600000000002)">
<text>î§…</text></g>
<g transform="translate(435.1073684210526,130.17600000000002)">
<text>î§…</text></g>
<g transform="translate(456.22933333333333,130.17600000000002)">
<text>î§‡</text></g>
<g transform="translate(623.175298245614,130.17600000000002)">
<text>î§…</text></g>
<g transform="translate(644.2972631578948,130.17600000000002)">
<text>î§…</text></g>
<g transform="translate(665.4192280701756,130.17600000000002)">
<text>î§…</text></g>
<g transform="translate(686.5411929824563,130.17600000000002)">
<text>î§…</text></g>
<g transform="translate(707.6631578947371,130.17600000000002)">
<text>î§…</text></g>
<g transform="translate(728.7851228070178,130.17600000000002)">
<text>î§…</text></g>
<g transform="translate(749.9070877192986,130.17600000000002)">
<text>î§…</text></g>
<g transform="translate(771.0290526315794,130.17600000000002)">
<text>î§…</text></g>
<g transform="translate(792.1510175438601,130.17600000000002)">
<text>î§…</text></g>
<g transform="translate(813.2729824561409,130.17600000000002)">
<text>î§…</text></g>
<g transform="translate(834.3949473684216,130.17600000000002)">
<text>î§…</text></g>
<g transform="translate(855.5169122807024,130.17600000000002)">
<text>î§…</text></g>
<g transform="translate(876.6388771929832,130.17600000000002)">
<text>î§…</text></g>
<g transform="translate(897.7608421052639,130.17600000000002)">
<text>î§…</text></g>
<g transform="translate(918.8828070175447,130.17600000000002)">
<text>î§…</text></g>
<g transform="translate(940.0047719298254,130.17600000000002)">
<text>î§…</text></g>
<g transform="translate(961.1267368421062,130.17600000000002)">
<text>î§…</text></g>
<g transform="translate(982.248701754387,130.17600000000002)">
<text>î§…</text></g>
<g transform="translate(1003.3706666666677,130.17600000000002)">
<text>î§ˆ</text></g>
</g></g><g transform="translate(0,86.97600000000001)">
<g transform="translate(0,0)">
<g transform="translate(0,28.19328)">
<g transform="translate(0,42.336)">
<text>ğ‘</text></g>
</g><g transform="translate(39.839999999999996,50.4)">
<g transform="translate(0,0)">
<g transform="translate(0,44.12928)">
<g transform="scale(0.68)"><text>4</text></g>
</g></g></g><g transform="translate(72.47999999999999,28.19328)">
<g transform="translate(0,42.336)">
<text>ğ‘¥</text></g>
</g><g transform="translate(125.28,0)">
<g transform="translate(0,0)">
<g transform="translate(0,44.12928)">
<g transform="scale(0.68)"><text>4</text></g>
</g></g></g><g transform="translate(179.25333333333336,70.52928)">
<text>+</text></g>
<g transform="translate(266.3466666666667,28.19328)">
<g transform="translate(0,42.336)">
<text>ğ‘</text></g>
</g><g transform="translate(306.18666666666667,50.4)">
<g transform="translate(0,0)">
<g transform="translate(0,44.12928)">
<g transform="scale(0.68)"><text>3</text></g>
</g></g></g><g transform="translate(338.82666666666665,28.19328)">
<g transform="translate(0,42.336)">
<text>ğ‘¥</text></g>
</g><g transform="translate(391.62666666666667,0)">
<g transform="translate(0,0)">
<g transform="translate(0,44.12928)">
<g transform="scale(0.68)"><text>3</text></g>
</g></g></g><g transform="translate(445.59999999999997,70.52928)">
<text>+</text></g>
<g transform="translate(532.6933333333333,28.19328)">
<g transform="translate(0,42.336)">
<text>ğ‘</text></g>
</g><g transform="translate(572.5333333333333,50.4)">
<g transform="translate(0,0)">
<g transform="translate(0,44.12928)">
<g transform="scale(0.68)"><text>2</text></g>
</g></g></g><g transform="translate(605.1733333333333,28.19328)">
<g transform="translate(0,42.336)">
<text>ğ‘¥</text></g>
</g><g transform="translate(657.9733333333332,0)">
<g transform="translate(0,0)">
<g transform="translate(0,44.12928)">
<g transform="scale(0.68)"><text>2</text></g>
</g></g></g><g transform="translate(711.9466666666666,70.52928)">
<text>+</text></g>
<g transform="translate(799.04,28.19328)">
<g transform="translate(0,42.336)">
<text>ğ‘</text></g>
</g><g transform="translate(838.88,50.4)">
<g transform="translate(0,0)">
<g transform="translate(0,44.12928)">
<g transform="scale(0.68)"><text>1</text></g>
</g></g></g><g transform="translate(871.52,70.52928)">
<text>ğ‘¥</text></g>
<g transform="translate(945.6533333333333,70.52928)">
<text>+</text></g>
<g transform="translate(1032.7466666666667,28.19328)">
<g transform="translate(0,42.336)">
<text>ğ‘</text></g>
</g><g transform="translate(1072.5866666666666,50.4)">
<g transform="translate(0,0)">
<g transform="translate(0,44.12928)">
<g transform="scale(0.68)"><text>0</text></g>
</g></g></g></g></g></g></g></g><g transform="translate(0,313.40544000000006)">
<g transform="translate(552.6133333333333,0)">
</g></g></g></g></g></svg>