<?xml version="1.0" encoding="UTF-8" standalone="no"?>
<!DOCTYPE svg PUBLIC "-//W3C//DTD SVG 1.1//EN" "http://www.w3.org/Graphics/SVG/1.1/DTD/svg11.dtd">
<svg width="1129.23" height="323.41" xmlns="http://www.w3.org/2000/svg">
    <defs>
    <style type="text/css">@font-face{font-family:rex;src:url('http://rex.breeden.cc/rex-xits.otf');}</style>
    </defs>
    <g font-family="rex" font-size="96.0px">
<g fill="gray">
<text transform="translate(466.73, 49.59) scale(0.68)">Q</text>
<text transform="translate(513.86, 49.59) scale(0.68)">u</text>
<text transform="translate(546.50, 49.59) scale(0.68)">a</text>
<text transform="translate(575.48, 49.59) scale(0.68)">r</text>
<text transform="translate(597.22, 49.59) scale(0.68)">t</text>
<text transform="translate(615.37, 49.59) scale(0.68)">i</text>
<text transform="translate(633.52, 49.59) scale(0.68)">c</text>
</g>
<text transform="translate(19.87, 208.56)">î§†</text>
<text transform="translate(95.91, 208.56)">î§…</text>
<text transform="translate(117.03, 208.56)">î§…</text>
<text transform="translate(138.15, 208.56)">î§…</text>
<text transform="translate(159.27, 208.56)">î§…</text>
<text transform="translate(180.39, 208.56)">î§…</text>
<text transform="translate(201.52, 208.56)">î§…</text>
<text transform="translate(222.64, 208.56)">î§…</text>
<text transform="translate(243.76, 208.56)">î§…</text>
<text transform="translate(264.88, 208.56)">î§…</text>
<text transform="translate(286.00, 208.56)">î§…</text>
<text transform="translate(307.13, 208.56)">î§…</text>
<text transform="translate(328.25, 208.56)">î§…</text>
<text transform="translate(349.37, 208.56)">î§…</text>
<text transform="translate(370.49, 208.56)">î§…</text>
<text transform="translate(391.61, 208.56)">î§…</text>
<text transform="translate(412.74, 208.56)">î§…</text>
<text transform="translate(433.86, 208.56)">î§…</text>
<text transform="translate(454.98, 208.56)">î§…</text>
<text transform="translate(476.10, 208.56)">î§‡</text>
<text transform="translate(643.05, 208.56)">î§…</text>
<text transform="translate(664.17, 208.56)">î§…</text>
<text transform="translate(685.29, 208.56)">î§…</text>
<text transform="translate(706.41, 208.56)">î§…</text>
<text transform="translate(727.54, 208.56)">î§…</text>
<text transform="translate(748.66, 208.56)">î§…</text>
<text transform="translate(769.78, 208.56)">î§…</text>
<text transform="translate(790.90, 208.56)">î§…</text>
<text transform="translate(812.02, 208.56)">î§…</text>
<text transform="translate(833.14, 208.56)">î§…</text>
<text transform="translate(854.27, 208.56)">î§…</text>
<text transform="translate(875.39, 208.56)">î§…</text>
<text transform="translate(896.51, 208.56)">î§…</text>
<text transform="translate(917.63, 208.56)">î§…</text>
<text transform="translate(938.75, 208.56)">î§…</text>
<text transform="translate(959.88, 208.56)">î§…</text>
<text transform="translate(981.00, 208.56)">î§…</text>
<text transform="translate(1002.12, 208.56)">î§…</text>
<text transform="translate(1023.24, 208.56)">î§ˆ</text>
<text transform="translate(12.00, 235.89)">ğ‘</text>
<text transform="translate(51.84, 259.89) scale(0.68)">4</text>
<text transform="translate(84.48, 235.89)">ğ‘¥</text>
<text transform="translate(137.28, 209.49) scale(0.68)">4</text>
<text transform="translate(191.25, 235.89)">+</text>
<text transform="translate(278.35, 235.89)">ğ‘</text>
<text transform="translate(318.19, 259.89) scale(0.68)">3</text>
<text transform="translate(350.83, 235.89)">ğ‘¥</text>
<text transform="translate(403.63, 209.49) scale(0.68)">3</text>
<text transform="translate(457.60, 235.89)">+</text>
<text transform="translate(544.69, 235.89)">ğ‘</text>
<text transform="translate(584.53, 259.89) scale(0.68)">2</text>
<text transform="translate(617.17, 235.89)">ğ‘¥</text>
<text transform="translate(669.97, 209.49) scale(0.68)">2</text>
<text transform="translate(723.95, 235.89)">+</text>
<text transform="translate(811.04, 235.89)">ğ‘</text>
<text transform="translate(850.88, 259.89) scale(0.68)">1</text>
<text transform="translate(883.52, 235.89)">ğ‘¥</text>
<text transform="translate(957.65, 235.89)">+</text>
<text transform="translate(1044.75, 235.89)">ğ‘</text>
<text transform="translate(1084.59, 259.89) scale(0.68)">0</text>
</g>
</svg>

