<?xml version="1.0" encoding="UTF-8" standalone="no"?>
<!DOCTYPE svg PUBLIC "-//W3C//DTD SVG 1.1//EN" "http://www.w3.org/Graphics/SVG/1.1/DTD/svg11.dtd">
<svg width="1123.95" height="323.41" xmlns="http://www.w3.org/2000/svg">
    <defs>
    <style type="text/css">@font-face{font-family:rex;src:url('http://rex.breeden.cc/rex-xits.otf');}</style>
    </defs>
    <g font-family="rex" font-size="96.0px"><g transform="translate(12.00 5.00)"><g transform="translate(452.09 0.00)"><g fill="gray"><g transform="translate(0.00 44.59)"><text transform="scale(0.68)">Q</text></g><g transform="translate(47.13 44.59)"><text transform="scale(0.68)">u</text></g><g transform="translate(79.77 44.59)"><text transform="scale(0.68)">a</text></g><g transform="translate(108.76 44.59)"><text transform="scale(0.68)">r</text></g><g transform="translate(130.49 44.59)"><text transform="scale(0.68)">t</text></g><g transform="translate(148.64 44.59)"><text transform="scale(0.68)">i</text></g><g transform="translate(166.79 44.59)"><text transform="scale(0.68)">c</text></g></g></g><g transform="translate(0.00 73.39)"><g transform="translate(7.87 0.00)"><g transform="translate(0.00 130.18)"><text></text></g><g transform="translate(75.90 130.18)"><text></text></g><g transform="translate(96.88 130.18)"><text></text></g><g transform="translate(117.86 130.18)"><text></text></g><g transform="translate(138.84 130.18)"><text></text></g><g transform="translate(159.83 130.18)"><text></text></g><g transform="translate(180.81 130.18)"><text></text></g><g transform="translate(201.79 130.18)"><text></text></g><g transform="translate(222.78 130.18)"><text></text></g><g transform="translate(243.76 130.18)"><text></text></g><g transform="translate(264.74 130.18)"><text></text></g><g transform="translate(285.73 130.18)"><text></text></g><g transform="translate(306.71 130.18)"><text></text></g><g transform="translate(327.69 130.18)"><text></text></g><g transform="translate(348.67 130.18)"><text></text></g><g transform="translate(369.66 130.18)"><text></text></g><g transform="translate(390.64 130.18)"><text></text></g><g transform="translate(411.62 130.18)"><text></text></g><g transform="translate(432.61 130.18)"><text></text></g><g transform="translate(453.59 130.18)"><text></text></g><g transform="translate(620.40 130.18)"><text></text></g><g transform="translate(641.38 130.18)"><text></text></g><g transform="translate(662.36 130.18)"><text></text></g><g transform="translate(683.35 130.18)"><text></text></g><g transform="translate(704.33 130.18)"><text></text></g><g transform="translate(725.31 130.18)"><text></text></g><g transform="translate(746.29 130.18)"><text></text></g><g transform="translate(767.28 130.18)"><text></text></g><g transform="translate(788.26 130.18)"><text></text></g><g transform="translate(809.24 130.18)"><text></text></g><g transform="translate(830.23 130.18)"><text></text></g><g transform="translate(851.21 130.18)"><text></text></g><g transform="translate(872.19 130.18)"><text></text></g><g transform="translate(893.18 130.18)"><text></text></g><g transform="translate(914.16 130.18)"><text></text></g><g transform="translate(935.14 130.18)"><text></text></g><g transform="translate(956.12 130.18)"><text></text></g><g transform="translate(977.11 130.18)"><text></text></g><g transform="translate(998.09 130.18)"><text></text></g></g><g transform="translate(0.00 86.98)"><g transform="translate(0.00 26.37)"><g transform="translate(0.00 44.16)"><text>c</text></g></g><g transform="translate(42.62 50.40)"><g transform="translate(0.00 44.13)"><text transform="scale(0.68)">4</text></g></g><g transform="translate(75.26 27.33)"><g transform="translate(0.00 43.20)"><text>x</text></g></g><g transform="translate(123.26 0.00)"><g transform="translate(0.00 44.13)"><text transform="scale(0.68)">4</text></g></g><g transform="translate(177.24 70.53)"><text>+</text></g><g transform="translate(264.33 26.37)"><g transform="translate(0.00 44.16)"><text>c</text></g></g><g transform="translate(306.95 50.40)"><g transform="translate(0.00 44.13)"><text transform="scale(0.68)">3</text></g></g><g transform="translate(339.59 27.33)"><g transform="translate(0.00 43.20)"><text>x</text></g></g><g transform="translate(387.59 0.00)"><g transform="translate(0.00 44.13)"><text transform="scale(0.68)">3</text></g></g><g transform="translate(441.57 70.53)"><text>+</text></g><g transform="translate(528.66 26.37)"><g transform="translate(0.00 44.16)"><text>c</text></g></g><g transform="translate(571.29 50.40)"><g transform="translate(0.00 44.13)"><text transform="scale(0.68)">2</text></g></g><g transform="translate(603.93 27.33)"><g transform="translate(0.00 43.20)"><text>x</text></g></g><g transform="translate(651.93 0.00)"><g transform="translate(0.00 44.13)"><text transform="scale(0.68)">2</text></g></g><g transform="translate(705.90 70.53)"><text>+</text></g><g transform="translate(792.99 26.37)"><g transform="translate(0.00 44.16)"><text>c</text></g></g><g transform="translate(835.62 50.40)"><g transform="translate(0.00 44.13)"><text transform="scale(0.68)">1</text></g></g><g transform="translate(868.26 70.53)"><text>x</text></g><g transform="translate(937.59 70.53)"><text>+</text></g><g transform="translate(1024.68 26.37)"><g transform="translate(0.00 44.16)"><text>c</text></g></g><g transform="translate(1067.31 50.40)"><g transform="translate(0.00 44.13)"><text transform="scale(0.68)">0</text></g></g></g></g><g transform="translate(0.00 313.41)"><g transform="translate(549.97 0.00)"></g></g></g></g>
</svg>
