<?xml version="1.0" encoding="UTF-8" standalone="no"?>
<!DOCTYPE svg PUBLIC "-//W3C//DTD SVG 1.1//EN" "http://www.w3.org/Graphics/SVG/1.1/DTD/svg11.dtd">
<svg width="1105.296" height="313.46025" viewBox="0 0 11513 3265" xmlns="http://www.w3.org/2000/svg">
    <defs>
    <style type="text/css">@font-face{font-family:rex;src:url('http://rex.breeden.cc/rex-xits.otf');}</style>
    </defs>
    <g font-family="rex" font-size="1000">
<g fill="gray">
<text transform="translate(4737, 464) scale(0.68)">Q</text>
<text transform="translate(5228, 464) scale(0.68)">u</text>
<text transform="translate(5568, 464) scale(0.68)">a</text>
<text transform="translate(5869, 464) scale(0.68)">r</text>
<text transform="translate(6096, 464) scale(0.68)">t</text>
<text transform="translate(6285, 464) scale(0.68)">i</text>
<text transform="translate(6474, 464) scale(0.68)">c</text>
</g>
<text transform="translate(83, 2120)">î§†</text>
<text transform="translate(875, 2120)">î§…</text>
<text transform="translate(1095, 2120)">î§…</text>
<text transform="translate(1315, 2120)">î§…</text>
<text transform="translate(1534, 2120)">î§…</text>
<text transform="translate(1754, 2120)">î§…</text>
<text transform="translate(1974, 2120)">î§…</text>
<text transform="translate(2194, 2120)">î§…</text>
<text transform="translate(2414, 2120)">î§…</text>
<text transform="translate(2634, 2120)">î§…</text>
<text transform="translate(2854, 2120)">î§…</text>
<text transform="translate(3074, 2120)">î§…</text>
<text transform="translate(3294, 2120)">î§…</text>
<text transform="translate(3514, 2120)">î§…</text>
<text transform="translate(3734, 2120)">î§…</text>
<text transform="translate(3954, 2120)">î§…</text>
<text transform="translate(4174, 2120)">î§…</text>
<text transform="translate(4394, 2120)">î§…</text>
<text transform="translate(4614, 2120)">î§…</text>
<text transform="translate(4834, 2120)">î§‡</text>
<text transform="translate(6573, 2120)">î§…</text>
<text transform="translate(6793, 2120)">î§…</text>
<text transform="translate(7013, 2120)">î§…</text>
<text transform="translate(7233, 2120)">î§…</text>
<text transform="translate(7453, 2120)">î§…</text>
<text transform="translate(7673, 2120)">î§…</text>
<text transform="translate(7893, 2120)">î§…</text>
<text transform="translate(8113, 2120)">î§…</text>
<text transform="translate(8333, 2120)">î§…</text>
<text transform="translate(8553, 2120)">î§…</text>
<text transform="translate(8773, 2120)">î§…</text>
<text transform="translate(8993, 2120)">î§…</text>
<text transform="translate(9213, 2120)">î§…</text>
<text transform="translate(9433, 2120)">î§…</text>
<text transform="translate(9653, 2120)">î§…</text>
<text transform="translate(9873, 2120)">î§…</text>
<text transform="translate(10093, 2120)">î§…</text>
<text transform="translate(10313, 2120)">î§…</text>
<text transform="translate(10533, 2120)">î§ˆ</text>
<text transform="translate(1, 2405)">ğ‘</text>
<text transform="translate(416, 2655) scale(0.68)">4</text>
<text transform="translate(755, 2405)">ğ‘¥</text>
<text transform="translate(1305, 2130) scale(0.68)">4</text>
<text transform="translate(1867, 2405)">+</text>
<text transform="translate(2775, 2405)">ğ‘</text>
<text transform="translate(3190, 2655) scale(0.68)">3</text>
<text transform="translate(3529, 2405)">ğ‘¥</text>
<text transform="translate(4079, 2130) scale(0.68)">3</text>
<text transform="translate(4642, 2405)">+</text>
<text transform="translate(5549, 2405)">ğ‘</text>
<text transform="translate(5964, 2655) scale(0.68)">2</text>
<text transform="translate(6304, 2405)">ğ‘¥</text>
<text transform="translate(6854, 2130) scale(0.68)">2</text>
<text transform="translate(7416, 2405)">+</text>
<text transform="translate(8323, 2405)">ğ‘</text>
<text transform="translate(8738, 2655) scale(0.68)">1</text>
<text transform="translate(9078, 2405)">ğ‘¥</text>
<text transform="translate(9850, 2405)">+</text>
<text transform="translate(10757, 2405)">ğ‘</text>
<text transform="translate(11172, 2655) scale(0.68)">0</text>
</g>
</svg>

