<?xml version="1.0" encoding="UTF-8" standalone="no"?><!DOCTYPE svg PUBLIC "-//W3C//DTD SVG 1.1//EN" "http://www.w3.org/Graphics/SVG/1.1/DTD/svg11.dtd"><svg width="1411.8186666666666" height="279.49120000000005" xmlns="http://www.w3.org/2000/svg"><defs><style type="text/css">@font-face{font-family: rex;src: url('http://rex.breeden.cc/rex-xits.otf');}</style></defs><g font-family="rex" font-size="96.0px"><g transform="translate(12.00,5.00)">
<g transform="translate(1.6,43.87200000000007)">
<g transform="translate(0,0)">
<g transform="translate(0.04800000000000182,64.896)">
<text>1</text></g>
</g><rect x="0" y="93.40799999999999" width="48.096000000000004" height="6.336" fill="#000"/><g transform="translate(0,144.57599999999996)">
<g transform="translate(0,43.2)">
<text>Ï€</text></g>
</g></g><g transform="translate(83.296,164.44800000000004)">
<text>=</text></g>
<g transform="translate(182.656,0)">
<g transform="translate(0,0)">
<g transform="translate(3.455999999999989,98.688)">
<text>2</text></g>
<g transform="translate(51.45599999999999,0)">
<g transform="translate(0,93.408)">
<text>âˆš</text></g>
</g><g transform="translate(140.54399999999998,0)">
<rect x="0" y="0" width="48" height="6.336" fill="#000"/><g transform="translate(0,33.792)">
<g transform="translate(0,64.896)">
<text>2</text></g>
</g></g></g><rect x="0" y="137.28" width="192" height="6.336" fill="#000"/><g transform="translate(0,166.752)">
<g transform="translate(0,64.896)">
<text>9</text></g>
<g transform="translate(48,64.896)">
<text>8</text></g>
<g transform="translate(96,64.896)">
<text>0</text></g>
<g transform="translate(144,64.896)">
<text>1</text></g>
</g></g><g transform="translate(392.25600000000003,13.977600000000052)">
<g transform="translate(0,0)">
<g transform="translate(31.791360000000005,0)">
<g transform="translate(0,28.070400000000003)">
<g transform="scale(0.68)"><text>âˆ</text></g>
</g></g></g><g transform="translate(0,56.870400000000004)">
<g transform="translate(0,0)">
<g transform="translate(0,143.904)">
<text>î£¾</text></g>
</g></g><g transform="translate(0,210.47039999999998)">
<g transform="translate(5.646719999999995,0)">
<g transform="translate(0,0)">
<g transform="translate(0,44.12928)">
<g transform="scale(0.68)"><text>ğ‘˜</text></g>
</g><g transform="translate(35.38176000000001,44.12928)">
<g transform="scale(0.68)"><text>=</text></g>
</g><g transform="translate(80.09856000000002,44.12928)">
<g transform="scale(0.68)"><text>0</text></g>
</g></g></g></g></g><g transform="translate(533.888,35.61600000000004)">
<g transform="translate(0,0)">
<g transform="translate(0,65.664)">
<text>(</text></g>
<g transform="translate(31.968000000000004,65.664)">
<text>4</text></g>
<g transform="translate(79.968,65.664)">
<text>ğ‘˜</text></g>
<g transform="translate(132,65.664)">
<text>)</text></g>
<g transform="translate(163.96800000000002,65.664)">
<text>!</text></g>
<g transform="translate(195.93600000000004,65.664)">
<text>(</text></g>
<g transform="translate(227.90400000000005,65.664)">
<text>1</text></g>
<g transform="translate(275.90400000000005,65.664)">
<text>1</text></g>
<g transform="translate(323.90400000000005,65.664)">
<text>0</text></g>
<g transform="translate(371.90400000000005,65.664)">
<text>3</text></g>
<g transform="translate(441.23733333333337,65.664)">
<text>+</text></g>
<g transform="translate(528.3306666666667,65.664)">
<text>2</text></g>
<g transform="translate(576.3306666666667,65.664)">
<text>6</text></g>
<g transform="translate(624.3306666666667,65.664)">
<text>3</text></g>
<g transform="translate(672.3306666666667,65.664)">
<text>9</text></g>
<g transform="translate(720.3306666666667,65.664)">
<text>0</text></g>
<g transform="translate(768.3306666666667,65.664)">
<text>ğ‘˜</text></g>
<g transform="translate(820.3626666666668,65.664)">
<text>)</text></g>
</g><rect x="0" y="101.664" width="852.3306666666667" height="6.336" fill="#000"/><g transform="translate(0,127.00800000000001)">
<g transform="translate(229.86645333333337,73.79328000000001)">
<text>(</text></g>
<g transform="translate(261.8344533333334,73.79328000000001)">
<text>ğ‘˜</text></g>
<g transform="translate(313.86645333333337,73.79328000000001)">
<text>!</text></g>
<g transform="translate(345.8344533333334,8.89728000000001)">
<g transform="translate(0,64.896)">
<text>)</text></g>
</g><g transform="translate(377.8024533333334,0.7680000000000007)">
<g transform="translate(0,0)">
<g transform="translate(0,44.12928)">
<g transform="scale(0.68)"><text>4</text></g>
</g></g></g><g transform="translate(410.4424533333334,73.79328000000001)">
<text>3</text></g>
<g transform="translate(458.4424533333334,73.79328000000001)">
<text>9</text></g>
<g transform="translate(506.4424533333334,8.129280000000008)">
<g transform="translate(0,65.664)">
<text>6</text></g>
</g><g transform="translate(554.4424533333333,0)">
<g transform="translate(0,0)">
<g transform="translate(0,0)">
<g transform="translate(0,44.12928)">
<g transform="scale(0.68)"><text>4</text></g>
</g><g transform="translate(32.64,44.12928)">
<g transform="scale(0.68)"><text>ğ‘˜</text></g>
</g></g></g></g></g></g></g></g></svg>