<?xml version="1.0" encoding="UTF-8" standalone="no"?>
<!DOCTYPE svg PUBLIC "-//W3C//DTD SVG 1.1//EN" "http://www.w3.org/Graphics/SVG/1.1/DTD/svg11.dtd">
<svg width="1411.82" height="279.49" xmlns="http://www.w3.org/2000/svg">
    <defs>
    <style type="text/css">@font-face{font-family:rex;src:url('http://rex.breeden.cc/rex-xits.otf');}</style>
    </defs>
    <g font-family="rex" font-size="96.0px">
<text transform="translate(13.65, 113.77)">1</text>
<rect x="13.60" y ="142.28" width="48.10" height="6.34" fill="#000"/>
<text transform="translate(13.60, 236.65)">Ï€</text>
<text transform="translate(95.30, 169.45)">=</text>
<text transform="translate(198.11, 103.69)">2</text>
<text transform="translate(246.11, 98.41)">âˆš</text>
<rect x="335.20" y ="5.00" width="48.00" height="6.34" fill="#000"/>
<text transform="translate(335.20, 103.69)">2</text>
<rect x="194.66" y ="142.28" width="192.00" height="6.34" fill="#000"/>
<text transform="translate(194.66, 236.65)">9</text>
<text transform="translate(242.66, 236.65)">8</text>
<text transform="translate(290.66, 236.65)">0</text>
<text transform="translate(338.66, 236.65)">1</text>
<text transform="translate(436.05, 47.05) scale(0.68)">âˆ</text>
<text transform="translate(404.26, 219.75)">î£¾</text>
<text transform="translate(409.90, 273.58) scale(0.68)">ğ‘˜</text>
<text transform="translate(445.28, 273.58) scale(0.68)">=</text>
<text transform="translate(490.00, 273.58) scale(0.68)">0</text>
<text transform="translate(545.89, 106.28)">(</text>
<text transform="translate(577.86, 106.28)">4</text>
<text transform="translate(625.86, 106.28)">ğ‘˜</text>
<text transform="translate(677.89, 106.28)">)</text>
<text transform="translate(709.86, 106.28)">!</text>
<text transform="translate(741.82, 106.28)">(</text>
<text transform="translate(773.79, 106.28)">1</text>
<text transform="translate(821.79, 106.28)">1</text>
<text transform="translate(869.79, 106.28)">0</text>
<text transform="translate(917.79, 106.28)">3</text>
<text transform="translate(987.13, 106.28)">+</text>
<text transform="translate(1074.22, 106.28)">2</text>
<text transform="translate(1122.22, 106.28)">6</text>
<text transform="translate(1170.22, 106.28)">3</text>
<text transform="translate(1218.22, 106.28)">9</text>
<text transform="translate(1266.22, 106.28)">0</text>
<text transform="translate(1314.22, 106.28)">ğ‘˜</text>
<text transform="translate(1366.25, 106.28)">)</text>
<rect x="545.89" y ="142.28" width="852.33" height="6.34" fill="#000"/>
<text transform="translate(775.75, 241.42)">(</text>
<text transform="translate(807.72, 241.42)">ğ‘˜</text>
<text transform="translate(859.75, 241.42)">!</text>
<text transform="translate(891.72, 241.42)">)</text>
<text transform="translate(923.69, 212.52) scale(0.68)">4</text>
<text transform="translate(956.33, 241.42)">3</text>
<text transform="translate(1004.33, 241.42)">9</text>
<text transform="translate(1052.33, 241.42)">6</text>
<text transform="translate(1100.33, 211.75) scale(0.68)">4</text>
<text transform="translate(1132.97, 211.75) scale(0.68)">ğ‘˜</text>
</g>
</svg>

