<?xml version="1.0" encoding="UTF-8" standalone="no"?>
<!DOCTYPE svg PUBLIC "-//W3C//DTD SVG 1.1//EN" "http://www.w3.org/Graphics/SVG/1.1/DTD/svg11.dtd">
<svg width="1489.28925" height="288.6705" viewBox="0 0 15513 3006" xmlns="http://www.w3.org/2000/svg">
    <defs>
    <style type="text/css">@font-face{font-family:rex;src:url('http://rex.breeden.cc/rex-xits.otf');}</style>
    </defs>
    <g font-family="rex" font-size="1000">
<text transform="translate(379, 1233)">1</text>
<rect x="350" y ="1530" width="558" height="66" fill="#000"/>
<text transform="translate(350, 2513)">ğœ‹</text>
<text transform="translate(1341, 1813)">=</text>
<text transform="translate(2495, 1128)">2</text>
<text transform="translate(2995, 1073)">âˆš</text>
<rect x="3923" y ="100" width="500" height="66" fill="#000"/>
<text transform="translate(3923, 1128)">2</text>
<rect x="2459" y ="1530" width="2000" height="66" fill="#000"/>
<text transform="translate(2459, 2513)">9</text>
<text transform="translate(2959, 2513)">8</text>
<text transform="translate(3459, 2513)">0</text>
<text transform="translate(3959, 2513)">1</text>
<text transform="translate(5057, 538) scale(0.68)">âˆ</text>
<text transform="translate(4726, 2337)">î£¾</text>
<text transform="translate(4785, 2897) scale(0.68)">ğ‘˜</text>
<text transform="translate(5153, 2897) scale(0.68)">=</text>
<text transform="translate(5619, 2897) scale(0.68)">0</text>
<text transform="translate(6284, 1155)">(</text>
<text transform="translate(6617, 1155)">4</text>
<text transform="translate(7117, 1155)">ğ‘˜</text>
<text transform="translate(7659, 1155)">)</text>
<text transform="translate(7992, 1155)">!</text>
<text transform="translate(8325, 1155)">(</text>
<text transform="translate(8658, 1155)">1</text>
<text transform="translate(9158, 1155)">1</text>
<text transform="translate(9658, 1155)">0</text>
<text transform="translate(10158, 1155)">3</text>
<text transform="translate(10881, 1155)">+</text>
<text transform="translate(11788, 1155)">2</text>
<text transform="translate(12288, 1155)">6</text>
<text transform="translate(12788, 1155)">3</text>
<text transform="translate(13288, 1155)">9</text>
<text transform="translate(13788, 1155)">0</text>
<text transform="translate(14288, 1155)">ğ‘˜</text>
<text transform="translate(14830, 1155)">)</text>
<rect x="6284" y ="1530" width="8878" height="66" fill="#000"/>
<text transform="translate(8679, 2562)">(</text>
<text transform="translate(9012, 2562)">ğ‘˜</text>
<text transform="translate(9554, 2562)">!</text>
<text transform="translate(9887, 2562)">)</text>
<text transform="translate(10220, 2261) scale(0.68)">4</text>
<text transform="translate(10560, 2562)">3</text>
<text transform="translate(11060, 2562)">9</text>
<text transform="translate(11560, 2562)">6</text>
<text transform="translate(12060, 2253) scale(0.68)">4</text>
<text transform="translate(12400, 2253) scale(0.68)">ğ‘˜</text>
</g>
</svg>

