<?xml version="1.0" encoding="UTF-8" standalone="no"?>
<!DOCTYPE svg PUBLIC "-//W3C//DTD SVG 1.1//EN" "http://www.w3.org/Graphics/SVG/1.1/DTD/svg11.dtd">
<svg width="1403.75" height="279.95" xmlns="http://www.w3.org/2000/svg">
    <defs>
    <style type="text/css">@font-face{font-family:rex;src:url('http://rex.breeden.cc/rex-xits.otf');}</style>
    </defs>
    <g font-family="rex" font-size="96.0px"><g transform="translate(12.00 5.00)"><g transform="translate(1.60 43.87)"><g transform="translate(0.05 64.90)"><text>1</text></g><rect x="0.00" y ="93.41" width="48.10" height="6.34" fill="#000"/><g transform="translate(0.00 144.58)"><g transform="translate(0.00 43.20)"><text>π</text></g></g></g><g transform="translate(83.30 164.45)"><text>=</text></g><g transform="translate(182.66 0.00)"><g transform="translate(3.46 98.69)"><text>2</text></g><g transform="translate(51.46 0.00)"><g transform="translate(0.00 93.41)"><text>√</text></g></g><g transform="translate(140.54 0.00)"><rect x="0.00" y ="0.00" width="48.00" height="6.34" fill="#000"/><g transform="translate(0.00 33.79)"><g transform="translate(0.00 64.90)"><text>2</text></g></g></g><rect x="0.00" y ="137.28" width="192.00" height="6.34" fill="#000"/><g transform="translate(0.00 166.75)"><g transform="translate(0.00 64.90)"><text>9</text></g><g transform="translate(48.00 64.90)"><text>8</text></g><g transform="translate(96.00 64.90)"><text>0</text></g><g transform="translate(144.00 64.90)"><text>1</text></g></g></g><g transform="translate(392.26 13.98)"><g transform="translate(31.79 0.00)"><g transform="translate(0.00 28.07)"><text transform="scale(0.68)">∞</text></g></g><g transform="translate(0.00 56.87)"><g transform="translate(0.00 143.90)"><text></text></g></g><g transform="translate(0.00 210.47)"><g transform="translate(7.02 0.00)"><g transform="translate(0.00 44.59)"><text transform="scale(0.68)">k</text></g><g transform="translate(32.64 44.59)"><text transform="scale(0.68)">=</text></g><g transform="translate(77.36 44.59)"><text transform="scale(0.68)">0</text></g></g></g></g><g transform="translate(533.89 35.62)"><g transform="translate(0.00 65.66)"><text>(</text></g><g transform="translate(31.97 65.66)"><text>4</text></g><g transform="translate(79.97 65.66)"><text>k</text></g><g transform="translate(127.97 65.66)"><text>)</text></g><g transform="translate(159.94 65.66)"><text>!</text></g><g transform="translate(191.90 65.66)"><text>(</text></g><g transform="translate(223.87 65.66)"><text>1</text></g><g transform="translate(271.87 65.66)"><text>1</text></g><g transform="translate(319.87 65.66)"><text>0</text></g><g transform="translate(367.87 65.66)"><text>3</text></g><g transform="translate(437.21 65.66)"><text>+</text></g><g transform="translate(524.30 65.66)"><text>2</text></g><g transform="translate(572.30 65.66)"><text>6</text></g><g transform="translate(620.30 65.66)"><text>3</text></g><g transform="translate(668.30 65.66)"><text>9</text></g><g transform="translate(716.30 65.66)"><text>0</text></g><g transform="translate(764.30 65.66)"><text>k</text></g><g transform="translate(812.30 65.66)"><text>)</text></g><rect x="0.00" y ="101.66" width="844.27" height="6.34" fill="#000"/><g transform="translate(0.00 127.01)"><g transform="translate(229.22 74.25)"><text>(</text></g><g transform="translate(261.19 74.25)"><text>k</text></g><g transform="translate(309.19 74.25)"><text>!</text></g><g transform="translate(341.16 9.35)"><g transform="translate(0.00 64.90)"><text>)</text></g></g><g transform="translate(373.13 1.22)"><g transform="translate(0.00 44.13)"><text transform="scale(0.68)">4</text></g></g><g transform="translate(405.77 74.25)"><text>3</text></g><g transform="translate(453.77 74.25)"><text>9</text></g><g transform="translate(501.77 8.59)"><g transform="translate(0.00 65.66)"><text>6</text></g></g><g transform="translate(549.77 0.00)"><g transform="translate(0.00 44.59)"><text transform="scale(0.68)">4</text></g><g transform="translate(32.64 44.59)"><text transform="scale(0.68)">k</text></g></g></g></g></g></g>
</svg>
