<?xml version="1.0" encoding="UTF-8" standalone="no"?>
<!DOCTYPE svg PUBLIC "-//W3C//DTD SVG 1.1//EN" "http://www.w3.org/Graphics/SVG/1.1/DTD/svg11.dtd">
<svg width="1441.4812499999998" height="269.5665" viewBox="0 0 15015 2807" xmlns="http://www.w3.org/2000/svg">
    <defs>
    <style type="text/css">@font-face{font-family:rex;src:url('http://rex.breeden.cc/rex-xits.otf');}</style>
    </defs>
    <g font-family="rex" font-size="1000">
<text transform="translate(130, 1133)">1</text>
<rect x="101" y ="1430" width="558" height="66" fill="#000"/>
<text transform="translate(101, 2413)">ğœ‹</text>
<text transform="translate(1092, 1713)">=</text>
<text transform="translate(2246, 1028)">2</text>
<text transform="translate(2746, 973)">âˆš</text>
<rect x="3674" y ="0" width="500" height="66" fill="#000"/>
<text transform="translate(3674, 1028)">2</text>
<rect x="2210" y ="1430" width="2000" height="66" fill="#000"/>
<text transform="translate(2210, 2413)">9</text>
<text transform="translate(2710, 2413)">8</text>
<text transform="translate(3210, 2413)">0</text>
<text transform="translate(3710, 2413)">1</text>
<text transform="translate(4808, 438) scale(0.68)">âˆ</text>
<text transform="translate(4477, 2237)">î£¾</text>
<text transform="translate(4536, 2797) scale(0.68)">ğ‘˜</text>
<text transform="translate(4904, 2797) scale(0.68)">=</text>
<text transform="translate(5370, 2797) scale(0.68)">0</text>
<text transform="translate(6035, 1055)">(</text>
<text transform="translate(6368, 1055)">4</text>
<text transform="translate(6868, 1055)">ğ‘˜</text>
<text transform="translate(7410, 1055)">)</text>
<text transform="translate(7743, 1055)">!</text>
<text transform="translate(8076, 1055)">(</text>
<text transform="translate(8409, 1055)">1</text>
<text transform="translate(8909, 1055)">1</text>
<text transform="translate(9409, 1055)">0</text>
<text transform="translate(9909, 1055)">3</text>
<text transform="translate(10632, 1055)">+</text>
<text transform="translate(11539, 1055)">2</text>
<text transform="translate(12039, 1055)">6</text>
<text transform="translate(12539, 1055)">3</text>
<text transform="translate(13039, 1055)">9</text>
<text transform="translate(13539, 1055)">0</text>
<text transform="translate(14039, 1055)">ğ‘˜</text>
<text transform="translate(14581, 1055)">)</text>
<rect x="6035" y ="1430" width="8878" height="66" fill="#000"/>
<text transform="translate(8430, 2462)">(</text>
<text transform="translate(8763, 2462)">ğ‘˜</text>
<text transform="translate(9305, 2462)">!</text>
<text transform="translate(9638, 2462)">)</text>
<text transform="translate(9971, 2161) scale(0.68)">4</text>
<text transform="translate(10311, 2462)">3</text>
<text transform="translate(10811, 2462)">9</text>
<text transform="translate(11311, 2462)">6</text>
<text transform="translate(11811, 2153) scale(0.68)">4</text>
<text transform="translate(12151, 2153) scale(0.68)">ğ‘˜</text>
</g>
</svg>

