<?xml version="1.0" encoding="UTF-8" standalone="no"?><!DOCTYPE svg PUBLIC "-//W3C//DTD SVG 1.1//EN" "http://www.w3.org/Graphics/SVG/1.1/DTD/svg11.dtd"><svg width="863.3847466666666" height="305.20000000000005" xmlns="http://www.w3.org/2000/svg"><defs><style type="text/css">@font-face{font-family: rex;src: url('http://rex.breeden.cc/rex-xits.otf');}</style></defs><g font-family="rex" font-size="96.0px"><g transform="translate(12.00,5.00)">
<g transform="translate(0,189.78624000000002)">
<text>Ïƒ</text></g>
<g transform="translate(84.608,189.78624000000002)">
<text>=</text></g>
<g transform="translate(182.368,0)">
<g transform="translate(0,246.24)">
<text>î¤‹</text></g>
</g><g transform="translate(285.664,0)">
<rect x="0" y="0" width="553.7207466666666" height="6.336" fill="#000"/><g transform="translate(0,24.75839999999998)">
<g transform="translate(1.6,44.45184000000006)">
<g transform="translate(0,0)">
<g transform="translate(16.848,64.896)">
<text>1</text></g>
</g><rect x="0" y="93.40799999999999" width="81.696" height="6.336" fill="#000"/><g transform="translate(0,125.08799999999997)">
<g transform="translate(0,62.688)">
<text>ğ‘</text></g>
</g></g><g transform="translate(100.89599999999999,0)">
<g transform="translate(0,0)">
<g transform="translate(34.239360000000005,0)">
<g transform="translate(0,42.627840000000006)">
<g transform="scale(0.68)"><text>ğ‘</text></g>
</g></g></g><g transform="translate(0,71.42784)">
<g transform="translate(0,0)">
<g transform="translate(0,143.904)">
<text>î£¾</text></g>
</g></g><g transform="translate(0,225.02784)">
<g transform="translate(13.18656,0)">
<g transform="translate(0,0)">
<g transform="translate(0,44.12928)">
<g transform="scale(0.68)"><text>ğ‘–</text></g>
</g><g transform="translate(20.302080000000004,44.12928)">
<g transform="scale(0.68)"><text>=</text></g>
</g><g transform="translate(65.01888000000001,44.12928)">
<g transform="scale(0.68)"><text>1</text></g>
</g></g></g></g></g><g transform="translate(224.928,165.02784000000003)">
<text>(</text></g>
<g transform="translate(256.896,122.69184000000003)">
<g transform="translate(0,42.336)">
<text>ğ‘¥</text></g>
</g><g transform="translate(309.696,148.81536000000003)">
<g transform="translate(0,0)">
<g transform="translate(0,40.21248)">
<g transform="scale(0.68)"><text>ğ‘–</text></g>
</g></g></g><g transform="translate(351.33141333333333,165.02784000000003)">
<text>âˆ’</text></g>
<g transform="translate(438.42474666666664,165.02784000000003)">
<text>Î¼</text></g>
<g transform="translate(489.1127466666666,100.13184000000003)">
<g transform="translate(0,64.896)">
<text>)</text></g>
</g><g transform="translate(521.0807466666666,92.00256000000002)">
<g transform="translate(0,0)">
<g transform="translate(0,44.12928)">
<g transform="scale(0.68)"><text>2</text></g>
</g></g></g></g></g></g></g></svg>