<?xml version="1.0" encoding="UTF-8" standalone="no"?>
<!DOCTYPE svg PUBLIC "-//W3C//DTD SVG 1.1//EN" "http://www.w3.org/Graphics/SVG/1.1/DTD/svg11.dtd">
<svg width="844.05" height="305.20" xmlns="http://www.w3.org/2000/svg">
    <defs>
    <style type="text/css">@font-face{font-family:rex;src:url('http://rex.breeden.cc/rex-xits.otf');}</style>
    </defs>
    <g font-family="rex" font-size="96.0px"><g transform="translate(12.00 5.00)"><g transform="translate(0.00 190.21)"><text>σ</text></g><g transform="translate(84.61 190.21)"><text>=</text></g><g transform="translate(182.37 0.00)"><g transform="translate(0.00 246.24)"><text></text></g></g><g transform="translate(285.66 0.00)"><rect x="0.00" y ="0.00" width="534.38" height="6.34" fill="#000"/><g transform="translate(0.00 24.60)"><g transform="translate(1.60 45.04)"><g transform="translate(10.66 64.90)"><text>1</text></g><rect x="0.00" y ="93.41" width="69.31" height="6.34" fill="#000"/><g transform="translate(0.00 124.22)"><g transform="translate(0.00 63.55)"><text>N</text></g></g></g><g transform="translate(88.51 0.00)"><g transform="translate(38.45 0.00)"><g transform="translate(0.00 43.22)"><text transform="scale(0.68)">N</text></g></g><g transform="translate(0.00 72.02)"><g transform="translate(0.00 143.90)"><text></text></g></g><g transform="translate(0.00 225.62)"><g transform="translate(14.26 0.00)"><g transform="translate(0.00 44.59)"><text transform="scale(0.68)">i</text></g><g transform="translate(18.15 44.59)"><text transform="scale(0.68)">=</text></g><g transform="translate(62.86 44.59)"><text transform="scale(0.68)">1</text></g></g></g></g><g transform="translate(212.54 165.62)"><text>(</text></g><g transform="translate(244.51 122.42)"><g transform="translate(0.00 43.20)"><text>x</text></g></g><g transform="translate(292.51 145.03)"><g transform="translate(0.00 44.59)"><text transform="scale(0.68)">i</text></g></g><g transform="translate(331.99 165.62)"><text>−</text></g><g transform="translate(419.09 165.62)"><text>μ</text></g><g transform="translate(469.77 100.72)"><g transform="translate(0.00 64.90)"><text>)</text></g></g><g transform="translate(501.74 92.59)"><g transform="translate(0.00 44.13)"><text transform="scale(0.68)">2</text></g></g></g></g></g></g>
</svg>
